<mxfile host="app.diagrams.net" modified="2022-06-27T13:50:58.776Z" agent="5.0 (Macintosh; Intel Mac OS X 10_15_7) AppleWebKit/537.36 (KHTML, like Gecko) Chrome/102.0.0.0 Safari/537.36" etag="kfMkKDjijPev5zFsPab3" version="16.6.4" type="github" pages="2">
  <diagram id="JBRjzAtM3G7ILHRSR6o6" name="Page-1">
    <mxGraphModel dx="1426" dy="761" grid="0" gridSize="10" guides="1" tooltips="1" connect="1" arrows="1" fold="1" page="1" pageScale="1" pageWidth="2339" pageHeight="3300" math="0" shadow="0">
      <root>
        <mxCell id="0" />
        <mxCell id="1" parent="0" />
        <mxCell id="ISa7n2zJE7d0IjWUZAvD-1" value="" style="rounded=1;whiteSpace=wrap;html=1;" parent="1" vertex="1">
          <mxGeometry x="490" y="327" width="90" height="174" as="geometry" />
        </mxCell>
        <mxCell id="ISa7n2zJE7d0IjWUZAvD-3" value="" style="rounded=1;whiteSpace=wrap;html=1;arcSize=8;" parent="1" vertex="1">
          <mxGeometry x="330" y="294" width="140" height="250" as="geometry" />
        </mxCell>
        <mxCell id="ISa7n2zJE7d0IjWUZAvD-4" value="Code Changes" style="rounded=1;whiteSpace=wrap;html=1;" parent="1" vertex="1">
          <mxGeometry x="355" y="440" width="90" height="20" as="geometry" />
        </mxCell>
        <mxCell id="ISa7n2zJE7d0IjWUZAvD-5" value="Unit Testing" style="rounded=1;whiteSpace=wrap;html=1;" parent="1" vertex="1">
          <mxGeometry x="355" y="468" width="90" height="20" as="geometry" />
        </mxCell>
        <mxCell id="ISa7n2zJE7d0IjWUZAvD-6" value="" style="edgeStyle=orthogonalEdgeStyle;rounded=0;orthogonalLoop=1;jettySize=auto;html=1;fontSize=8;strokeWidth=1;" parent="1" source="ISa7n2zJE7d0IjWUZAvD-7" target="ISa7n2zJE7d0IjWUZAvD-19" edge="1">
          <mxGeometry relative="1" as="geometry" />
        </mxCell>
        <mxCell id="ISa7n2zJE7d0IjWUZAvD-7" value="Commit" style="rounded=1;whiteSpace=wrap;html=1;" parent="1" vertex="1">
          <mxGeometry x="355" y="498" width="90" height="20" as="geometry" />
        </mxCell>
        <mxCell id="ISa7n2zJE7d0IjWUZAvD-8" value="Analysis" style="rounded=1;whiteSpace=wrap;html=1;" parent="1" vertex="1">
          <mxGeometry x="355" y="408" width="90" height="20" as="geometry" />
        </mxCell>
        <mxCell id="ISa7n2zJE7d0IjWUZAvD-9" value="" style="group" parent="1" vertex="1" connectable="0">
          <mxGeometry x="380" y="302" width="40" height="53" as="geometry" />
        </mxCell>
        <mxCell id="ISa7n2zJE7d0IjWUZAvD-10" value="" style="shape=image;verticalLabelPosition=bottom;labelBackgroundColor=#ffffff;verticalAlign=top;aspect=fixed;imageAspect=0;image=data:image/png,iVBORw0KGgoAAAANSUhEUgAAAGMAAABVCAYAAABdGFolAAAF7klEQVR4Ae2c2YvkVBTG599x3x1XXFFx30VxwBVfFMEVHUUEN1BcYR4UQcUNFR0UH8QFFVQE7e6qnl5n6enpvbva3qa6p3q665OP5JA7mSSdreib1LkQkkpubirnl++cc+9N1ZZjOgBd7LDBFgVhBwhyUBgWeQaFoTDscQ02uWlVhipDlRGkSFWGKkOVocqwSAUKQ2GoSwpSQdC+TAEcWiItEGTwqH0KI9Kc2Q5GGT7oWC4wvq4BzwzrQht8MeMBDDJ41L5cYDy9X+OCGPnRIYVhzZyMwrAoZVUYCsPzjRozvJipylBlqDIkgzLXqowIZZzQAewYBy7d5bkS03h5byuMCBiPuXn/ehO4rrf1QBRGBIyug447HVxuPQiqTGGEwLipz4trzw0rjE3tGX9Tc2AsrgGndimMzDAu6gau70tuyLMrwKF1B8YHU975V/UAl7UwmJfSTZ3RBbw74Rh0tAGcnvDJfn3MAdFsApe7xj+5E9izAqw2gQ+ngLMqHqS8sqpSwWAq+uIIMHfY8/eNdeDBvfENd1wHMN5wzv913jvvnt3AsqsWHqX7em0UOKnTq5MVSmlgPLwPGD7kQeBT/e0scEl3MmM9tNdr4/7dR557fhX4cgZYa3p1xhrAk0NH1ksLpfAw7hgAJAUVE/21CNyYIlbQiH8vOq0MrYQb+JpegKoxS08duHsw/Jw4gAoL44oe4Mc50xwA+wMP7ElvEBpZyksjG7dz1yBACGb5bR64NmUHsXAwzq0Cn04Dhw1XMbXqTNvS38d5AsPqfO5Oex5cA5gEhNXz7398CGCiIIU99q9qwAUJXWRhYJzSCbw5BtBQUrj91jjAY34DJf18ZgWou20TdtLzT+wEXh0FFozkgQF/xwRwWkyw1sM4tgPYvh+YNJ48quKzGeC8anKjhRn5lRFBDFyd0s2wbaa87Jswi5NSWwWePwAcv4FyrYZxcTcwsCy35Kx/mgOu7MkPgsCRTOzPxXza5kjv9/8BzOqkMClgrJNr+tdWw+CX/WfJuRV2uO4cCL8R/40l+cygLyVJnyTONW7tB3rdIN9Xj1aH1TDOqQIzq46Z6Jo+mQa4L44RktT5fcG5BoNw1iTAvO7WCvD+pOeyGE84RGPWMbethsEBurfHjw7ab4wBHJ4wbyTtNt2GuBL2qNO2Y57HYM4YNG8E85V1Z4gmamjGahhygwzUTDvNdJYBnS8zMMBLvTTrj6YcVXBgMI/xpkf2ASPGSADTXI4AXxihCPnehYAhX5aB+2dfz7d/GbjPN2wh9TdaM+VcctNZ9gs2qh91fNsgUHUnoyT+/LGQbNS4UDDEGNsGgErAjd+QcAiE6aaUtMMnHFb/JeABuTfFA1JIGAIlyCXsrEUHSTmXa2ZoLP8uJVcFBw3pOs1Bw4kG8FQG11loGDQog+XLvmFz+n/OZ0QNaXBQTwqhmpCitplUvONLKujqOAeSNakoPAzTcEwj/YXzG2Yd2WbnUQrnQWR/1PrZYWDaTbXl3I9zTLdLBUMMyXkMs/CVGzkma3EvTJ3jwDA7hmz7h7no3rRcJ8m6lDBoAAZkzmtw8RvkvUnH1xMIfb//eNjnnbMAl9tbNBJQWhhiUMYU2Za1TMt+N3v0MakTtGZbQe0F1U2zr/Qw/EbhCLCU2/qTwfC3lffntoMh/ZNddbtAEGzbweBNc0KKLx7k/WRnba8tYWQ1WqvOVxgx+xitAmC2qzAUhuQzzjC4+XS087YqQ5WhygjyAFYr45Z+510pvi9l4xJk0LB9nNLlcnPEnIvVMPiKpc0lye/8+B4Vl6jXRgsBg2/m2bi0FYwwyZd1/6Ypo7sOcNG/q/CGZTYNRlmf7iz3pTC0n+FJM8uTVLZzVRmqjPjKeOEA0C6L/BEA+1ZJVZ/pDyPjXOwJ4w8Ube78teK7xbGPWUdhtIKC26Zp6DjbLYcR50toHcelKQyLgr/CUBjJM412cGWqDFWGKiNI6aoMVYYqQ5VhkQoUhsJQlxSkgqB9GsAtUovCUBjqutRNWaSCIBj/AxAC5k9GHFzeAAAAAElFTkSuQmCC;" parent="ISa7n2zJE7d0IjWUZAvD-9" vertex="1">
          <mxGeometry x="2.530000000000001" width="34.94" height="30" as="geometry" />
        </mxCell>
        <mxCell id="ISa7n2zJE7d0IjWUZAvD-11" value="Enterprise Developer" style="text;html=1;strokeColor=none;fillColor=none;align=center;verticalAlign=middle;whiteSpace=wrap;rounded=0;" parent="ISa7n2zJE7d0IjWUZAvD-9" vertex="1">
          <mxGeometry y="33" width="40" height="20" as="geometry" />
        </mxCell>
        <mxCell id="ISa7n2zJE7d0IjWUZAvD-12" value="" style="endArrow=classic;startArrow=classic;html=1;entryX=0.5;entryY=0;entryDx=0;entryDy=0;exitX=0.5;exitY=1;exitDx=0;exitDy=0;" parent="1" target="ISa7n2zJE7d0IjWUZAvD-3" edge="1">
          <mxGeometry width="50" height="50" relative="1" as="geometry">
            <mxPoint x="399.9949999999999" y="249" as="sourcePoint" />
            <mxPoint x="420" y="354" as="targetPoint" />
          </mxGeometry>
        </mxCell>
        <mxCell id="ISa7n2zJE7d0IjWUZAvD-13" value="" style="shape=image;verticalLabelPosition=bottom;labelBackgroundColor=#ffffff;verticalAlign=top;aspect=fixed;imageAspect=0;image=data:image/png,iVBORw0KGgoAAAANSUhEUgAAAGgAAABjCAYAAAB320ViAAAgAElEQVR4Ae1991sUWbfu+Rvufe535hvDGEHJWTChOOqo44hgQDGgiI6IaRwVsyLqKCaCARRRzJizmMWIKKKIKEEREJpYVd1dxY/vfdZu2mm7q6G7gdbznflhP9XVXV07vHuFvdbaa/9XQ0MD/inf7xj81z/gfL/gEDbfOUASGhokNIgqNKh4NCjr0CDUQhJq2bVBxWl++w/mAt8vQJKIBjWPBjUHSVEAsSgDYu45qLOPQPXiMNTZJyDm34CkeI8GSf0fy6a/D4AkCUQNkqIQYuEdqDP3QJm+CELaWPDJLuAPuENIGwnlzeVQ56RBLM2CVFemoSi10ig4okgU+H2zsOba9+0AktSQakshljyG+tkeKK8RIOPAp/qB3+8FPtkTwrEhUKb/CXV2CsSi25AqXkOqK4eKq0FlhQLv8j8i82kurl55gqMHrmLXzuPYtvkQNkcnI3pNEqJWJ7Lrpqj92PrXIcRuPYqUpPO4dDYDjzJeIvdVAcpKKyEISoii+F2CaV2ARBUkrhJi6XOoX52E6vYqCMd/BZ/kAi6uK7i4zuAP9oNwfhpUD2IgFqRDqv6I+moFPpWUI/v5W9xKf4qjhy7jr3XJmPf7FowbFYnB/SPg6xaG3i5T4eUYDHf7iXDtGfSl0L2nYzC8naagv3sohvaJgP/wRZgVsh5rl+9BYsIpXDx7D5lPXqOwoATVVbXfDVjWAYiAqS+H9DkH6ucpEE5PAr/HHtzODuB2tAeXYAt+nyuE00FQ556GWFUItbIeHCfgfX4Jblx7jK2bDyJsShQG9w6Hh/0E9OwYgB4d/GHXaTTsOwdYVOx+Go2eHen/gejrOh0TAyKxdsVupB27hrdvilDy4TNqa+uhVn876mpbgEjQq3gmyFUPNkI47Ac+rosGFAJmZwcGlHBuKtS5Z5l2JokilEoVqqpq8erlO0zyXwEP+4lsIHv+ZDkYpoJIgDl1Gws/n5lYMHMbrlzIYGyQ2vQtZFrbASSJkKqLoHocCz6lL7gEG3CxncHt6KgBaNv/hXBqHNS5Zxh1icp6xloqKhSoqKhCfT2P+joOVy9lwM9zFnp2aHtwdEF06jYGbj2C4G4bjEmBK3Ag6RyKCj9ZnZraBCCptgTq3DQIp4LAJ3mAi+0Ebgexs3ZM1vAH+kL1NA5SeTZUdZXg6jlUfFagtqaeCWyVSs2ENgnumuo6pB1Lxwi/CIvYmO6gW/LZ7qcAuNoGYaB3GCaNWYYdm48gL7cIPC9YRU61IkC0oFRCKs2C8s5qJuw5xs4ImA7gtv/I2Jny/HSIeReYslBRXoG7tzOxO/Yk0q8+AlcvQCKVW081VlRWI+3YdfgPXYge7a1LSbqgOnYdg95OIQifvhGn026iuKjUoK36bW/pfesAROyMtLPCG1CeDwW/265RzjSCs/Mn8MleUN5cBvFTJgSOR97rQiQnnkWQ/xL095iOSWOWI+POc9TU1Mt2WgNSOob0ngOHLoHfhJq0YFH9Q/uHg9T355lvmCLRVmp6ywES1WzRqH55GHySK7idJGMagSF5E9sF/D4vqF8ehbq2jLGxF1lvETYpCp4OwUwLs+sUAMcuY/DrwHm4fyeLyR+5mVddXYvrVx7C12sGE+T2nSzT3rQD3ZIraY9O3cdh5OD5rE3Eook1y7W7Jd+1GCBapyjvbgC3i6hGF5wOIBbHHxwAseA2s51VKapx6kQ6m32kKekPEPH7IP+luHMzU1ZjIvbH1fN4mPEcfp6/f1N2p227Y9dAuNgEYefWIygq+vQdASSJECvzoLwcDn6vI7idP+lQTgfwCbbMMiCVv2AmmYJ3xfhrfTJ8PWfAqbshOKzDnQLg1jOIyZqLZ+/Lru4ZSBzPZJb/LwvxLalICxJdaZFMsunB3RetCpJlFKTiIJa90ICzx+ErYBh7i7eF8tx0iB8eQi3weJ3zDquWJMDXM9SAanQ7qf3sbjcRwQHLce3yA7YmkmMRpPFduZiBcSOXwLbdt1MctG2mq5fjZISMW41b6U+MtluuL019Zz5AZNQkcC7O1KxtvsgbkjsdwcV3g3BmMsTi+6irqcHzZ28Q+cdO+DhNBcka3Q419ZnMM8Turl16iCpFrax2RyaZy+fuY/TQRSa/t6k6W/xbpwB42gczhUfb7qYG35TfzAOI1OiK11BeXwhux496lNORrXGEk6Mhlj4DX1+P51l5mDF5LZxsxpkFjnagiBUO8v6dsbPq6jpZ1lFXW4/7d55hcN/ZcOpmWT3a+lrrSvJ1kCe1+zFTikwBwtgzZgEk1XyE6tZKnYWnVlvrwKwEfHJfiGXPIakEvMktxLJFcejBbF2mU47cII0evpCxO5VKJQsSWaNzsvMxxGcOs9HJvcPa35HJaOzIP3H7xlNZWWoMEP3vTQZIUtZDdW8N+D09DbU1WoQe8NZoa6p6vM8vxsol8XDvObFVWI+z7TgM6x+BtKPpUKsNVVlSHMhW9uD+C4wftRS27f1h286fKSM0UMyoagU7nv4kcLEZh8ljVjCtVH/gTb03DSBRDfWLQ+CTezVaoHUoZ/u/we93hypzFyShBtVVNdi4dh/6uU1vFXC0nXbtEYTAXxch7cR1o+sNst/duZWJHTGHkbTrNFIPXEDKvvNYvyoRvw1ewNZd2vdZ60qG3mkT1jLfkyXG1uYBUtVD/PgIwtERTAH4exHaCNKunhoLQVURW6McSr4Iv16z2kT9dbObAP9hC3D65E0oFDWyigPJpMqKKlQpalBTU8cKGTnv3cnClg0pGD4wgi1yzVFYWgIm1dPHLQRRK/eydslxgKaoqWmAyOupeA/h7BQZjY0Aagfh5BiIxRmggXn8IBvDBswxvs6x0G+jO0CkOPh6hOHcqdsg809TndP/TVFZg5NHr7OFsrPNuFalcN026n8m01AflxDmaKSJpd+upu6bBoivgjrnGLid+hpbI/XEd4b6zSmIQh3ycgsxdfwquNhap+MjBkXgTNpN1NVxZnWYzDG7405goPeMNqFyfXC098zQ6hKCxw9fmrVGagIgCWLBTQgHB+qp0wSOxtmmevgXyLWgqFQgee9ZOHQaY7VZ6dhtDPx6zURq8kVZVtfUrCRQI2ZsYsqDdgCtcSV2N+/3zcwR2VT7dH8zCpBUVQjV7ZXycocMoMk+kEozIQocc0n/NmSeRWudlgyMi+14RK9OMhsg0vrith1FL6dJVptQrJ+dAlhcRMq+cyZTvlGAiLXxKX1kqYff6wzVox1o4CiyphiRC2PhbDPeup0l04pTMPbEnzSLxWlnJ3lqRw6eZ/U2kzwKDliGe7ezTGq3LEBSfQWU5yaDi9N6QhtlDpl1dv4E4chQFkxIEZ/HD1/FkH6zrU49NCP7eYYg9cB5kzqqBUZ7ffE8D5MDV1odIGq3W48JWP5nHOpqm5efMgBJUOdd0nhEDcw5FOThAOWtFZAkckfXYvrEtXDqasQ63QpaW1Ms0MdlMvYnnrYIoMynrzHRf/k3AYiiiUb+PB9PHuc0y571ACK3tQDh3DRw8TYy7K0dhLRATfiUSo0TR69gYK8wWCPaRg4olx7jEbPpYLOd1FKN7vXIwUsszkDuvdb4ztt5MlYsjm82COVrgFQ8xJJM8Af6GPh32AI1wRaqu1HMYkDk+fu09XC3n/BNZiENIk2MhXNiIPDGw391QdH9TLa70InrmFnIGoDo10EGVZKB7/I/NKl2fwUQBReqbi8Hv9tehno6gD88FOr8K+Dq65H5JAeDes8CeRT1K7fWPbmdaWFM5h/SzHQBaO4zhXTRmiQ8dGNj8GLLDLqW9Jn8R9s2p6Lic5XRtusAJEFSvINw0Lsxfk1HMWBROT9AeXUhsyyUlyrwV1QyPOxaxxhqSee0/yEP7MTASLx8kc8iUZsDRvd3Wg89efSSyVEXm/FWV3TImkGy6P27jyYARF7SotvgdvwgSz3cjn9BnbUPkrIOb14XYoh3eJuadLQANHelxZ+73QTMnhaNRxnZzLmnC0Jzn3lOYAvHiaOXgTy51nShO3QOhFOXsXh4P5vFA8q19QsF0dYP1bVl4Lb/99chU40eUz7RGeKHeyCfzN2bz2D/07djbQagdQpAj47+GOYbgVMnbsj6Xyi+WinI+5MoZCr31XuEBq/RRAu1sfapbT9NLtt2o5iiU/KxXJaKvgBEyoFwIlAWHFr7KG/8AamqACUln7Htr1T0aO9v1dmm7VRTVwrX3RR9UFYzevO6AOfP3JYdBJq5ZKMj9/zMSeutqpWSyh08JhLPMl/Ltk0DEEXo5F/WxLV9FWPQaHfb8QNUmXtZcOKLrDyETFhp1U40BYr+bxuiUmT9RRn3nmNq8GrsjU9rdFUYbuziOB7Uvz8itmq0OzNiKPTbYc59f89QFoMup+hoAFLVQ521X97uxgyjPzDDaYOqHlcvPcDPfWZ+M82tuY4bA+j2zacYOWQuBvWeiQOJZ1H6qUJ2xpLT71lmLsKnbQTZ+qwhkyj2++D+86AJoi+HGEBSbRlUd9YYekuJmmI7gd/nAfHzK6gEAYdTLjKh3NxAfavfmwJo2MBwFjZMW0sIpE8lFZAkOUoSkJP9DmGTo+DlOKlFe5BMGQdSFqJWJaKs1HDSaAAqz4Hy/Axw2/9tqMHF20I4PRVS7Se2PYT0drmoUFMaYo1nmgOI2kDCmdZw+/acBjnx9Gct3ZPi8D7/I36fuoGFUpGm6OU0CZ4Ok5i2Rypya8WIU8zE7OnRyHmZb9AWBpBYeBPC0eHgtrc3BGi3A5Q3VjD5U15WiZWLE75b+UODbwpA9BwN7oBeMxAbc8xgULSAkUx4nfMe61buw5zQLdgcdRDrIvdh/qxt+NVvLlrLK0sLbopcunn9iUFbGEDq18fB73cxBGdHB/CJrlBn7kUDX43c1+8x5xuuvE2hQFMBondR8PsAzzDExhwxqjiQGYlc66UllSym4HN5Fco+VeLd2w84eewaG1iHLmNavMj1dQ/DqWM35QFSZcaB32MrA1A7ptmJby+jQVnPwoco1otUQ1MG61s8Yw5ADCSbcfDzCUPC9pNsT6qWepq7Egsk4CjubWZIFNukTKzT0j73cpiCxHhDyzyjINX9aHAJ3Q0Boni3fW7MgEpJJdKO38DPfWZZ3AhLG2/O/8wFiN5N7K6faygSdpzAh+IyWcXBGGBEYWQuGj1sISjuwJy26j5LVoy/1h8wQkF3VoGLp829+va3H8Ene0Asz0GDWkDq/kvo7RxicSN0G9RWny0BiNpCcoBpd0lnzbbpUSgVhXT1drF8bEilX7NslzxAyhuRbKOVPECekD7nokGtxP6E8/DqOeU/EiACiSgpYuZGtlnYGMUY+z4vt5gFKFrqGyN5uOyPOCMAXVsoH2/NQnp7MSs3ubfjY07C3db8QAvqOAlSa5TmKKipNtj9FMiiUCmM2BgQxr4nebRsYRxsfvS3SP0mM9WiuVsN6mUySHl5jmG8NbG7xphrSVHEskpt33QUrt2DzaYgGhTHrmOtUjavPyRr6iFLAi1Um2qHQ+cxjFXJLV6NAaP9nnb+RS1LQrf/58/qMJeFk/yaP3uLEYCuRMh7UL9QUCEDaOfmY3CzACDNoIyDY9fxbV62rE9tAqA5TdZv32kMtkSnmO38I5DIt7Q2MhHd/3s0HLuaH7zZNEDXFxlx0pGS4AWpMp9tsd+1NQ0etpPNpiBqsFO3CVYpMUYAon2vw/0oLtt4Oxw7j8eqJbtYbgYtZZh6JdvewjnbYNdxLJy6BZk9RhTSvHjediMUREpCHGUBkdPi/lYSDuy5AC+7qeZX3i0Izt2DrVJi1h+WpSDa9fDroPnNtmHymDWgiB9TgaHnyOLw4N4LjBu5kr2fJoG5LI6sEhSKpV+vZh10dw24+K7yAO0nNfslU7MPJ19GH5dpZldOM+pbA3T3VhZGDfmz2Xb4OIcietV+g4HSHzjtPckrUioWzYmFp/00iwEiNXvtij0G9TYuVGkbvbGFqivEj09YUqQzabcwtP9s8wHqOh7O3SfBxWZym5eY6GOyFHSPABq6uNn63XpMxXDfhSw9GWU+0QIhdyXKoVQ1h1MuYZjvArjaToGzzWTGRs2lIA+7YMRsPGhQHwOIEurxe2nnnB6L29EefJIbS3hE+UIpP0FwYKTZxlLHLmMbAZoCF5u2LU0DtMSk+r2dwhA0ahVOnbzFLAu0xVIfIPqu8P0nJO06ixED58PLYXrjuy0DyNtxKpL3GEbJagDKOwX+gJcMQB3A73VhGasa+Crkvy3CvFmbLQhTCoRL98lwsw1p8xITfdwoBfkPXWJy/Z52oRgzYhk2rUvBlQuPkPnoDXJeFODVi0I8ffgGF85kIGrlfgztNx+uNlNZof7RBCRt1VwKos3S59LuGEwEBpBYfA/C8VHgtrczBGmXPZTXFoPitT+XK1iGQku8jC7dJ8HNdlqbl+YBmm5WG7wcwjC49wL4D16JiSOjEfxbNPwHr4Bfr3kgEPX7RADRwtwcgMjMNO63xbh355k8QFJFHpSXwo047GwgnBwP2uFdW1OH2K1HLAq3IiXBvUdom5eY6BNNUNBSePQMa3EbPHrOgHsPKob9IYDMAYeeJYfd3Fl/Ie9NoRGA6iugur9RLxFSozyi5Ei77SCWv4CoUuLE0asWbcZ16hrEZhsNUFuWpgGKbNO6CTCaiOYCRIvULdEHWKJcfVnHWBxZqtXZqfIuBwoa2fED1MwnVIcb1x9j2IBw2JuZK9Shy1i42k6FZ8+Zfxc7+jxL534WPO107ulZuXvd7+iz3Sw28PTumA3GKWj0L5Ga9+n+X7cO1p7G9jU+Q5OJtVn3N20f6Du7mfBg97PYBHSyQP649ZyIY6lXoJRRRjQANUgQ319nu+bkNDnKKqJ6spOlrqS8O+Gh0RYpCjS7qLNedrPgZfe7XtH/TveePuve03/l7mdh64aTRlkcAfR1vcbeq323sd/l2j6LKQjmyh+itsF9Z7GJr089dN8IUAPLvyOkTdKkrdRXtylw8VIoJMUbpigkxqdpUoGZ6UEkk497j+nwspvdJsXPcwEStp2VDVx8/CAHwQHr4NmDBr3166eJ59TN/Fh1SrQRNnUty5TSNEDVH6G6swHc9n/JRpfyu2xYRkVRrcbjBy/h1G08KFzIPH4byHi0t8MceDtEtFrxcZwLX/c/ETl/H549fWsgaKnjRQVl2LL+OHwc58DHsfXq1vbDrcc0842kLPTXH4kJaSgvV8i2+wsFkb+HNgUb3XK/7f9A9SSW7Q3Kz/uAUYMWWhTVQjyaZpu2Yy2+2kfgl77LcTApHWWfFLLUQwBRbHZlRQ1OHX+A4b7LW69+hwj0sg+3yHpA7NClexBePMuTTWD4FYujG6m6AMKxQZos8PpsbvuPUF6cDakil0W3JO1Kg6f9JLMjL6lRxAp62dNMntviMqzfMmxae5gNfnMJyOl3haIOKYnXMXrIWvg4zmtx/TTBXG1DQEqQedwkgEWujv9tKYoKjCen/ZuCCCBOAfXjHeD3OBouWCkEK6Uf1K/TIPAc2w2gSatifqAEOfDcbKezWawZJBooC4rDfMyavAM52QUmB3qQ/azkQwUWhSeit9MCy+ptbKu3w1x42v3eyNrMZfcB8HGeitQDF1naGiIQufIVQKRuU/wBnzpI3gUe3x0Uv0BWBfIgLp6/jeUasCTciOxz1DkCprfjfItKP+dF2LI+TXa7iVxntd8RSPt2XcXQPsstqpfa6+M4n3EBMgLT0QLmUo+z7XiMH7UEJR/KZbVObVu/BqjxMCXltT/A7aZUl/qRpu0gHP0F4of7LC3YtcsZGNIn3OKgPbJuE4vo47QQfZz+MLsM7b0CB5NuyM48bQeNXe/deokpATFm16ltJ00s0kjNBUb7fH/P6exEFrGZcyH0ANKQmVj0gJ2zYJhVsQM4oqKLM9FA5zI0NOCPOVtbtA2fTCM+DvMsGqixwzfi4hnDcFljoOh+/zavGPNn7rao3t6OC5mZh1i1dsDNuVLkT+CIP5H/trhZ97osQLTNRHklXN7LSrLo0ABI5a9YKNblC/fx25D5oJTK5jRS+yx1koQszcy+TovMKqN+jsKp4xkWUVBO9nvMCYk3qz5t+zx6hJmvUn/ZtTeaKVeb1x9ocne3djLJA0TR/e+uMHYmZ1mgXeDK9KXssKXSks+gytx6mu/m1YJEC1iyChOr6+e8GP2cl5hUBnuvwP7d1ywC6PK5Jxj/6yaT6tG0ZzGbRGT60ZhzzJc71F+yu0WEbWKbnrUgNHU1ChCdjkWHLHG7ehhqdLRnKMmVbToW+Vq2nX1q0MoWxWxrNLtpTGjTgPR3iTShLMX65cfYKSlNdVL/N1K342MuYIjPKhPqoHYs/QKOJmLHMnDYthefmTh18obJ0atGAaLTF9k5CyfHGALEdt11hPL6PEiKfFQrqnH6xE1GupbYorSURFcmkxznsUHxdV2BAU0UX5flCJsQh0cZr5rl5VqQSIMrLCjH3NA96O+yvMn3U900UYi1kXvBUpmj7R+lzFm3ci8K3peYTPVNANTADv4T36eDi+8s74rY9i+oMvdAEqpQXFiKxfO2tYjV/d2RIGbUpMEZ4LYSA91WGS2DvdZgbmgSams4o1YELTiUM7S6isO6ZUcwckC00Xdq6lvJwKPFtEaVtkzGfulT97H4xXcOXr8qMBkcanfTADVIkGpKoExf0sjq9NXu9uBTh0D99hKUgsASMgSOWGSRCUjbEc01ELROImqiNccA1+VGB9PPfRWG91mPpRGpyM/7ZHRNQdE3nz4qEBN1FsP7rsPAJoAf4LqSySby75C8Md/m+DWYxFX8vMPYUTyU4UQ7YUy5NgNQAwu3YhlITk1kZ80ZrI3iuzK1W6zIZckYaJcYHeJn38kyPq0LFLEUcvS5205HH6cF8HVZJgvUII/VGN53PaYGxCMx9joyH+ej9JMCispafC6vRnZWAU6k3kfEtCSMHLgRBCqBoEuZfm6rGcUQO9NapmmSWLII1e0DubNpJ9/ehDR29I65x9g0DxCZICQR6nfXIKT2Bxerd8IJhQcnOkF1azmzMNTV1rFzgX7pP8dsO51ux3Q/a6KCyGU+gy1s+zovZgPs574GgzzWfSl+bmsRMDgGESH7sGrRcUQvP42opWmYH5aMccO2YUiv9V+eZf9zX8tAIlZKE4AcfxTcolEEvqYC3faY/LmT5tAN2rWg2XdkXj4hE1icjn2IvK5ZSSyB+ddnBDUG2Se5Qv38ECRegZKPZey4lgG9wiy2MsgNAjO0dh3PWB9ZkPs6/Qlfl8gv7GpQI2AE1ACXNV8K3f8NyGr2vK/rMqbSay0CFA3aUiVAt82ksVHKzQXhMcxabQo7k3vGNArSGvIoduFxLDg5Y+rOTqBUmbR+koRqdnzY1s2pcO1JHW85u9PtvPYzA6zbBLaGItczCXRaSxGb6udE6ylNISBpIUzyjOx/tOYi7y4F9Wvf1dpXp67jED59A7Iyc82SOfogmQdQo9KgerRN3m9ER6Ht94b63XV2fgMdGrtyaQJcbINalZIMB5MmgKaQQGeFtrx0GcsKUYZG0P/9nOE7WoGlNVoLKE3B6CGL8Dwzr1nNUh8Q/XszAWrQHCRYVQjlnbUs2sfA0hDbGfyhQVC/OQclVw9KEkRHNNMJwJaag9pyMFvz3cTWvJ0ma0KoXheZvBjVB0X33nyAiN2RW4LSNmdsAr9PZvt+XDcIx0ZCpFOFhXp8LC5jbl3KRtVSrag1B7Q130Xg9HWbhsgFsSxLibqVzrOzDCCm2dEa6QNUDzaDTyHtTi9DcHx3CEd+YSBJ9Z/x6WMpDh+4yE7MooMy7Lu0HktpzYG25F3EPikT/qaoZOS8eNcimaNLPfTZcoAaFQep7jNUWSkakHTPTSWXObE7Cr7POsgWvDVVVSy8ddrE1ejlREHmlpnrLRnEtvgPKSl04MeQvuEsqQVlYtEf4Jbetxgg1gDK1lh4G/yhgezkx6/lkuZkLtWDLZCqiqBWKVmmKUop08c1hOU8dfgfSU2BoIDDkKDVyHn5rs1OJm4dgCihK51tV/WOndBFC1d2LPSXwJOO4BK6QjgzkWl4BBIdH5N+7REiwjZaJaNUa1EQyRpiaZRxhTJ/0VE4tIGLjLAtpRa5/7cOQNp1Eh1nU10E9YsUCMeG6+Wfa8eOuBGODoPqSQLLnkUsj87FTkk6j5E/LwDJprZaM7UGQMSSB7iFYcOafXj6OIeBIzeorfld6wKklUt0bHTxPahurwKfOljHM9u+US65Q3k1HGL+JYjVJaj8rMCdG5nYvvkwQiasQj8PCgIc02qmopaAQ5GfHvbBGD3iD5YJ5MzJW/hYXG6SN7Q1gGoTgFjD6Hzv+s9Qvz4N4cwktlucS7Bt3O7fnkWwCocHQfV4B8TSLIi1ZaivrWMbeLdtScXYkUuYBZiOGGNgNeZ5a8lgm/pfomLaM9rXbTpG+M7F8kVxLNPk588KsyOIWgpS2wH0he1JLNec+tVRCGcnafKi0rEDO0kt/5HlCKLDOug0FTrtq0GogZLn8O5tMY4evIyIGRtYcDnNYmKBtBtam0yd5IGpg270ucZ30Oqf3k9Jjfp5TMfEgGWI3XIcWZlv2OliLR1oS//f9gARUCRA6QxWYn2Ft6FMjwS/nw4spB197TTOwLifwCW5QfVoO8TS5xD5GsZGOE5gG5tOnUzHmmW7EfRbJHxcprDTh23ajTJ7v6wuUMS+bNr5s8Xz8AERLJlscuIZlr2KcpdSJityj7eVAmAKaNYB6As1iSzvHKXXlMqzoc4+CiVR1YFe4OKIquh0FTsWwSqcD4M6OxlS5Vso6xTsdMmy0kq8f1eC55lvcDbtFkvbMjNkI0b+8ieG9IqAr0cofJynsNxtdJKxtlAqSwKVVvo/e8/GqEGLMHncaqyK3AU6ZONhRjY7pfHjh3IoFNWgZOemDJ41nrEuQFqgGKNPKNEAAAEESURBVFWJ7IAoqfINxPfXoM5KZsfe0IGGFNlKoPGH+kJIG8VydqufJ0MsvgtRUQh1vQI11dVsPfU27wOeZebh3s0sXLv0ABfO3sXZU7dYYEba8XR2pfQB9D2FiN1Of4rMx7l486qQ+Wjo0D/KmS2JbaMmtxTEbweQLlgU0Ur2vdoydoi7+PY81E8ToLq9AsqLUyCcmwDlxVCWmZh8Tur3NyGWvYRUVQyJr9aw0K/ep/FjfUvW1FJgtP//TgDScQxqB5oiV0WlRnbVlbGYcUqoIRbdhbrwLsSiDIil2QxUbZSrtlP/SdfvFyAtUP/Lr/8A9J1PgH8A+gcgGfnynQ/K9yTD/j91pQ5QLauHGwAAAABJRU5ErkJggg==;" parent="1" vertex="1">
          <mxGeometry x="389.49" y="372" width="21.01" height="20" as="geometry" />
        </mxCell>
        <mxCell id="ISa7n2zJE7d0IjWUZAvD-14" value="Eclipse&lt;br&gt;E-Git" style="text;html=1;strokeColor=none;fillColor=none;align=center;verticalAlign=middle;whiteSpace=wrap;rounded=0;rotation=-90;" parent="1" vertex="1">
          <mxGeometry x="344.49" y="370" width="60" height="20" as="geometry" />
        </mxCell>
        <mxCell id="ISa7n2zJE7d0IjWUZAvD-15" value="" style="group" parent="1" vertex="1" connectable="0">
          <mxGeometry x="370" y="564" width="50" height="30" as="geometry" />
        </mxCell>
        <mxCell id="ISa7n2zJE7d0IjWUZAvD-16" value="" style="verticalLabelPosition=bottom;html=1;verticalAlign=top;align=center;strokeColor=none;shape=mxgraph.azure.user;fillColor=#7EA6E0;" parent="ISa7n2zJE7d0IjWUZAvD-15" vertex="1">
          <mxGeometry width="20" height="30" as="geometry" />
        </mxCell>
        <mxCell id="ISa7n2zJE7d0IjWUZAvD-17" value="" style="verticalLabelPosition=bottom;html=1;verticalAlign=top;align=center;strokeColor=none;shape=mxgraph.azure.user;fillColor=#7EA6E0;" parent="ISa7n2zJE7d0IjWUZAvD-15" vertex="1">
          <mxGeometry x="30" width="20" height="30" as="geometry" />
        </mxCell>
        <mxCell id="ISa7n2zJE7d0IjWUZAvD-18" value="" style="edgeStyle=orthogonalEdgeStyle;rounded=0;orthogonalLoop=1;jettySize=auto;html=1;" parent="1" source="ISa7n2zJE7d0IjWUZAvD-19" edge="1">
          <mxGeometry relative="1" as="geometry">
            <mxPoint x="535" y="424.9999999999999" as="targetPoint" />
          </mxGeometry>
        </mxCell>
        <mxCell id="ISa7n2zJE7d0IjWUZAvD-19" value="" style="verticalLabelPosition=bottom;html=1;verticalAlign=top;align=center;strokeColor=none;fillColor=#00BEF2;shape=mxgraph.azure.code_file;pointerEvents=1;" parent="1" vertex="1">
          <mxGeometry x="525" y="461" width="20" height="27" as="geometry" />
        </mxCell>
        <mxCell id="ISa7n2zJE7d0IjWUZAvD-20" value="" style="rounded=1;whiteSpace=wrap;html=1;arcSize=10;fillColor=#d5e8d4;strokeColor=#82b366;" parent="1" vertex="1">
          <mxGeometry x="721.51" y="266" width="258.49" height="134" as="geometry" />
        </mxCell>
        <mxCell id="ISa7n2zJE7d0IjWUZAvD-22" value="Merge Request" style="text;html=1;strokeColor=none;fillColor=none;align=center;verticalAlign=middle;whiteSpace=wrap;rounded=0;rotation=-90;" parent="1" vertex="1">
          <mxGeometry x="490" y="433" width="40" height="20" as="geometry" />
        </mxCell>
        <mxCell id="ISa7n2zJE7d0IjWUZAvD-23" value="" style="group" parent="1" vertex="1" connectable="0">
          <mxGeometry x="515" y="335" width="40" height="52" as="geometry" />
        </mxCell>
        <mxCell id="ISa7n2zJE7d0IjWUZAvD-24" value="" style="shape=image;html=1;verticalAlign=top;verticalLabelPosition=bottom;labelBackgroundColor=#ffffff;imageAspect=0;aspect=fixed;image=https://cdn1.iconfinder.com/data/icons/social-media-2355/32/like_love_favourite_approval_best_1-128.png" parent="ISa7n2zJE7d0IjWUZAvD-23" vertex="1">
          <mxGeometry x="4" width="32" height="32" as="geometry" />
        </mxCell>
        <mxCell id="ISa7n2zJE7d0IjWUZAvD-25" value="MR&lt;br&gt;Approval" style="text;html=1;strokeColor=none;fillColor=none;align=center;verticalAlign=middle;whiteSpace=wrap;rounded=0;" parent="ISa7n2zJE7d0IjWUZAvD-23" vertex="1">
          <mxGeometry y="34" width="40" height="20" as="geometry" />
        </mxCell>
        <mxCell id="ISa7n2zJE7d0IjWUZAvD-26" value="Build" style="rounded=1;whiteSpace=wrap;html=1;" parent="1" vertex="1">
          <mxGeometry x="751.51" y="280" width="58" height="20" as="geometry" />
        </mxCell>
        <mxCell id="ISa7n2zJE7d0IjWUZAvD-27" value="Bin Mgmt" style="rounded=1;whiteSpace=wrap;html=1;" parent="1" vertex="1">
          <mxGeometry x="825.51" y="280" width="58" height="20" as="geometry" />
        </mxCell>
        <mxCell id="ISa7n2zJE7d0IjWUZAvD-28" value="" style="edgeStyle=orthogonalEdgeStyle;rounded=0;orthogonalLoop=1;jettySize=auto;html=1;fontSize=8;strokeColor=#000000;strokeWidth=1;entryX=0;entryY=1;entryDx=0;entryDy=0;" parent="1" source="ISa7n2zJE7d0IjWUZAvD-29" edge="1">
          <mxGeometry relative="1" as="geometry">
            <mxPoint x="1020.9999999999998" y="290" as="targetPoint" />
            <Array as="points">
              <mxPoint x="1000" y="290" />
              <mxPoint x="1000" y="290" />
            </Array>
          </mxGeometry>
        </mxCell>
        <mxCell id="ISa7n2zJE7d0IjWUZAvD-182" style="edgeStyle=orthogonalEdgeStyle;rounded=0;orthogonalLoop=1;jettySize=auto;html=1;entryX=0;entryY=0.75;entryDx=0;entryDy=0;strokeColor=#000000;strokeWidth=1;" parent="1" source="ISa7n2zJE7d0IjWUZAvD-29" target="ISa7n2zJE7d0IjWUZAvD-178" edge="1">
          <mxGeometry relative="1" as="geometry" />
        </mxCell>
        <mxCell id="ISa7n2zJE7d0IjWUZAvD-29" value="Deploy" style="rounded=1;whiteSpace=wrap;html=1;" parent="1" vertex="1">
          <mxGeometry x="899.51" y="280" width="58" height="20" as="geometry" />
        </mxCell>
        <mxCell id="ISa7n2zJE7d0IjWUZAvD-39" value="Impact Analysis" style="text;html=1;strokeColor=none;fillColor=none;align=center;verticalAlign=middle;whiteSpace=wrap;rounded=0;labelBackgroundColor=#A9C4EB;" parent="1" vertex="1">
          <mxGeometry x="360.3" y="257" width="90" height="20" as="geometry" />
        </mxCell>
        <mxCell id="ISa7n2zJE7d0IjWUZAvD-48" value="" style="group" parent="1" vertex="1" connectable="0">
          <mxGeometry x="745" y="304" width="71.75" height="43" as="geometry" />
        </mxCell>
        <mxCell id="ISa7n2zJE7d0IjWUZAvD-49" value="" style="shape=image;verticalLabelPosition=bottom;labelBackgroundColor=#ffffff;verticalAlign=top;aspect=fixed;imageAspect=0;image=data:image/png,iVBORw0KGgoAAAANSUhEUgAAAGMAAABVCAYAAABdGFolAAAF7klEQVR4Ae2c2YvkVBTG599x3x1XXFFx30VxwBVfFMEVHUUEN1BcYR4UQcUNFR0UH8QFFVQE7e6qnl5n6enpvbva3qa6p3q665OP5JA7mSSdreib1LkQkkpubirnl++cc+9N1ZZjOgBd7LDBFgVhBwhyUBgWeQaFoTDscQ02uWlVhipDlRGkSFWGKkOVocqwSAUKQ2GoSwpSQdC+TAEcWiItEGTwqH0KI9Kc2Q5GGT7oWC4wvq4BzwzrQht8MeMBDDJ41L5cYDy9X+OCGPnRIYVhzZyMwrAoZVUYCsPzjRozvJipylBlqDIkgzLXqowIZZzQAewYBy7d5bkS03h5byuMCBiPuXn/ehO4rrf1QBRGBIyug447HVxuPQiqTGGEwLipz4trzw0rjE3tGX9Tc2AsrgGndimMzDAu6gau70tuyLMrwKF1B8YHU975V/UAl7UwmJfSTZ3RBbw74Rh0tAGcnvDJfn3MAdFsApe7xj+5E9izAqw2gQ+ngLMqHqS8sqpSwWAq+uIIMHfY8/eNdeDBvfENd1wHMN5wzv913jvvnt3AsqsWHqX7em0UOKnTq5MVSmlgPLwPGD7kQeBT/e0scEl3MmM9tNdr4/7dR557fhX4cgZYa3p1xhrAk0NH1ksLpfAw7hgAJAUVE/21CNyYIlbQiH8vOq0MrYQb+JpegKoxS08duHsw/Jw4gAoL44oe4Mc50xwA+wMP7ElvEBpZyksjG7dz1yBACGb5bR64NmUHsXAwzq0Cn04Dhw1XMbXqTNvS38d5AsPqfO5Oex5cA5gEhNXz7398CGCiIIU99q9qwAUJXWRhYJzSCbw5BtBQUrj91jjAY34DJf18ZgWou20TdtLzT+wEXh0FFozkgQF/xwRwWkyw1sM4tgPYvh+YNJ48quKzGeC8anKjhRn5lRFBDFyd0s2wbaa87Jswi5NSWwWePwAcv4FyrYZxcTcwsCy35Kx/mgOu7MkPgsCRTOzPxXza5kjv9/8BzOqkMClgrJNr+tdWw+CX/WfJuRV2uO4cCL8R/40l+cygLyVJnyTONW7tB3rdIN9Xj1aH1TDOqQIzq46Z6Jo+mQa4L44RktT5fcG5BoNw1iTAvO7WCvD+pOeyGE84RGPWMbethsEBurfHjw7ab4wBHJ4wbyTtNt2GuBL2qNO2Y57HYM4YNG8E85V1Z4gmamjGahhygwzUTDvNdJYBnS8zMMBLvTTrj6YcVXBgMI/xpkf2ASPGSADTXI4AXxihCPnehYAhX5aB+2dfz7d/GbjPN2wh9TdaM+VcctNZ9gs2qh91fNsgUHUnoyT+/LGQbNS4UDDEGNsGgErAjd+QcAiE6aaUtMMnHFb/JeABuTfFA1JIGAIlyCXsrEUHSTmXa2ZoLP8uJVcFBw3pOs1Bw4kG8FQG11loGDQog+XLvmFz+n/OZ0QNaXBQTwqhmpCitplUvONLKujqOAeSNakoPAzTcEwj/YXzG2Yd2WbnUQrnQWR/1PrZYWDaTbXl3I9zTLdLBUMMyXkMs/CVGzkma3EvTJ3jwDA7hmz7h7no3rRcJ8m6lDBoAAZkzmtw8RvkvUnH1xMIfb//eNjnnbMAl9tbNBJQWhhiUMYU2Za1TMt+N3v0MakTtGZbQe0F1U2zr/Qw/EbhCLCU2/qTwfC3lffntoMh/ZNddbtAEGzbweBNc0KKLx7k/WRnba8tYWQ1WqvOVxgx+xitAmC2qzAUhuQzzjC4+XS087YqQ5WhygjyAFYr45Z+510pvi9l4xJk0LB9nNLlcnPEnIvVMPiKpc0lye/8+B4Vl6jXRgsBg2/m2bi0FYwwyZd1/6Ypo7sOcNG/q/CGZTYNRlmf7iz3pTC0n+FJM8uTVLZzVRmqjPjKeOEA0C6L/BEA+1ZJVZ/pDyPjXOwJ4w8Ube78teK7xbGPWUdhtIKC26Zp6DjbLYcR50toHcelKQyLgr/CUBjJM412cGWqDFWGKiNI6aoMVYYqQ5VhkQoUhsJQlxSkgqB9GsAtUovCUBjqutRNWaSCIBj/AxAC5k9GHFzeAAAAAElFTkSuQmCC;" parent="ISa7n2zJE7d0IjWUZAvD-48" vertex="1">
          <mxGeometry x="47.289999999999964" y="4.5" width="24.46" height="21" as="geometry" />
        </mxCell>
        <mxCell id="ISa7n2zJE7d0IjWUZAvD-50" value="" style="shape=image;verticalLabelPosition=bottom;labelBackgroundColor=#ffffff;verticalAlign=top;aspect=fixed;imageAspect=0;image=data:image/png,iVBORw0KGgoAAAANSUhEUgAAAF0AAAA7CAYAAAAZ3IaEAAAPtklEQVR4Ae1c+Vdb55nuHzA/tM1miJPUSRNn6TidtGnPcXqSSWeazqRNW3eZnDSZ0zppetLUdpqccZBYbGO8L9hOwLXBwUZISIgds1gSILFKYhFCLEIIEIhFFyHELn585rwfCCS0gLAAx4cf7tHl3u9+y3Pf712e9718Y35+HtvH5mLwjW3ANxdwwnsb9C3Y6dugb4Me/q3ucrkwNzWL2cmZe8Z23feSPt7PoSWpAg0JJdugb4YBtzX1oeKDdGQ+eQR5r5zHzD0i7felpM9Nz6KvpBVlv76GzKeOICOSB8nuY+jK0oLubcYLDzbGfQf6lN2JjvQ63H7jC2Q+GYeMSD4yHuVD9EQsyn5zDTOOqW3Qg0lEqPfG+0ehuyhHwasXIXoihoFNgLuPzF1HMKg2McMaat/hbH/fSDqn74c2thC5L5+FcGf0EtBuwNlvBB/1/FxM2sa3VNrvC9Ct1V2oPiSB9HsJyIhYlmwvwBclPvvF0+D0A3DNzm0Z8F9r0Odm5tBXYoDi3TSIv3uUGUx/QHteEzwQBcP1Kkxxzm3QQ9GZrjkXA82c14Sin16BcGfsksH0BNjveSQfJW9dBWewYt7l2hLgv3aSTmqBDGbHrdoFdRJIf3sYUB/wd0bDnN+MmfGt8WS+VqCTj203DkN3QQ7RY7H+jWUwsBfvCXbwUPVxJkY7hrYlPZiKIf7E1mxB7T+kEDzIWzfgbqnPeiEBlrI2uOY236B+LSSdVIq1yog7/5OC9Iej7hpwAj79wSg0nCnB+AC36dJ+z4M+NzOLLrEWBa8mrt1YrkHFEPC3/+sLDFR0bIPuqWImR53QJcqR++NzED4eE3bQhTui0Zqk3HSDes9KuqOHg5qXh+zvn1oAfI3S69bZa/rdwUP5ezcxVNe9qdJ+T4I+rDFD9aEQ0hcSkLEelzCEF0RRbFtqNeY2MUK950DvKdKh4XQxFH9Mg/R5Cuvv3lMJKvWRfNQcyoK9c/Pcx3sDdNc8ZiemYa3tQkdmPZR/y4AxQ407+66HxVNZDfSC1xKZsfa0Jxt5vvWgu1wsf+no59BTpocmvhCFP7uEIbUZdYdzWNaHVEDuj85BTAmJ1VRHBA+CR3igAGjVtot9iXbFoT6K2EfHpuj2LQedEsfTjkmM6C1ouayA9F9PIOflMwz05vMyZP/baVT8KR1Np8pQ+NqloECSh5P/kwuQ/T4Vha8lIuPRBYpX9J1YZL1wHKIn4yB4OAqCFSqLXlDpr67Comi7z0F3uUDE1VJonygHJRlIOkt/eRVccz/arlej6PVLaLmkgK3JAuUHGf7dxgg+83BKfpHEXpwpuwHahNsofDURuT86C9VHImjiClF1QAzZvusofP0Ssp4/vsC7L2aWaDc1xBdjbmrjqwa2RNKpHMI5ZIfdOASr0ghNbAGEkcuJh8o/pcPePoTOm/Uoev0ymk6VgtNbUPOZ1FdtRPIh3XMKpW9dRZ/MgL4yA6oPSKA9fhtdmRq0XC73yotOceOsTf3hXBZwuVN6god5kO1LwWj74IZL+6aATmH8zPgkZpzT7ODaBtCZqUbV38WQ7jmB9IcWQ3uSukg+ag9JMWayoT2lBnkvnUPNISkGtSaojxRA8OAyDUDqJPvFU9B/WQFHj40lJjoz1Cj+7yRWckG7aMYZmEnsKWlB2b5/gtQPjUtZJ/2VCh/Kd3ZqBvSynAN2TAyNMaN/N4Z2Q0En9UGJYK5jEKa8BgxUdcJa14WeO3qoY/IhioxdCHx28kHGLPM7cRA+FgN1dD4cvRyaz8kgfe4kVB9lYkBtRMPpEqQ/sAC6aFcs8veex2BdFwgUNwgEdF+pAT0FOi8Jd99f+WupaGecjvCxaGTs5EP+diqmxyaZ6iPql+zNUKMZ+qQKVH8qgTo+n61hdmIGrpn1kWUbB7rLhTELh+qDEggfiYb8jzcw0tCzDM7sHEYae1Hxl3SIdx9FzUEpOsX1qNifDm18ERxmG2r+IYXw0RgoPxTCqu5Cc6Ic6d+MQuauOCje/grTYxM+UrkS1LX8PVTfDcV7aWzH5b9yAd05jRjv41AflwfFRzfReK4UpqJGDLf0wmawoENcj9brSjb/tfS/ss2GgE7SoU+uQNbu4xBGxkATW8i465WSQem2qdEJTA472I4gibWo2pmnwrX0o+L9dOb+Vey/hYGaTiZtpF7k79xgz4Ur80PzGNb2QPkXIXJfOgvdFQV0l+Ww94wwqZ91TrNdQ2qSDponsZPmYh10XyrQW9oaUkQbdtCd/aOoO5yNrGePI/PxIzBcq2Kqgha28o37+3tQ242Rpl62WKNAjYK9FyB7OxUDNUZMDDlAVVu2FkvQvij/6RwaAzGU/sbwd428Fpq7Rd6GxvNl6Fe2BwWSwCfhcvRxsFS0QXuuGC2JCgy39LHr5Ar7G4euhRV00oWmnAZk7Y5nRJUpuxETww6mH/1NYHZyGuPWUUx4BCW0EPJuyB50SxuZm9eRUYdp+4IqcbuZ/vpj11wumMRaNJ4uxajJN7SfHp9Ch6AOY+YRn4oAmk93bhNjNRtOrK32kZIgU/YJjBqHMFjXDU1cPop/+gXab9QwIfE3z7CCTukv0uElbyYxt2x6fDKozp2ZmAbXYYWlugOjxkHMu5ardgncuk+z0XS6FM6B0YBSs3JRgzVdKH8vDYX/noj2W7Xez7nmMdJqwe3/vMJqZBzdNq/7JL0WeTuke06i8CeJmBp1es1p5Vhef7tcoPXYGvugT6pE1d8yUXtACmuVt6GnZ8IKOtdmhTahCAOVnT5S5DXBxZrwyZFxGDM1uPO768wddM262EKdw2NMb7an1aBf0R5wp6zsc2JkjHk+kqePQRgRA9nvUjCk9qZtSe3Ifp+C4je/9EvpEmglbyZD8kw8mxu9iJXjrPb3JOfEQEUnNNH5qPlkAXjPZ8IGOm0zWtCIrm9tk3S5MKLtXSC1dvCR+4OzoMmSqmm6UIbRjkE4B+2g2kTPCbvPSWdOcuNw604678rVovIDAfNs6j7LgSFZBZveV/9b7rSh9ZoSY6YRn765VivK373FfPeyfddYXOEeM9RfrnUARqGGRdOez4YF9GluggFIJJVn58HOnVY7dIkK5v5RYCLaGQsK38kulP85Db1leq8gxK3LSfLIF6cAq+VqOWtDgA9pzejK1qI7u5FJMHkXVKpB1V/unUc7wW4aZrWMFDT5k2KuZQDyP9xgdARV/FKCg8YLtpZg92gMmrtnm7sGfWJwDCaJFrUHpSz15dl5oHPyLijvWfgfl5a4FAqKSt9MxphpGG03qtB8WYZ+VceCXp2fB72k4YYeTIw4mFFtu1GNrD0JzFce67WBa+1fakv9D9aa0HxRDtkfUqB45ysWsdrNI9AeK2K0sVXZhTGzjelhT1tCu+/2z75goFNNZO1n2WGvBls/6K55FkBQiRqBR/xH81mZ1xv1BzoVb1LwQWXLK+lXKnmjnOhwUy/qeDnQXS0HAUr9kIHUnihmnPv06ARar6tw61/+D+roPIw09jFadmJ4DGRXOtPrcee31xcqdyN4jLkk+0ASK/tNCiRPH0XJz5MY59Ml0WKwqosRbKNtgyyalb99A8LHF7ggYj05Q3hrH9cFOm0ZsvzkVuW8dIaBJ37mKKoPZgWsI2EBRR+Hjpu1uP3GFR/A3dy3+Kmj6LhVh155KxwWjulth5mDMUPDdHXT2TKmi3vLDZA+fZJ5KoYUFYa03ejK00L5sYjxOZ4vlEgtMtbkjtLHAtl7TjNJFhDns4OPnB+cgey3Kah8X8B49dYrlezLDQKciDCKPsNZ+xgy6BTkkE+q+qsIkmeOLakHShyQ9BBQZFRJjzFd5poHeSkU3BC1mvV8QkDA3cDnvHga1X8Xw1zQDH1yJSr2C5C/9wIDgPKm6sN5sLX0Me+C4gCiDCiq7ZJqcfvnVxig7r7YbwQP4iePok9uwNz0HBTv3GTJEa82lNCI4CHrmXiWrG48W4p6fh5yXj7LjD2rBgsS8Pjb1YGuhQQ6SbhN34+St5LZlw1ekyaK9fsnmctoNw+zMHnS7mThfc0BCcS7jrCQ3uuZIFkgSjSkf+vzBVZxkfNmz0bykfXcceguKphR1F1SsHFVH4tga+lHw/ESSHbH+wBPTCJ5IxRkWRTtjCxzJzl85hTJZy+YXpQpt4ElUQaqjF6GPRCga7m+dtBdLvTL25H7w3OBi+4JxB18CB/is298KPCp+zyHJQx8FhYE8FXb0kt4hL9QXrfIwwse4KE9tQYD1UaU/+9NCB5ZpoDdLyvjIR56ZXpmcI1iDUuW0EdgAcfbyYfk2WNM0LoLmzAeQpAWDPw1gU7ulSFVBen3TgQH/FE+S4VJnjoKo0gDTUIR42ACLupugY/kLak3cjtLfpEMi6wNrclKptd9xo3kQ/LUMZZRMlytQk+xnn0MRqrRp617bpF8RimYS3WMsvDnZgYD2N+9VUEn4p64b1aD4p5IoN+Iha1fF5UD0omshGIxTxlwUYH6Wsd10eMxLGPUW6qH8sMMlg/1GTeCxzj8glcusp1b+4kUwohoCL4dxVQKfYm38hkqSKKvN/qVHYzg8gdkKNcCgk4Gkxg95QdCUIXrqvUnZISei0f5+7eYXpe+eHJZCtcB4MqFr+nvCB7y9p5He1otDP9UQfKsr2539yN6LIZ5K82JMrQkl6P5shyao4VQvJMG6QsnvIAngRvW9KA1TYXhxuWcQChAe7b1CzplTCjfSP6q+IkjzJgJHuIh2EEkEQFedVDMQnryuYO136h7VJ9In8PoLlFglBpk7lFM1RTsvYiSN5KYh6L8awYq9wuQs+eM19zJFqg+FLE8rCG1irmxniCGeu4XdDIYnVlq1HwuRdUhyaqH/N2vUL7/FvQpSjRfkUF1QLzqM2vpd71tNPEFLNtTezgbqgOZwedyQAzVx5mo/jQLmuOFaDhXivroPJ9n6uPyUft5NoxZGpZUDxVoz/Z+QSdKc7RrEJzRGvSwtfWzfGenSM1qRrh2K7jO4M+s1mdY7ndaMVhvYlyM+Y4u6BpCHY+KooIluz3BDXTuF/RAjT2vkwqiRLNJqgUxc262z7PNVp8TS0m5VcaLb8G/GAm0/nWBTouhDFEdPwfmouaQ0mKBJrIR14l6IO6GGMhwhvF3O9d1gU55zOpPJGhLrcGE1b5Mcnlkfu52YuF6nsC2VLah704rHL22oHnPcI25Wj+hg+6aZ6pkdmYGc1vwkdRqC/J3n/gZXVI5Wq6VY1jXC+LVN7MefeWcQgd9HbqRfcEWJrJoaQEh7iqqDBhp7oXsvVTobyq9kuFLfa5jbet5dlNAX8/E7udnNhb0EKVxQ4AmdehWg3S+jkRzuOe1saBv0nYNNygb3d826FsgGP8PaUxE3LBMQnoAAAAASUVORK5CYII=;" parent="ISa7n2zJE7d0IjWUZAvD-48" vertex="1">
          <mxGeometry width="47.29" height="30" as="geometry" />
        </mxCell>
        <mxCell id="ISa7n2zJE7d0IjWUZAvD-51" value="&lt;font style=&quot;font-size: 10px&quot;&gt;MF ANT&lt;/font&gt;" style="text;html=1;strokeColor=none;fillColor=none;align=center;verticalAlign=middle;whiteSpace=wrap;rounded=0;labelBackgroundColor=none;fontSize=8;" parent="ISa7n2zJE7d0IjWUZAvD-48" vertex="1">
          <mxGeometry x="10" y="23" width="60" height="20" as="geometry" />
        </mxCell>
        <mxCell id="ISa7n2zJE7d0IjWUZAvD-75" value="" style="edgeStyle=orthogonalEdgeStyle;rounded=0;orthogonalLoop=1;jettySize=auto;html=1;fontSize=8;strokeColor=#000000;strokeWidth=1;entryX=0.037;entryY=0.613;entryDx=0;entryDy=0;entryPerimeter=0;" parent="1" source="ISa7n2zJE7d0IjWUZAvD-77" target="ISa7n2zJE7d0IjWUZAvD-140" edge="1">
          <mxGeometry relative="1" as="geometry">
            <mxPoint x="690" y="280" as="targetPoint" />
            <Array as="points">
              <mxPoint x="625" y="279" />
            </Array>
          </mxGeometry>
        </mxCell>
        <mxCell id="ISa7n2zJE7d0IjWUZAvD-77" value="" style="shape=image;html=1;verticalAlign=top;verticalLabelPosition=bottom;labelBackgroundColor=#ffffff;imageAspect=0;aspect=fixed;image=https://cdn4.iconfinder.com/data/icons/icocentre-free-icons/170/f-branch_256-128.png;fontSize=8;strokeColor=#00994D;strokeWidth=2;fillColor=none;" parent="1" vertex="1">
          <mxGeometry x="610" y="336" width="30" height="30" as="geometry" />
        </mxCell>
        <mxCell id="ISa7n2zJE7d0IjWUZAvD-82" value="" style="rounded=1;whiteSpace=wrap;html=1;arcSize=10;fillColor=#e1d5e7;strokeColor=#9673a6;" parent="1" vertex="1">
          <mxGeometry x="705.02" y="469" width="289.98" height="178" as="geometry" />
        </mxCell>
        <mxCell id="ISa7n2zJE7d0IjWUZAvD-87" value="Build" style="rounded=1;whiteSpace=wrap;html=1;" parent="1" vertex="1">
          <mxGeometry x="736.51" y="480" width="58" height="20" as="geometry" />
        </mxCell>
        <mxCell id="ISa7n2zJE7d0IjWUZAvD-88" value="" style="group" parent="1" vertex="1" connectable="0">
          <mxGeometry x="730" y="504" width="71.75" height="43" as="geometry" />
        </mxCell>
        <mxCell id="ISa7n2zJE7d0IjWUZAvD-89" value="" style="shape=image;verticalLabelPosition=bottom;labelBackgroundColor=#ffffff;verticalAlign=top;aspect=fixed;imageAspect=0;image=data:image/png,iVBORw0KGgoAAAANSUhEUgAAAGMAAABVCAYAAABdGFolAAAF7klEQVR4Ae2c2YvkVBTG599x3x1XXFFx30VxwBVfFMEVHUUEN1BcYR4UQcUNFR0UH8QFFVQE7e6qnl5n6enpvbva3qa6p3q665OP5JA7mSSdreib1LkQkkpubirnl++cc+9N1ZZjOgBd7LDBFgVhBwhyUBgWeQaFoTDscQ02uWlVhipDlRGkSFWGKkOVocqwSAUKQ2GoSwpSQdC+TAEcWiItEGTwqH0KI9Kc2Q5GGT7oWC4wvq4BzwzrQht8MeMBDDJ41L5cYDy9X+OCGPnRIYVhzZyMwrAoZVUYCsPzjRozvJipylBlqDIkgzLXqowIZZzQAewYBy7d5bkS03h5byuMCBiPuXn/ehO4rrf1QBRGBIyug447HVxuPQiqTGGEwLipz4trzw0rjE3tGX9Tc2AsrgGndimMzDAu6gau70tuyLMrwKF1B8YHU975V/UAl7UwmJfSTZ3RBbw74Rh0tAGcnvDJfn3MAdFsApe7xj+5E9izAqw2gQ+ngLMqHqS8sqpSwWAq+uIIMHfY8/eNdeDBvfENd1wHMN5wzv913jvvnt3AsqsWHqX7em0UOKnTq5MVSmlgPLwPGD7kQeBT/e0scEl3MmM9tNdr4/7dR557fhX4cgZYa3p1xhrAk0NH1ksLpfAw7hgAJAUVE/21CNyYIlbQiH8vOq0MrYQb+JpegKoxS08duHsw/Jw4gAoL44oe4Mc50xwA+wMP7ElvEBpZyksjG7dz1yBACGb5bR64NmUHsXAwzq0Cn04Dhw1XMbXqTNvS38d5AsPqfO5Oex5cA5gEhNXz7398CGCiIIU99q9qwAUJXWRhYJzSCbw5BtBQUrj91jjAY34DJf18ZgWou20TdtLzT+wEXh0FFozkgQF/xwRwWkyw1sM4tgPYvh+YNJ48quKzGeC8anKjhRn5lRFBDFyd0s2wbaa87Jswi5NSWwWePwAcv4FyrYZxcTcwsCy35Kx/mgOu7MkPgsCRTOzPxXza5kjv9/8BzOqkMClgrJNr+tdWw+CX/WfJuRV2uO4cCL8R/40l+cygLyVJnyTONW7tB3rdIN9Xj1aH1TDOqQIzq46Z6Jo+mQa4L44RktT5fcG5BoNw1iTAvO7WCvD+pOeyGE84RGPWMbethsEBurfHjw7ab4wBHJ4wbyTtNt2GuBL2qNO2Y57HYM4YNG8E85V1Z4gmamjGahhygwzUTDvNdJYBnS8zMMBLvTTrj6YcVXBgMI/xpkf2ASPGSADTXI4AXxihCPnehYAhX5aB+2dfz7d/GbjPN2wh9TdaM+VcctNZ9gs2qh91fNsgUHUnoyT+/LGQbNS4UDDEGNsGgErAjd+QcAiE6aaUtMMnHFb/JeABuTfFA1JIGAIlyCXsrEUHSTmXa2ZoLP8uJVcFBw3pOs1Bw4kG8FQG11loGDQog+XLvmFz+n/OZ0QNaXBQTwqhmpCitplUvONLKujqOAeSNakoPAzTcEwj/YXzG2Yd2WbnUQrnQWR/1PrZYWDaTbXl3I9zTLdLBUMMyXkMs/CVGzkma3EvTJ3jwDA7hmz7h7no3rRcJ8m6lDBoAAZkzmtw8RvkvUnH1xMIfb//eNjnnbMAl9tbNBJQWhhiUMYU2Za1TMt+N3v0MakTtGZbQe0F1U2zr/Qw/EbhCLCU2/qTwfC3lffntoMh/ZNddbtAEGzbweBNc0KKLx7k/WRnba8tYWQ1WqvOVxgx+xitAmC2qzAUhuQzzjC4+XS087YqQ5WhygjyAFYr45Z+510pvi9l4xJk0LB9nNLlcnPEnIvVMPiKpc0lye/8+B4Vl6jXRgsBg2/m2bi0FYwwyZd1/6Ypo7sOcNG/q/CGZTYNRlmf7iz3pTC0n+FJM8uTVLZzVRmqjPjKeOEA0C6L/BEA+1ZJVZ/pDyPjXOwJ4w8Ube78teK7xbGPWUdhtIKC26Zp6DjbLYcR50toHcelKQyLgr/CUBjJM412cGWqDFWGKiNI6aoMVYYqQ5VhkQoUhsJQlxSkgqB9GsAtUovCUBjqutRNWaSCIBj/AxAC5k9GHFzeAAAAAElFTkSuQmCC;" parent="ISa7n2zJE7d0IjWUZAvD-88" vertex="1">
          <mxGeometry x="47.289999999999964" y="4.5" width="24.46" height="21" as="geometry" />
        </mxCell>
        <mxCell id="ISa7n2zJE7d0IjWUZAvD-90" value="" style="shape=image;verticalLabelPosition=bottom;labelBackgroundColor=#ffffff;verticalAlign=top;aspect=fixed;imageAspect=0;image=data:image/png,iVBORw0KGgoAAAANSUhEUgAAAF0AAAA7CAYAAAAZ3IaEAAAPtklEQVR4Ae1c+Vdb55nuHzA/tM1miJPUSRNn6TidtGnPcXqSSWeazqRNW3eZnDSZ0zppetLUdpqccZBYbGO8L9hOwLXBwUZISIgds1gSILFKYhFCLEIIEIhFFyHELn585rwfCCS0gLAAx4cf7tHl3u9+y3Pf712e9718Y35+HtvH5mLwjW3ANxdwwnsb9C3Y6dugb4Me/q3ucrkwNzWL2cmZe8Z23feSPt7PoSWpAg0JJdugb4YBtzX1oeKDdGQ+eQR5r5zHzD0i7felpM9Nz6KvpBVlv76GzKeOICOSB8nuY+jK0oLubcYLDzbGfQf6lN2JjvQ63H7jC2Q+GYeMSD4yHuVD9EQsyn5zDTOOqW3Qg0lEqPfG+0ehuyhHwasXIXoihoFNgLuPzF1HMKg2McMaat/hbH/fSDqn74c2thC5L5+FcGf0EtBuwNlvBB/1/FxM2sa3VNrvC9Ct1V2oPiSB9HsJyIhYlmwvwBclPvvF0+D0A3DNzm0Z8F9r0Odm5tBXYoDi3TSIv3uUGUx/QHteEzwQBcP1Kkxxzm3QQ9GZrjkXA82c14Sin16BcGfsksH0BNjveSQfJW9dBWewYt7l2hLgv3aSTmqBDGbHrdoFdRJIf3sYUB/wd0bDnN+MmfGt8WS+VqCTj203DkN3QQ7RY7H+jWUwsBfvCXbwUPVxJkY7hrYlPZiKIf7E1mxB7T+kEDzIWzfgbqnPeiEBlrI2uOY236B+LSSdVIq1yog7/5OC9Iej7hpwAj79wSg0nCnB+AC36dJ+z4M+NzOLLrEWBa8mrt1YrkHFEPC3/+sLDFR0bIPuqWImR53QJcqR++NzED4eE3bQhTui0Zqk3HSDes9KuqOHg5qXh+zvn1oAfI3S69bZa/rdwUP5ezcxVNe9qdJ+T4I+rDFD9aEQ0hcSkLEelzCEF0RRbFtqNeY2MUK950DvKdKh4XQxFH9Mg/R5Cuvv3lMJKvWRfNQcyoK9c/Pcx3sDdNc8ZiemYa3tQkdmPZR/y4AxQ407+66HxVNZDfSC1xKZsfa0Jxt5vvWgu1wsf+no59BTpocmvhCFP7uEIbUZdYdzWNaHVEDuj85BTAmJ1VRHBA+CR3igAGjVtot9iXbFoT6K2EfHpuj2LQedEsfTjkmM6C1ouayA9F9PIOflMwz05vMyZP/baVT8KR1Np8pQ+NqloECSh5P/kwuQ/T4Vha8lIuPRBYpX9J1YZL1wHKIn4yB4OAqCFSqLXlDpr67Comi7z0F3uUDE1VJonygHJRlIOkt/eRVccz/arlej6PVLaLmkgK3JAuUHGf7dxgg+83BKfpHEXpwpuwHahNsofDURuT86C9VHImjiClF1QAzZvusofP0Ssp4/vsC7L2aWaDc1xBdjbmrjqwa2RNKpHMI5ZIfdOASr0ghNbAGEkcuJh8o/pcPePoTOm/Uoev0ymk6VgtNbUPOZ1FdtRPIh3XMKpW9dRZ/MgL4yA6oPSKA9fhtdmRq0XC73yotOceOsTf3hXBZwuVN6god5kO1LwWj74IZL+6aATmH8zPgkZpzT7ODaBtCZqUbV38WQ7jmB9IcWQ3uSukg+ag9JMWayoT2lBnkvnUPNISkGtSaojxRA8OAyDUDqJPvFU9B/WQFHj40lJjoz1Cj+7yRWckG7aMYZmEnsKWlB2b5/gtQPjUtZJ/2VCh/Kd3ZqBvSynAN2TAyNMaN/N4Z2Q0En9UGJYK5jEKa8BgxUdcJa14WeO3qoY/IhioxdCHx28kHGLPM7cRA+FgN1dD4cvRyaz8kgfe4kVB9lYkBtRMPpEqQ/sAC6aFcs8veex2BdFwgUNwgEdF+pAT0FOi8Jd99f+WupaGecjvCxaGTs5EP+diqmxyaZ6iPql+zNUKMZ+qQKVH8qgTo+n61hdmIGrpn1kWUbB7rLhTELh+qDEggfiYb8jzcw0tCzDM7sHEYae1Hxl3SIdx9FzUEpOsX1qNifDm18ERxmG2r+IYXw0RgoPxTCqu5Cc6Ic6d+MQuauOCje/grTYxM+UrkS1LX8PVTfDcV7aWzH5b9yAd05jRjv41AflwfFRzfReK4UpqJGDLf0wmawoENcj9brSjb/tfS/ss2GgE7SoU+uQNbu4xBGxkATW8i465WSQem2qdEJTA472I4gibWo2pmnwrX0o+L9dOb+Vey/hYGaTiZtpF7k79xgz4Ur80PzGNb2QPkXIXJfOgvdFQV0l+Ww94wwqZ91TrNdQ2qSDponsZPmYh10XyrQW9oaUkQbdtCd/aOoO5yNrGePI/PxIzBcq2Kqgha28o37+3tQ242Rpl62WKNAjYK9FyB7OxUDNUZMDDlAVVu2FkvQvij/6RwaAzGU/sbwd428Fpq7Rd6GxvNl6Fe2BwWSwCfhcvRxsFS0QXuuGC2JCgy39LHr5Ar7G4euhRV00oWmnAZk7Y5nRJUpuxETww6mH/1NYHZyGuPWUUx4BCW0EPJuyB50SxuZm9eRUYdp+4IqcbuZ/vpj11wumMRaNJ4uxajJN7SfHp9Ch6AOY+YRn4oAmk93bhNjNRtOrK32kZIgU/YJjBqHMFjXDU1cPop/+gXab9QwIfE3z7CCTukv0uElbyYxt2x6fDKozp2ZmAbXYYWlugOjxkHMu5ardgncuk+z0XS6FM6B0YBSs3JRgzVdKH8vDYX/noj2W7Xez7nmMdJqwe3/vMJqZBzdNq/7JL0WeTuke06i8CeJmBp1es1p5Vhef7tcoPXYGvugT6pE1d8yUXtACmuVt6GnZ8IKOtdmhTahCAOVnT5S5DXBxZrwyZFxGDM1uPO768wddM262EKdw2NMb7an1aBf0R5wp6zsc2JkjHk+kqePQRgRA9nvUjCk9qZtSe3Ifp+C4je/9EvpEmglbyZD8kw8mxu9iJXjrPb3JOfEQEUnNNH5qPlkAXjPZ8IGOm0zWtCIrm9tk3S5MKLtXSC1dvCR+4OzoMmSqmm6UIbRjkE4B+2g2kTPCbvPSWdOcuNw604678rVovIDAfNs6j7LgSFZBZveV/9b7rSh9ZoSY6YRn765VivK373FfPeyfddYXOEeM9RfrnUARqGGRdOez4YF9GluggFIJJVn58HOnVY7dIkK5v5RYCLaGQsK38kulP85Db1leq8gxK3LSfLIF6cAq+VqOWtDgA9pzejK1qI7u5FJMHkXVKpB1V/unUc7wW4aZrWMFDT5k2KuZQDyP9xgdARV/FKCg8YLtpZg92gMmrtnm7sGfWJwDCaJFrUHpSz15dl5oHPyLijvWfgfl5a4FAqKSt9MxphpGG03qtB8WYZ+VceCXp2fB72k4YYeTIw4mFFtu1GNrD0JzFce67WBa+1fakv9D9aa0HxRDtkfUqB45ysWsdrNI9AeK2K0sVXZhTGzjelhT1tCu+/2z75goFNNZO1n2WGvBls/6K55FkBQiRqBR/xH81mZ1xv1BzoVb1LwQWXLK+lXKnmjnOhwUy/qeDnQXS0HAUr9kIHUnihmnPv06ARar6tw61/+D+roPIw09jFadmJ4DGRXOtPrcee31xcqdyN4jLkk+0ASK/tNCiRPH0XJz5MY59Ml0WKwqosRbKNtgyyalb99A8LHF7ggYj05Q3hrH9cFOm0ZsvzkVuW8dIaBJ37mKKoPZgWsI2EBRR+Hjpu1uP3GFR/A3dy3+Kmj6LhVh155KxwWjulth5mDMUPDdHXT2TKmi3vLDZA+fZJ5KoYUFYa03ejK00L5sYjxOZ4vlEgtMtbkjtLHAtl7TjNJFhDns4OPnB+cgey3Kah8X8B49dYrlezLDQKciDCKPsNZ+xgy6BTkkE+q+qsIkmeOLakHShyQ9BBQZFRJjzFd5poHeSkU3BC1mvV8QkDA3cDnvHga1X8Xw1zQDH1yJSr2C5C/9wIDgPKm6sN5sLX0Me+C4gCiDCiq7ZJqcfvnVxig7r7YbwQP4iePok9uwNz0HBTv3GTJEa82lNCI4CHrmXiWrG48W4p6fh5yXj7LjD2rBgsS8Pjb1YGuhQQ6SbhN34+St5LZlw1ekyaK9fsnmctoNw+zMHnS7mThfc0BCcS7jrCQ3uuZIFkgSjSkf+vzBVZxkfNmz0bykfXcceguKphR1F1SsHFVH4tga+lHw/ESSHbH+wBPTCJ5IxRkWRTtjCxzJzl85hTJZy+YXpQpt4ElUQaqjF6GPRCga7m+dtBdLvTL25H7w3OBi+4JxB18CB/is298KPCp+zyHJQx8FhYE8FXb0kt4hL9QXrfIwwse4KE9tQYD1UaU/+9NCB5ZpoDdLyvjIR56ZXpmcI1iDUuW0EdgAcfbyYfk2WNM0LoLmzAeQpAWDPw1gU7ulSFVBen3TgQH/FE+S4VJnjoKo0gDTUIR42ACLupugY/kLak3cjtLfpEMi6wNrclKptd9xo3kQ/LUMZZRMlytQk+xnn0MRqrRp617bpF8RimYS3WMsvDnZgYD2N+9VUEn4p64b1aD4p5IoN+Iha1fF5UD0omshGIxTxlwUYH6Wsd10eMxLGPUW6qH8sMMlg/1GTeCxzj8glcusp1b+4kUwohoCL4dxVQKfYm38hkqSKKvN/qVHYzg8gdkKNcCgk4Gkxg95QdCUIXrqvUnZISei0f5+7eYXpe+eHJZCtcB4MqFr+nvCB7y9p5He1otDP9UQfKsr2539yN6LIZ5K82JMrQkl6P5shyao4VQvJMG6QsnvIAngRvW9KA1TYXhxuWcQChAe7b1CzplTCjfSP6q+IkjzJgJHuIh2EEkEQFedVDMQnryuYO136h7VJ9In8PoLlFglBpk7lFM1RTsvYiSN5KYh6L8awYq9wuQs+eM19zJFqg+FLE8rCG1irmxniCGeu4XdDIYnVlq1HwuRdUhyaqH/N2vUL7/FvQpSjRfkUF1QLzqM2vpd71tNPEFLNtTezgbqgOZwedyQAzVx5mo/jQLmuOFaDhXivroPJ9n6uPyUft5NoxZGpZUDxVoz/Z+QSdKc7RrEJzRGvSwtfWzfGenSM1qRrh2K7jO4M+s1mdY7ndaMVhvYlyM+Y4u6BpCHY+KooIluz3BDXTuF/RAjT2vkwqiRLNJqgUxc262z7PNVp8TS0m5VcaLb8G/GAm0/nWBTouhDFEdPwfmouaQ0mKBJrIR14l6IO6GGMhwhvF3O9d1gU55zOpPJGhLrcGE1b5Mcnlkfu52YuF6nsC2VLah704rHL22oHnPcI25Wj+hg+6aZ6pkdmYGc1vwkdRqC/J3n/gZXVI5Wq6VY1jXC+LVN7MefeWcQgd9HbqRfcEWJrJoaQEh7iqqDBhp7oXsvVTobyq9kuFLfa5jbet5dlNAX8/E7udnNhb0EKVxQ4AmdehWg3S+jkRzuOe1saBv0nYNNygb3d826FsgGP8PaUxE3LBMQnoAAAAASUVORK5CYII=;" parent="ISa7n2zJE7d0IjWUZAvD-88" vertex="1">
          <mxGeometry width="47.29" height="30" as="geometry" />
        </mxCell>
        <mxCell id="ISa7n2zJE7d0IjWUZAvD-91" value="&lt;font style=&quot;font-size: 10px&quot;&gt;MF ANT&lt;/font&gt;" style="text;html=1;strokeColor=none;fillColor=none;align=center;verticalAlign=middle;whiteSpace=wrap;rounded=0;labelBackgroundColor=none;fontSize=8;" parent="ISa7n2zJE7d0IjWUZAvD-88" vertex="1">
          <mxGeometry x="10" y="23" width="60" height="20" as="geometry" />
        </mxCell>
        <mxCell id="ISa7n2zJE7d0IjWUZAvD-92" value="Bin Mgmt" style="rounded=1;whiteSpace=wrap;html=1;" parent="1" vertex="1">
          <mxGeometry x="807.51" y="480" width="58" height="20" as="geometry" />
        </mxCell>
        <mxCell id="ISa7n2zJE7d0IjWUZAvD-193" style="edgeStyle=orthogonalEdgeStyle;rounded=0;orthogonalLoop=1;jettySize=auto;html=1;entryX=0.342;entryY=0.286;entryDx=0;entryDy=0;entryPerimeter=0;strokeColor=#000000;strokeWidth=1;" parent="1" source="ISa7n2zJE7d0IjWUZAvD-96" target="ISa7n2zJE7d0IjWUZAvD-192" edge="1">
          <mxGeometry relative="1" as="geometry" />
        </mxCell>
        <mxCell id="ISa7n2zJE7d0IjWUZAvD-96" value="Deploy with Rollback Support" style="rounded=1;whiteSpace=wrap;html=1;" parent="1" vertex="1">
          <mxGeometry x="878.07" y="480" width="96.93" height="36" as="geometry" />
        </mxCell>
        <mxCell id="ISa7n2zJE7d0IjWUZAvD-101" value="Notify" style="rounded=1;whiteSpace=wrap;html=1;" parent="1" vertex="1">
          <mxGeometry x="896.17" y="524.27" width="58" height="20" as="geometry" />
        </mxCell>
        <mxCell id="ISa7n2zJE7d0IjWUZAvD-109" value="" style="edgeStyle=orthogonalEdgeStyle;rounded=0;orthogonalLoop=1;jettySize=auto;html=1;fontSize=8;strokeColor=#000000;strokeWidth=1;" parent="1" source="ISa7n2zJE7d0IjWUZAvD-24" target="ISa7n2zJE7d0IjWUZAvD-77" edge="1">
          <mxGeometry relative="1" as="geometry" />
        </mxCell>
        <mxCell id="ISa7n2zJE7d0IjWUZAvD-153" style="edgeStyle=orthogonalEdgeStyle;rounded=0;orthogonalLoop=1;jettySize=auto;html=1;entryX=-0.002;entryY=0.571;entryDx=0;entryDy=0;entryPerimeter=0;" parent="1" source="ISa7n2zJE7d0IjWUZAvD-110" target="ISa7n2zJE7d0IjWUZAvD-146" edge="1">
          <mxGeometry relative="1" as="geometry">
            <mxPoint x="690" y="467" as="targetPoint" />
            <Array as="points">
              <mxPoint x="625" y="467" />
              <mxPoint x="680" y="467" />
            </Array>
          </mxGeometry>
        </mxCell>
        <mxCell id="ISa7n2zJE7d0IjWUZAvD-110" value="&lt;font style=&quot;font-size: 11px&quot;&gt;Branch&lt;/font&gt;" style="text;html=1;strokeColor=none;fillColor=none;align=center;verticalAlign=middle;whiteSpace=wrap;rounded=0;labelBackgroundColor=none;fontSize=8;" parent="1" vertex="1">
          <mxGeometry x="605" y="361" width="40" height="20" as="geometry" />
        </mxCell>
        <mxCell id="ISa7n2zJE7d0IjWUZAvD-111" value="&lt;font style=&quot;font-size: 11px&quot;&gt;develop/sit&lt;/font&gt;" style="text;html=1;strokeColor=none;fillColor=none;align=center;verticalAlign=middle;whiteSpace=wrap;rounded=0;labelBackgroundColor=none;fontSize=8;" parent="1" vertex="1">
          <mxGeometry x="630" y="261.44" width="40" height="20" as="geometry" />
        </mxCell>
        <mxCell id="ISa7n2zJE7d0IjWUZAvD-116" value="&lt;font style=&quot;font-size: 14px&quot;&gt;Monitoring&lt;/font&gt;" style="text;html=1;strokeColor=none;fillColor=none;align=center;verticalAlign=middle;whiteSpace=wrap;rounded=0;labelBackgroundColor=none;fontSize=8;" parent="1" vertex="1">
          <mxGeometry x="1158.62" y="602" width="40" height="20" as="geometry" />
        </mxCell>
        <mxCell id="ISa7n2zJE7d0IjWUZAvD-118" value="&lt;font style=&quot;font-size: 11px&quot;&gt;Incremental/Full&lt;/font&gt;" style="text;html=1;strokeColor=none;fillColor=none;align=center;verticalAlign=middle;whiteSpace=wrap;rounded=0;labelBackgroundColor=none;fontSize=8;" parent="1" vertex="1">
          <mxGeometry x="749.51" y="451.5" width="40" height="20" as="geometry" />
        </mxCell>
        <mxCell id="ISa7n2zJE7d0IjWUZAvD-131" value="User&lt;br&gt;Desktop" style="text;html=1;strokeColor=none;fillColor=none;align=center;verticalAlign=middle;whiteSpace=wrap;rounded=0;" parent="1" vertex="1">
          <mxGeometry x="265" y="293" width="60" height="30" as="geometry" />
        </mxCell>
        <mxCell id="ISa7n2zJE7d0IjWUZAvD-139" value="" style="verticalLabelPosition=bottom;sketch=0;aspect=fixed;html=1;verticalAlign=top;strokeColor=none;align=center;outlineConnect=0;shape=mxgraph.citrix.desktop;" parent="1" vertex="1">
          <mxGeometry x="314" y="277" width="36.33" height="40" as="geometry" />
        </mxCell>
        <mxCell id="ISa7n2zJE7d0IjWUZAvD-142" value="" style="group" parent="1" vertex="1" connectable="0">
          <mxGeometry x="690" y="240" width="54.559999999999945" height="52.879999999999995" as="geometry" />
        </mxCell>
        <mxCell id="ISa7n2zJE7d0IjWUZAvD-140" value="" style="sketch=0;aspect=fixed;html=1;points=[];align=center;image;fontSize=12;image=img/lib/mscae/VM_Linux_Non_Azure.svg;" parent="ISa7n2zJE7d0IjWUZAvD-142" vertex="1">
          <mxGeometry x="15.559999999999945" y="17" width="39" height="35.88" as="geometry" />
        </mxCell>
        <mxCell id="ISa7n2zJE7d0IjWUZAvD-141" value="" style="shape=image;verticalLabelPosition=bottom;labelBackgroundColor=default;verticalAlign=top;aspect=fixed;imageAspect=0;image=https://gitlab.com/uploads/-/system/project/avatar/250833/runner_logo.png;" parent="ISa7n2zJE7d0IjWUZAvD-142" vertex="1">
          <mxGeometry width="32" height="32" as="geometry" />
        </mxCell>
        <mxCell id="ISa7n2zJE7d0IjWUZAvD-145" value="" style="group" parent="1" vertex="1" connectable="0">
          <mxGeometry x="669" y="430" width="54.559999999999945" height="52.879999999999995" as="geometry" />
        </mxCell>
        <mxCell id="ISa7n2zJE7d0IjWUZAvD-146" value="" style="sketch=0;aspect=fixed;html=1;points=[];align=center;image;fontSize=12;image=img/lib/mscae/VM_Linux_Non_Azure.svg;" parent="ISa7n2zJE7d0IjWUZAvD-145" vertex="1">
          <mxGeometry x="15.559999999999945" y="17" width="39" height="35.88" as="geometry" />
        </mxCell>
        <mxCell id="ISa7n2zJE7d0IjWUZAvD-147" value="" style="shape=image;verticalLabelPosition=bottom;labelBackgroundColor=default;verticalAlign=top;aspect=fixed;imageAspect=0;image=https://gitlab.com/uploads/-/system/project/avatar/250833/runner_logo.png;" parent="ISa7n2zJE7d0IjWUZAvD-145" vertex="1">
          <mxGeometry width="32" height="32" as="geometry" />
        </mxCell>
        <mxCell id="ISa7n2zJE7d0IjWUZAvD-148" value="Artifactory" style="shape=image;verticalLabelPosition=bottom;labelBackgroundColor=none;verticalAlign=top;aspect=fixed;imageAspect=0;image=data:image/png,iVBORw0KGgoAAAANSUhEUgAAANUAAADtCAMAAAAft8BxAAAAilBMVEX///9hpjpcpDL8/vuXw4KLvHJfpTdZoi1epTZbozBYoitWoSdsrUXO48NmqT75/Pfu9erD3Lbz+PCz06Lq8+bZ6c/l8N/n8uFvrkxoqkJSnyB0sFOozJWKvHDd69aSwHp/tmKhyI261quCt2a92K/Q48Z4slmuz52+17OmyZaexomQv3maxYKtzZ7XKOzgAAAKxElEQVR4nO1dbXerKBC+wURQE9+iqZrEmNgkve3u//97m7Z3t3XABBSEnuU5/dCeU4WRYXiYGYZfvywsLCws1MGJ83yV/MEqr+NId4/GwMny1W5f4MC/Af/B++8BLva7Vf7k6O6hIJy0Xi8uBfI95M4YcInno/Lydq3jHyPaTaIywIgwBfouGsJBuV/Xuvv7GPHq1btJ9ECg76LhAB1Wse5+30F6fgs9xCvQF5BX7s+p7t6zsTluA/5BAkOG/O1xo1sCGsm+8sgwkf4I5lX7lW4pOohPS3+USJ9AGJ2MmWHpusADNQ/CxcXOiAnmrAtfkkyfcoUn/WtYgmTK9CGXT571ypQ3snSvIxe+5PpkSl9l2AgWiHfQNb2SEIsMwDv4/90jiQ6Z4j3PhLqRPYT9oArCD/hV4GPvIUX8eNJvs8mFWhXeo34RD8+Ky+J1neRZFn8gy+rV+rhoihA/XrNROfWq/PpgoG6kNdjuznXPohrXq92lCvB9ydzgdUojv9n69zqDfLRfc1ix+rT37lNHXE6nhavyDjEn/vKQpJzf2ElXb8W9ESOzqbRw3a99rkcuieDnzZIL8vrfiHZqpOjCmVf9w0R2g7YT9W7Wv/IFB/WTK236FikSNKfB7iPndOmVC7eqiXx66ZlSrrdNRrnE0mTbx77QRa3NyAq2UC5GyWg9cZ7DHtOKCpWjtSnZWuK5cqa0c/LYazsq1G3/M7ZQrn+QpiHZgW0O0VaVWFnBFMoLpS4pq5A5XGipRgnTLWtOudVcst88mges4SJLFSYjYgqF5A7UJ9jcBTXyR8vZs1rCjRJ1jy8sLfRa6Q0dA0Y71VzRsu8cWQTGn0tuZs0QiiCFXpOENbmCtdQ2zozdK1G7qTuzlhEks8mUJdRMcYimZvAYInG/5TT0+9WSmA+w6BkqpL1+R9N01YTzA2lDm0Jf1nbrTCs4KZ4kvfwuUoaS4LOUVzszSioSThS6YJA0Ukjxf75SaqCGvDAR05bQO0h475na87jhhAHqvKTMbzBeB6ML9bGqSZ2PK2r9J8VoPn2khgrLXeAf4pkiT/5x5CtraqSwDLUWwl/QELpjCcACvpFcJg/BRFv4adE49p7To68hf6CmQkR4zNSOGviVfC3BzQRaDLId8bYVNBUjh34wqIkQjIjZQavuhpMQJRoxdO2TZrB1TyCrDbQF1xOoNcMHC5Iw0mpLw6TcJmQ7sC9naAArjal8NdSbgWbQ2YOh8mQ7Q4RwBCSbDNs/1sCcuqUmU/GJlJpZgzQH7kDwJEG/flxBf9DrgJfERdeYulPtFPuQgj2JSwZwN2hL8VV+R8WwBj3yT+LvgCsw1p63Fy+7g0VaYc/xE9Bib4gWSwZlBoXtxRqsD8SAXN8MWGVh++UABSSNim6KApBcdyn4fAx4hW9E+vIKTgtBFQQK6G6NyF12gHHHglZw0VVAb6z/QxJ23cEiYtu9DBjRYexEPmqggr7QcpN3rY073gMnB9A7GQhNd7AyeJop4BeACorNDPBJJMUhJAAokdA+Noa2Rv9pgD+Iwk7PXJHYYw6W4Iu6bori0F2IRczYc5cdT+1Zv4cRXQOebaTxfANE3qUHaMH/aNex7RbTp8v3oztWIk5cYGgaZV0cAPDF+c1F1qW2SKtvCQLGfbjNxbk7ViYZi1+/Xroq6HGzi1P3wcAgY3EzF1124b/wPvgbPGjELuRfbLoMgZ/MdVmgW2r3w3xHvO1IxW3ane5GWkPM9C66kUJuAx21pPs1jGGBH+i6/7l9F2mXsZtl2KFpd0POx9Ku5nq/lXZSGPPuglVxPhaHRksFHEUDpRJ15KgGlIpz1gOphjjpVQJKxRlVs1JpgJXqG/4XUpluAzkfM3y9ug6TynBu8TqMWxjOA+fDeGDUZcVkbxZnb4dxdufN5P0VCIvwh7CO3TFeGiUV3Au/8T4IrYzRfgvu5Bbgy5aQ6y8Rg31M0B9o1DIMMpE87k8O0hLQ5Hn59wCWK5ffWWmyn70AYTl+U3YxNybiDI+JAIcHNsglDeNXArPjpfuo/tTAL5yGxxpBXNg1KC68GB4XhjF835AkkhtfmnWNhdBZRJhvYUTG2TvAUirGvEEKyqB0ZCUAq5VYbgzIZXdLQ1QQHp0SI3Mw7duUcGMOc87EvvYbyLgwZD8MQt1kL/Y4oO2u+loCPIhgfpXgySkq71ZLPUmIsXm3TmtighawFeLHep5BPjsyIEd1A/PZhRNB4NkDE+wFPHswEz85AM+J6PdeZCE8JyL+DnhUU3/yNzwQNuTAJvBQiSWDqsATPH8VDvHoUWflNA8WnFXDlCeDBwn1HuuBKyh34AoAsKYZEuQncjGHB4abYe+hCiZUGjkudV54cBkt6mz3RVt0xIHVG4aTHUi75JV4EgY8qTmmaAL8QG6piTdtYKG1ETUT6Po6SBPJbWF9i1F1hqhqGXp08ErVImnGvA6exb+JpcEO5jOgfwKRECbgmjUj28kjjyld42fkyplR9RAV1Px8AKrOqRuOZTlXqnbg1OR9R1Xv8kcfG6CLF42qryOOhC6JN7S4yjfUVKEpd8rIT06XBJXinLzSpfZmk4n1VFFCYSm+BodRb5FMtN3fMNqWlNTCUAIyjdeTVUVVmvqf6MLEaIpyo5lL1zmVV57YeaMrtJKlcqLLqtwvs9BaGjKKw6quTZwvWRVpZWp+zbh3xsVK160E0UK5nlzjSxVye29DJYG/Mmt+y/6ONHN6b2WuiOqmc1ZzCupcLZjtbJVMrs2W2ZjAiWdutKyWSKUgIe0UsC7DwErq/KV75g09eC/Z+fm0Z1+90ajR9phRgfu9uVJqBcgkZLairiB3PGM26AattNlVt8zLRJQWuc8YZeA/PiQ6SGk0PvZcF4WUVk6K256b/7xyPVrt02vRc7eWajIdMW3uuxr65XqUvzo6lX03u/nqM+oPrOtSPuXCu8FEPvvt995WF6i6i+U7rv1X23nhIR+wqET5oey9KtENdpPELJ77b7ZzEb6sBSOt8bq9c2kj8abKO8/LO7eFElxtT9yWfvPcVPfua0TldJ6fdNE3uT4F893ir/PmgS5GT+fXgty/NBS3U3qKnStj9/MdLvLDZn7Ko4gxKZwozU/zpvQfXDRP0DRT6gvnvrXlSzCC/CAo2vnfp+Sc53Uc13l+Tk5/z9siCPDj63hxOH2kwuG7CPomG8bY/w+3P7iuF76pseyr3fhwvty7uXYk8FbXSaJ0F9y5vHYMED5qPMq2WVQK7iMn1UJz3l7eyL5nneBG/zG2KNk+uKhaCC4uns1IM0+WTEfDAJAgfDbnHO9qXz1YUTlwW7kbY45ufMCpD2Xf9cCcMuFhhF8xstu2r3+T8kAkz1+uDai/zUR9LQJPeIoRryp2hhzZYCOqd+3s/h333UFCvtvsavM0DyLaJItyhh+PGfFuO5b9y6Mdi0GoV8cWVwH2EIFc1iUEeX5Qoeb4UptjxrmRrk67Q3sJZ0EVfDL22y9heGkPu9PKoNO6AxClcZZlm9UHNlkWx+nPUTkLCwsLCwsLCwsLCwsLCwsLCwsLCwsLCwsLCwshOD8J3FIdFj8HLXemRogQIbcfgh79PP4P1a/hr7WyHJ1pNR34b3+3UumGlUp3X/lhpdLdV35YqXT3lR9WKt195cf/XarQQz8G/Oz2df5zcDCgbLeFhYWFUfgHaumyi841lsMAAAAASUVORK5CYII=;spacing=-5;" parent="1" vertex="1">
          <mxGeometry x="836.76" y="304" width="34" height="37.85" as="geometry" />
        </mxCell>
        <mxCell id="ISa7n2zJE7d0IjWUZAvD-149" value="ssh copy" style="aspect=fixed;html=1;points=[];align=center;image;fontSize=12;image=img/lib/azure2/general/SSD.svg;labelBackgroundColor=none;spacing=-5;" parent="1" vertex="1">
          <mxGeometry x="911.51" y="307.49" width="31" height="28.15" as="geometry" />
        </mxCell>
        <mxCell id="ISa7n2zJE7d0IjWUZAvD-151" value="&lt;font style=&quot;font-size: 11px&quot;&gt;Incremental/Full&lt;/font&gt;" style="text;html=1;strokeColor=none;fillColor=none;align=center;verticalAlign=middle;whiteSpace=wrap;rounded=0;labelBackgroundColor=none;fontSize=8;" parent="1" vertex="1">
          <mxGeometry x="765.51" y="249" width="40" height="20" as="geometry" />
        </mxCell>
        <mxCell id="ISa7n2zJE7d0IjWUZAvD-154" value="Artifactory" style="shape=image;verticalLabelPosition=bottom;labelBackgroundColor=none;verticalAlign=top;aspect=fixed;imageAspect=0;image=data:image/png,iVBORw0KGgoAAAANSUhEUgAAANUAAADtCAMAAAAft8BxAAAAilBMVEX///9hpjpcpDL8/vuXw4KLvHJfpTdZoi1epTZbozBYoitWoSdsrUXO48NmqT75/Pfu9erD3Lbz+PCz06Lq8+bZ6c/l8N/n8uFvrkxoqkJSnyB0sFOozJWKvHDd69aSwHp/tmKhyI261quCt2a92K/Q48Z4slmuz52+17OmyZaexomQv3maxYKtzZ7XKOzgAAAKxElEQVR4nO1dbXerKBC+wURQE9+iqZrEmNgkve3u//97m7Z3t3XABBSEnuU5/dCeU4WRYXiYGYZfvywsLCws1MGJ83yV/MEqr+NId4/GwMny1W5f4MC/Af/B++8BLva7Vf7k6O6hIJy0Xi8uBfI95M4YcInno/Lydq3jHyPaTaIywIgwBfouGsJBuV/Xuvv7GPHq1btJ9ECg76LhAB1Wse5+30F6fgs9xCvQF5BX7s+p7t6zsTluA/5BAkOG/O1xo1sCGsm+8sgwkf4I5lX7lW4pOohPS3+USJ9AGJ2MmWHpusADNQ/CxcXOiAnmrAtfkkyfcoUn/WtYgmTK9CGXT571ypQ3snSvIxe+5PpkSl9l2AgWiHfQNb2SEIsMwDv4/90jiQ6Z4j3PhLqRPYT9oArCD/hV4GPvIUX8eNJvs8mFWhXeo34RD8+Ky+J1neRZFn8gy+rV+rhoihA/XrNROfWq/PpgoG6kNdjuznXPohrXq92lCvB9ydzgdUojv9n69zqDfLRfc1ix+rT37lNHXE6nhavyDjEn/vKQpJzf2ElXb8W9ESOzqbRw3a99rkcuieDnzZIL8vrfiHZqpOjCmVf9w0R2g7YT9W7Wv/IFB/WTK236FikSNKfB7iPndOmVC7eqiXx66ZlSrrdNRrnE0mTbx77QRa3NyAq2UC5GyWg9cZ7DHtOKCpWjtSnZWuK5cqa0c/LYazsq1G3/M7ZQrn+QpiHZgW0O0VaVWFnBFMoLpS4pq5A5XGipRgnTLWtOudVcst88mges4SJLFSYjYgqF5A7UJ9jcBTXyR8vZs1rCjRJ1jy8sLfRa6Q0dA0Y71VzRsu8cWQTGn0tuZs0QiiCFXpOENbmCtdQ2zozdK1G7qTuzlhEks8mUJdRMcYimZvAYInG/5TT0+9WSmA+w6BkqpL1+R9N01YTzA2lDm0Jf1nbrTCs4KZ4kvfwuUoaS4LOUVzszSioSThS6YJA0Ukjxf75SaqCGvDAR05bQO0h475na87jhhAHqvKTMbzBeB6ML9bGqSZ2PK2r9J8VoPn2khgrLXeAf4pkiT/5x5CtraqSwDLUWwl/QELpjCcACvpFcJg/BRFv4adE49p7To68hf6CmQkR4zNSOGviVfC3BzQRaDLId8bYVNBUjh34wqIkQjIjZQavuhpMQJRoxdO2TZrB1TyCrDbQF1xOoNcMHC5Iw0mpLw6TcJmQ7sC9naAArjal8NdSbgWbQ2YOh8mQ7Q4RwBCSbDNs/1sCcuqUmU/GJlJpZgzQH7kDwJEG/flxBf9DrgJfERdeYulPtFPuQgj2JSwZwN2hL8VV+R8WwBj3yT+LvgCsw1p63Fy+7g0VaYc/xE9Bib4gWSwZlBoXtxRqsD8SAXN8MWGVh++UABSSNim6KApBcdyn4fAx4hW9E+vIKTgtBFQQK6G6NyF12gHHHglZw0VVAb6z/QxJ23cEiYtu9DBjRYexEPmqggr7QcpN3rY073gMnB9A7GQhNd7AyeJop4BeACorNDPBJJMUhJAAokdA+Noa2Rv9pgD+Iwk7PXJHYYw6W4Iu6bori0F2IRczYc5cdT+1Zv4cRXQOebaTxfANE3qUHaMH/aNex7RbTp8v3oztWIk5cYGgaZV0cAPDF+c1F1qW2SKtvCQLGfbjNxbk7ViYZi1+/Xroq6HGzi1P3wcAgY3EzF1124b/wPvgbPGjELuRfbLoMgZ/MdVmgW2r3w3xHvO1IxW3ane5GWkPM9C66kUJuAx21pPs1jGGBH+i6/7l9F2mXsZtl2KFpd0POx9Ku5nq/lXZSGPPuglVxPhaHRksFHEUDpRJ15KgGlIpz1gOphjjpVQJKxRlVs1JpgJXqG/4XUpluAzkfM3y9ug6TynBu8TqMWxjOA+fDeGDUZcVkbxZnb4dxdufN5P0VCIvwh7CO3TFeGiUV3Au/8T4IrYzRfgvu5Bbgy5aQ6y8Rg31M0B9o1DIMMpE87k8O0hLQ5Hn59wCWK5ffWWmyn70AYTl+U3YxNybiDI+JAIcHNsglDeNXArPjpfuo/tTAL5yGxxpBXNg1KC68GB4XhjF835AkkhtfmnWNhdBZRJhvYUTG2TvAUirGvEEKyqB0ZCUAq5VYbgzIZXdLQ1QQHp0SI3Mw7duUcGMOc87EvvYbyLgwZD8MQt1kL/Y4oO2u+loCPIhgfpXgySkq71ZLPUmIsXm3TmtighawFeLHep5BPjsyIEd1A/PZhRNB4NkDE+wFPHswEz85AM+J6PdeZCE8JyL+DnhUU3/yNzwQNuTAJvBQiSWDqsATPH8VDvHoUWflNA8WnFXDlCeDBwn1HuuBKyh34AoAsKYZEuQncjGHB4abYe+hCiZUGjkudV54cBkt6mz3RVt0xIHVG4aTHUi75JV4EgY8qTmmaAL8QG6piTdtYKG1ETUT6Po6SBPJbWF9i1F1hqhqGXp08ErVImnGvA6exb+JpcEO5jOgfwKRECbgmjUj28kjjyld42fkyplR9RAV1Px8AKrOqRuOZTlXqnbg1OR9R1Xv8kcfG6CLF42qryOOhC6JN7S4yjfUVKEpd8rIT06XBJXinLzSpfZmk4n1VFFCYSm+BodRb5FMtN3fMNqWlNTCUAIyjdeTVUVVmvqf6MLEaIpyo5lL1zmVV57YeaMrtJKlcqLLqtwvs9BaGjKKw6quTZwvWRVpZWp+zbh3xsVK160E0UK5nlzjSxVye29DJYG/Mmt+y/6ONHN6b2WuiOqmc1ZzCupcLZjtbJVMrs2W2ZjAiWdutKyWSKUgIe0UsC7DwErq/KV75g09eC/Z+fm0Z1+90ajR9phRgfu9uVJqBcgkZLairiB3PGM26AattNlVt8zLRJQWuc8YZeA/PiQ6SGk0PvZcF4WUVk6K256b/7xyPVrt02vRc7eWajIdMW3uuxr65XqUvzo6lX03u/nqM+oPrOtSPuXCu8FEPvvt995WF6i6i+U7rv1X23nhIR+wqET5oey9KtENdpPELJ77b7ZzEb6sBSOt8bq9c2kj8abKO8/LO7eFElxtT9yWfvPcVPfua0TldJ6fdNE3uT4F893ir/PmgS5GT+fXgty/NBS3U3qKnStj9/MdLvLDZn7Ko4gxKZwozU/zpvQfXDRP0DRT6gvnvrXlSzCC/CAo2vnfp+Sc53Uc13l+Tk5/z9siCPDj63hxOH2kwuG7CPomG8bY/w+3P7iuF76pseyr3fhwvty7uXYk8FbXSaJ0F9y5vHYMED5qPMq2WVQK7iMn1UJz3l7eyL5nneBG/zG2KNk+uKhaCC4uns1IM0+WTEfDAJAgfDbnHO9qXz1YUTlwW7kbY45ufMCpD2Xf9cCcMuFhhF8xstu2r3+T8kAkz1+uDai/zUR9LQJPeIoRryp2hhzZYCOqd+3s/h333UFCvtvsavM0DyLaJItyhh+PGfFuO5b9y6Mdi0GoV8cWVwH2EIFc1iUEeX5Qoeb4UptjxrmRrk67Q3sJZ0EVfDL22y9heGkPu9PKoNO6AxClcZZlm9UHNlkWx+nPUTkLCwsLCwsLCwsLCwsLCwsLCwsLCwsLCwsLCwshOD8J3FIdFj8HLXemRogQIbcfgh79PP4P1a/hr7WyHJ1pNR34b3+3UumGlUp3X/lhpdLdV35YqXT3lR9WKt195cf/XarQQz8G/Oz2df5zcDCgbLeFhYWFUfgHaumyi841lsMAAAAASUVORK5CYII=;spacing=-5;" parent="1" vertex="1">
          <mxGeometry x="816.75" y="504" width="34" height="37.85" as="geometry" />
        </mxCell>
        <mxCell id="ISa7n2zJE7d0IjWUZAvD-155" value="E-Mail" style="outlineConnect=0;dashed=0;verticalLabelPosition=bottom;verticalAlign=top;align=center;html=1;shape=mxgraph.aws3.email;fillColor=#3399FF;gradientColor=none;labelBackgroundColor=none;aspect=fixed;spacing=-4;" parent="1" vertex="1">
          <mxGeometry x="908.51" y="348.41" width="34" height="25.19" as="geometry" />
        </mxCell>
        <mxCell id="ISa7n2zJE7d0IjWUZAvD-156" value="ssh copy" style="aspect=fixed;html=1;points=[];align=center;image;fontSize=12;image=img/lib/azure2/general/SSD.svg;labelBackgroundColor=none;spacing=-5;" parent="1" vertex="1">
          <mxGeometry x="910.0699999999999" y="552.89" width="31" height="28.15" as="geometry" />
        </mxCell>
        <mxCell id="ISa7n2zJE7d0IjWUZAvD-157" value="E-Mail" style="outlineConnect=0;dashed=0;verticalLabelPosition=bottom;verticalAlign=top;align=center;html=1;shape=mxgraph.aws3.email;fillColor=#3399FF;gradientColor=none;labelBackgroundColor=none;aspect=fixed;spacing=-4;" parent="1" vertex="1">
          <mxGeometry x="907.0699999999999" y="593.8100000000001" width="34" height="25.19" as="geometry" />
        </mxCell>
        <mxCell id="ISa7n2zJE7d0IjWUZAvD-176" value="Enterprise Server&#xa;(DEV)" style="group;spacing=29;" parent="1" vertex="1" connectable="0">
          <mxGeometry x="1021.38" y="269" width="82.62" height="34.04" as="geometry" />
        </mxCell>
        <mxCell id="ISa7n2zJE7d0IjWUZAvD-174" value="" style="shape=image;verticalLabelPosition=bottom;labelBackgroundColor=#ffffff;verticalAlign=top;aspect=fixed;imageAspect=0;image=data:image/png,iVBORw0KGgoAAAANSUhEUgAAAP8AAABKCAYAAAB0D4IMAAAgAElEQVR4Ae1dCZQU1bkG2ddBwKDgEhOIJkaSvBhfYtRo4vLeyfI0xphnYvJUGGZ6embYl4FhEwGRTUlAkKjgviDgioiARo1ABFRc2FSEoEYjotatqu7q/t75bvWdqe6u6q7uqZEZqDrnTtVUV93673//727/clu0GCwQppAHoQwcgTIQVvoRWOlhgx92eJSBEPwh+EMZOEJlIKz4I7Tiw94/7P1D8IfgD2XgCJWBwCq+WqBFc0wN6QGd5W1IPm7vqrzdfvNzT72vzn7eyfWMyieoc65v+f0tKFqYj99v+n0uKNr8fq+Y5xpS6JaDBVpVC7SpFmjXDFPbaoGWRVT8UYPtMvN9lptn8qBVMRXgeIe0MB+VL/NW+ZLXfuuK+bQdnF4nrasFSLffPNRzzIvvOmkKoq4lPUXwnh2MkjnyJsikaCpGJiS/yOMUvxqDLlUnuc6UE9azr7rOlVG+31gJ3YYJ9J+o40fX6fjhpOaTSO9/Xq+jQ6ENQJVd5m9P1PGDiTrOnKjjjIk6vjNRR/ehAi0qCgeY5HOVQJsKDaeMEzI/mfckHf0n6OgxQqBVlc98qwTaVgp8b7KOMyfZNP5wso5Ta3V0pFD4BRz5UinQtkLgpFEC30+Vl3QFkb5RI9CJYImmRow+G6ajKgV6jRT41jgdp9boOGVMQKlGR98xOnoOFWhDmip98lvRzbJEBHoMFegXFF3Mp0aX/O/C/ClbXnJQlaqvwQJdRwh0HS5wFJ9l8qrzfAD3/J2tbqXA92fpWLvdwhv7E9j2zwS27WseifS+sjeBXuNspnmWU1Uuz2RiROBH03U8vs3ClvcS2JpKG99J4NqlJjpHCwCYyrtaoH2lQP9Jdr6ki/m+ujeB9TssXLzAQFu/IIkKdK4UeHF3Aq/us/N5bV8Cd220cPIEHa1zCYOiZ7BAyyqBDlGB/11sYNkWC5v31JdVlbno894E1rxlYfwTMXxlhEBrn0Bjr9Y+KlD1kIl12y08/Waw6ak3LNzxUhyXLDTQqaqAeuQIMCpw/hwD8/8Wx6rXg6NrzZsWVr5iYcaaOE6doKOdS/2xQSfYfzjLwIULDJw1V8e5Nxu4aL6Bk/gO69NRt3WyXnfh9mOue1JgNZz3ZwNvf5xEczwOiCR61wq0rNC8W0cnDwj+MoGLZxvY8a8EYlZ6qZ/bZeH063S0jeRooZ35pa5bVgj0GiGw6IU4NDM9z/0Hk/jdEhMdSCMr3uX9tHsVAkdHBT7R0uvk2Z0JnHadjjYuwpP2fir/VhUCXxuvY6dLOdMpLO6/ZBKSxitvM9DBJ00cjneuELhpfby4j/p8i41A33HCd0PZImqDb9UbVlb9+fxk3sc+N4Apq2IoGZYuWwR+5yECv1pk4oo7DJw5x8B/zNJx6jQdP56u45q7TfSdossGNms641bxvu4R/FEN59xsYNdH6YKWtyRN5IEDWhLHji0c/BfOMrD9w2zws4KWbLDQUw7RtPxATfWw7co0lN5p4v2DSViJdObs+zSJy2430SHiF/wajq7IBv+6HRa+NVlHm0p/DR0bsB/fqEuAEqiNcZBf05+OodvwdIH2kj8Kb8dygTnrGhf82/YncNbNOtpF/fGqZVSgd62Ojz5PItFIvBIx4NFtFk6u1cHGRvIoNfo+Y5aOXy4wcOwogTXbLTzwjzgWPx/DpQsMOf0ru9/E0cPttZI03qb9k69Xcf6uwH9T8wZ/r0LBP0jgwpkG3nIBP4HLHrf8PhPdyKt8Q3XOzyMCZ0zVwZ45ngAyZaco8Ec8wD/JJ/i5wBcROHeWjk9FOkUUbpaz0MSyZQLjCxOYuz6O7iP9zbHrwL82Hfyk0CqCLtLEcmQ2bqzb8+cb/sFfIdCnVgc7E+fBfAvlE59345UeB57ebuEbE1Lg5yiU040hAr+9w5Qg7zZC4K5NcZwzRcelfzFwy7oY+gwX+PkCAxfNM9A+c+4fgr/Anj8H+FnxpgVs2ZfABXN0tC7X5NzZlcdcteYQvUpgycY4PtXTBUcJ0SEDf7nAOTOzwc/G7c0PEtj+YVKmHR8mkS/x2df3J+TIxllKgn9OAOAnYPZ+Uk9XPnrU729+kAR7eSOe3gDUgd/ndJDTNvb8meDnyIbTw7c+KIxXXI/adyCZ1hkQ/KvfstBvvG4vKnNBtkqgZLSOP95loucIgS7DBZ5+y8KC9XHMfCqGXy80cEw1R3AGrrjVQGd2SM4GwFUwnT2813XY82fN+QlYtvZsAO7YEMfxajHLyXDFz0qBksECA+825WiBAux2NDXws2c5ebzAV2oEOGritClf6lUj5LBz/MqY5I1qABT4ezSw5//CAAbcZaJ3jU1XPnrU78eMFjhhpMA/9lhpdRkU+NduT+B7U3Ww/IXwqvtwgQFLTXz4WVKOaCgXXuDvOkrHVXea6D1KoPMwgQc2xzFnfQz3/COOrhUaOkU0nDXTwOUK/Er+eA7BH2zPrwDM+fvwZSa6VAhQPeXkM4evbSICF8w18Nr+hASEei/z3NTAv+BvcXSLamgV0eRCKRdL86ZyDS2u0TDmfjOtN+Pi5s3PxdFjVMOG/Z/pSVx2i4FOHGkVQlephpJrNbz0tpVWB0WBf1x2z//4axb6jhRoUy7808W1nWs0XDnfABd7VafgBn724rS/uGSxITVQJSMEFr4Qw5kzdPz1+Ti+N0XHccMFLv+rgTNm6NImxSmHIfgDmvOzx1c9GgHMeRuHoufeqKODUz9LI5BKgeOHCdz5Uhxxq/49vu/Mg/k0NfAvfCGOo2kv4EfzoHoZjnzKBEY+aIIaFq4jHBRJfPBZEjc9F0N3gt9Hfl5zfoL/t7ca6MhG1o/mgPQwRQRKSgU2vhNAz+8C/ie3WehXI3xrWCQwSVepwB8WmnifPX9qROgFfmpvTr1OlwA/oVbH8JUmTqnVcf5sHeX3mjhnjoE/3WVKjQqnCSH4U90r52hBLPgR+Kwczh3VQRDrMWD9Tgvf4AptWUrgokL2UFXLTHz8RbIO7FwM4/PMw7kw1tTAT3WkBD+FVIHbzzkqcNI4HT+9ycBP5hg4b66BC+YZ6EsNBN/3kZ8X+A/qSfzmFgMd2WtSzcqFVj9pkEDJAA0b3mmcnr/RwU9tEUeRVQI/mm2g/H4TZ91k4DvTdPSfquPniwxce7cptQA0yMuqr6wbrAi2EGxFczGwQqB9uYZzbjKwuxmr+oIAP3t5DhWpipHztFRrzVb731oSUx6PoWeVvcDXqULgojk63v44AdPRWLAnvHtTHH9/x16AUo3IYQP+lNkrjVRoENOu0k60XKQAu8phRqPiBX6uHVx7p4ETRwscO0bguBp/iZaCJw8TeHmPJUdqiudBDfu/DPBLvtEga7DAqZN0uap/3jwDP51nSKMjrqfQ1NifkQ/VT+UaOg/U0HlAjnSNhu5Xazg/pfP+3EjiUCcu/LDnVEMlVZle56B6fn5zw54E/meRgdWvW6BO1jl8p03AxfMMdLpGw7fHCqx+w5K9vKKLPf2mdxK46DodD22xQGFWx2EDfgVkAj0zqd/ynL3Az0b0b7ss3LclLtP9W+Pwk+7ZHJcLY9RgOEdbzQ785Bt5muqw2aDKdSbndNONt5ktLtUWv1xkSEOKG56OY3qONG11HJNXxVD7iIlxD5sY+7CJmuWHKD1sYvRDJpZujOOTDN20AlLmOSjwK/XeeZN1/PdMHfsP1M/V+E0O55/flcA3RwpMfCQGzlGVsPHMYWvNwzEce6WGR1+zGw9F62EHfjch9HnPC/xSwxK3+cyGt5DEulF1oXiuwN++EFXfoZjz++RbJsbr/q+7SGV0VLmGcY/HpEBS95wrffRFEs/sSODUcQLdIhpKqL6i7vFQpKiGr5Rp+PVtplwkUxWZ6xwk+F/5Z0IaV3AOOfGJmLT2Ut+mcHFl++EtltT5UljVQeF75BULp40RKPmDBq4Q8546QvDXTwm8wK94FdT5jQ8SOGdeYUY+vQ8H8LcYpGHikw7py8FRLnI9t9vC17mgVZ5aK+B6waFIUYEOBP/tJvZ+6kBXDvqDBP+r+xP48VQdbQYI9B0tsGyrvYLsBDobASdlXOn/4GASZ9ygo32pQNf/0/DEthD8mR2S+j8X+Mln8jczOfnvFAXWQ+aztBKkv8ZzuxI4fQqtIX0uRNLI57AAf2kR4HdYHamK+tLPXPQo16Qd/CED/3QdLQcJtCnTcNl8mj1n2/87BZDAH7kshi7lAkeVCXS9OgR/LrnxAj8BzvUeqhAzkx6vn2Ip3hP4BDmf5XxfvqMn8e8vaCWYxMgVMXQpwDtTWvgd0eDPZ8fe0PlJvvebCPilSq9CoPsQgdpHY1Kw2MM4DworFwm5uv/VkQKtybuIQNdrDmPwc0EqU4vkVy+fqnsv8HOa9Od1MVQsMVHOtDSVlpiY+lgM732SXgGsD05ZZz4RQ9lio+6d0qUmLrrJwDEjsg2zcjZKR3zPH4JfulCq6U+rCg29hgg8ti3bzZO9DheVLpxr1Ov/Kw5z8FO1Vy3QZYhAFwacGGy7otLXXOqg2TjkaeC9wE816aXzDXQo1dBioIYWg2xDmValGnpWCsxbH5eNrZoCEPyfGUlMeyKGowdoaHWtJg1rZMNNOwGfw31Fb9jzh+CvB3/K6aJdROAH03Vs3VtvuM8+iKv71Q+Y6EohY6LQH87gJ7AjApcsMHD/Zgv3v2xJleaKVy2U3mfKyDNyVFAk+KWF36IMC79UHbQqF/jBdTqe3ZFuP8EGYO+BJH6/1JRrRTICE+n00Qgp0KtzCP4Q/GngpxDRBJaaj+oHTbzz7yT+9XkS//w0ibs2xtFjWCqCjRK2ZgL+W2jbX6nZIaVY537TAA0j7zelmpN2DFTH0QCKtv0NdemtM+/ltELxkw0JryvtyEY/TwWdcRpWcbrwyr6ENMGuMw3O0wApwDvPXuDn4m3fUQKtqW/3yyc+e62G3y/wYdtfBK1OurNt+4td8AvBnw5+JXwRgeNGC9nDlN5vSjvrb9KvPjMyTzMBPx17epVp6DJQoLPvpKHTVRrG3m1Kq0Y1A2cjQH/+hnr1SfAvNtAxE/wKHDSpjmgYujxlUq0ISNlgEKSnjtftBk29U8DZC/xU235rmEAJDeYK4dUfNVw1LwR/3nlgXUvWVBb8qPLM6H0YN699hR2Fpn3Ejn3I+Wsd7RS0ZgL+rfsSMvrOtNUxME33kaY9FcOkJ2JgeKxE/QxIWjIG4c+fF/yMncBoO0MFbn0+Lv0wnPP/L4wkrmeIrMrUQl9m3eRpCCT4Xfz5d3+UwNx1Np9882p1DJOfiOGBzbT0TNYFGnF17MlDV5p8uT2b9UDY86eD0sk0CoVLMA9a+Ek9//SUvUOm8PB/JmX/kPk7v9HEwM/1CrdgHtRScM1CGn+5qNYyVW3qf3rzcajvPNjzz3k2oGF/rp4/5QDTulzg7Bt1vLA7ff7PgQBjFf7pNroFFxDQNSUbXuCnXNDkvRheaRmWhxL82y30YyQfTg3cZMgpq36uQ/AX58/vjOGXF/x+KqKJgd8rjJcTvA29luBfHwtmzp8H/FLOKwW6VAoZ2IIelXTIUgfrkHXaf7KOdgWCi+A/vlaXaxiOGYXKOpAz1ydkJB8VxsuPTOV7JgR/geAvE7iIzkyOqLZU3TEox9lePX++SuDvKfAz7LPTvJcLhJczgGfmGoFXngwN5hLAkyHAT5MBPP31Glyk+u40XS5SqiFyIFLsyIS94ugVJroOSY2KvMqUus+pUqeIwNyMAJ4c9l/hB/yMQxAVKIlocrrCBVh1sIzSBHtrHF8fZ2sn/PauDOB5zBiBHR/acRhVnkGeSRv9Vo4bo9driPLwKwvbmc9nPRAO+3MP+8sFfjZLl3H6uFrNIR17kQ3vJmQ0FelPXsyQjPH2B2hY8YolAcd8ObxmZOTLbjNlvHpfwsgw0pVCGrbI4WYqH4aVPmWy/7j99Ao7eqiQcehpJCODcKjhfgBnAo8RhRnmiu69fspGt1S6RM9YU+97Qh7tZwO52JAbsOTNh5ujRAW+MVbgvpfj6RZ+WhK7P05i5MMxyE0yMsHi9X+lkIFEhq8wZTxDFbBE8b+hZxokbd6bwC8Ys4CyVYx8udEegr+Anp8MpOBM0jHqkRjo9Tjj6bg8D1tu4qu1KZWOG6Pz3eOiYETDwHvMunxvXBNH7eMxnD7Df7x9qra46s0Y7zc+Y9M265k4Kh6MoVeNbhvU5KOFv9P/Pipw4iiB391hysW9fF6euTxA1W/M44anY6h8yMT3r9fRliMaZeuQhy6Cn7sRXbrYwOy1dtm4mQXr4PRpugxplSXPLnlyBEH9/9kzDExdbedD+kgbRxXVD8VwTI1LqGuXvOT3mF+lkLv9/GqhIXkfBK9IE8s3cmUM58zW0TGqyV2U/JTR1zNZD4U9v3fPr0BRafsRdBok0LlUgGf6FcidZ4ptlVN2AXQj7TRIk/ky7w5lHtqBHILIXpvx7Tun6GM+7cttAXUN6uCRF5+VmoqIIy/fKisPVWCpzTPSRyBnaT08aFFyylBU7SIaOpfZ+bBsHctsXXohefFZ7oLUSeXDcpG2QcXzipaKXC9Iy7Mh/KrjlYZ2tK0oVra8eKqYWncOwZ8b/GQkK0HZqSsrPS8dsxfjve6rfGk3ofIutNKd9Kl8iqUvMy+/xiq5nmO5iqWHfAuCR6oeSYuT1iBpc+Zb7HWxMuAlX877daBXN0Pw5we/4lV4DnnVnGUgBH+Bc/7mXNkh7WFj5ZSBEPwh+LNkwCkg4fXh22BkVXw47PdV2VwMa+yUVTcuQGwMGvx81/nMoabB6/tOGgu5dsvP1/uptRm39xt6z9f3XeQj53tZP4bgzw1+rspX2vvEczOODhGq6IJNzLc9V8K52OO22McFrwohd83ht4OkgQ5HLemfwG/nEybSSF+FiBYYD2RZUmWTZqwsaw466DlJOwFVF3yfHnqMYOvKuxx58XnynLvzdkzVLfNlfp51ofJjPaXopml0UDLB8pC/5LNcmHSTB0VDoecsxobgzylsrIB+E3WMeTQmdbA3rLH1w7b+OoDrNXGpnx+2PCYbALmy7ahUqqgYW+60iTqqHjKlk00gNLAca+IY/WgM583SZdCNnA0AXWUH2/b/0uYh9X6D+bDGjhhdvczEt6/TpUGOpwqvSuDokQLlD5iyLqgT5/cnr4qj/3WF28BTldZjuJAxBmbRjmBNHDPXxjHt6Tg65dpGPGUTcfxogT8tNTGVNgMByQXLRFuP/1lgb7QpGzWHPGTht5Dfsl4Owe8Nfra65QL/NdeQu6/SrJdBIYJOzJc74ZYo9ZCjQqlLPm6YwKLn7RDltE8P6vvc74Amty++ncAFsw07KKtXTxPh7q861u9MyKg4fDcoOlgmWsn99cU4+ozK0YtXCpw0XsfanXa4c36fvOMOt1fMN8BgtIX0/tzcol+NLr0Pae7L/HhmnL8eNTkMuKSFn4bax2LY84ntMxAUL5gPTXu52+9liwy57VYhZcrCt0OWQn/+QvfqU7b9H+YOztkQu24K/2v7LZRwqEcnE1VhNCKpFjh3qo49H9uBKeut0xvyxfp3KWz03Bv/aAwM4173bUVD6syNOocsj8kYhX43San/Su4rlol0UOAvWJAjhHZU4PhxAs/srPeHIO/2Hkjit3820IJhvbwar4zy8Dlue9VvtI4nX7fSCCT4OcJoQWvEzPe49hMV6Flj2/bTQagx6oTbfS/dFJc7EuUckbnQ50azvJf1Q9jzu1aw5BMFKeXS6/TqS5OUAP6hAHM/+25qnqcqlNuiVwn8bLYu7dkD+JRnFjesiaEt55ou4OHiFb3+pqyOp+2665lZkT9wI88rlpjowD343Ob+9KZT4E9tfcaGqFjw05qx7ygd3GbLeaSB340fKa8+Phc08BUddPZa9aaFvoyUzRGhkomGnLMyCcHvzVgH+BmAk0NMHqxwApYV9LmelGGkGUq62ERnlVf3JdA1c9ifAv8Fc9LBz6Ep9wDQDA7bC/suh5QGtxfLkNoZz8TQjot/bsI+mCa2AtevjqdtjcY8OGpgnoWUnTSTdrljsYOODz9P4neMsecGftLVSOBnZB/nkQ/8R1UI9HEJ5sHyiAJ5Qb5RhshHjn7UkRbMg3LhUi9ZWM7XMGS9EIK/YPAT+HS9nb8uhrHLTExYGcOER4pPkx6LoeI+U25omdbjeYCfgrJlbwITVpioXW76/zbpXG5i5Za4bACUoPF8Qz7wlwtc/1Q6+EnHU9vimPRIDOML4EHtChPjl5uyDMxDHRL8Xj1/EwK/VzCPN99PYMaqmC0PPvlBvtUsM3Hvhjg+0+sbgDTwFxhvIAvjqlHI+iEEf8Hg5whg2/sJnD9VR0mZQLcqgW7VDUiD7RDXWdsqe4CfUV8YFLR3hUA3Jr/frhLoExEYdq8pe2oFOp4JfnrcefX8bV3Azx5/wooYjmf5Kwugg3HvI0LuY+CM9kPw/28z6Pm9wM/YDP3HCPQgL/zKBIO+DtIw4FYTLD93EeJB8K/dYeGUialhf9jzO+Y+hzqG3z/t7bpalKYcTzhHLTSxQp1JtdDq7AF+RsS5a6OFLlwjYFI6bmdemdcp2rqWCwy+x5RDTVvM7L/FgJ/D97HL7Vh4clHKLx0VAp0jQu6YyxgJaqNNzt2vVOAn/YoPPPP/JjLs9wL/49ssfH10KkpzIbIwSMNvbzGw61+JungDjH+w8lULfRnJx48NhpNXXtdpDOVDYc+fLmROxlHgvGL4EfzTdHvDCD9CnwlG53e8rnOA/26Cn8PBQhaDqgW6RoIF/7gVMTnySJuueJVH3Wcsg0qBqmUm7tscx71b4nhgaxy3b4jjrLmG1PVnzXGbAfhl6O4xtlu0rwZZyURUoNcogbNn6jKO4rkzdZw3R8fpU3W0HxrQfJ+8D8FfgG2/B/g57GcYr3Om6OhE/236v7M385E6RW3B97VrTXMCP3mlwJ3vzGAY1QLdRwn0rrFTn7ECx9UIdB4u3P3Ymwn4vzWKYcP8yUKdvEQESsoFupcJdB8k0LVUkxuLtKmw94Lwzdd8fM/KKOz5vYXWA/xc8KNxR+2KGK661cDVtxm45nZ/acASE7+Yb6DbiNRwPVeFHa7gZ5nJW46YOKRVWg5e854bT5oB+Le8l0D1vSauvt2Qya9MZD73q78Ycu8HrrPQnNmVH248yncvK6MQ/N7M9QA/12TYAFCt85lIyl1pGFTST+LOsM/tTuB0mqPmU+EczuDPJ6iZvzcD8HNEKNWvPmXBS164lfzL71n4PrdyZ4PIsmfyo5j/szIpEPzP7rLwtXGpePWqpWbr9GWnKENeafjN7Sb2fepQkDpXsTKuydRjC7Xwc5nzZ2Rb0L9Ubb20J4HvEPxcrMtVsSH464W+iYGfen7aAzTGQfsJbix607o4enKESJwVA/bMd7IyKQD8FNx1O+0VzQ4DNRnHjgYZhySVaeg2QMOltxkyci174ZwpBnxwMIk+tTTPdDfbzOINBa4RwP/3d+148SH4CxDqpgR+LtCNtSMmcwTYGAcNyJ5sShZ+LOjr7ydw7X0mfrnYwCW3mbj0ECV++xeLTVQvN3HPpjhWvGzh4Rxp5RYLK7Za6Dm6gB1aGgn8m95L4LtTfHihhT1/fY/XhMDPnrhztcCfn4vLMO6NAn4aUL1loR/Ne5uCkQ/ND9kicbjz/mdJ0Bb7UKb3DiRx72YL/Wp19Bos0GuYdzp2uJBDKDpz5BxqO4dKHuAnH6ifpkPInS/Fcc9GC/dsyp/u3WTh7o1xXP9UDCdy6pRvOHe4g5/8dUvOOlDXTQn8dApiSPcJOsaujOGuDRbu3RSXnZAfOUh7ZqMtQ8/tTEh7B2V23eQs/BqjhWtInjQOeXCrhePG0PU2FQ+egHJLak2CQqQEKt+Zz7oM+5WF3wXTdPQapOG4SoHeflKVQG/6kA8WoDtp3kboMAY/LQnbMjAHVZ9RDR2imgyqQWcbOhJl1VFTAj/pqxI4qlxIWwvW/fGVGvr4kYGMZyg7vUo1DFxoyI5UeUyG4M/TMijwU1ecd+XcTaDy3fMAv9qr7+xpOlqV2f7n1Fv7StxCKhUSLEvAM+k5XMFfZcfw7z9Dx0W3GPivhQZ+eauB/15o4MSJHrsMNSXwpzbtOGaIQK9qgV5VAsdWCxzNckUFWvuVBT5XJdCqVOCqEPx50J7xcxb4M8HT0P/zgP/H3KuvzEcPXiwd+cBPbYGaD5LWfKlKIGjzXmnh5xxV5aOBv0eFDJv1l7/FsOujhLSZoGkvDacu+avhvnEm38th3nv5PAMtBqZcgf3QwGg8lQJ9RwoU6tXHEF89xggseiGOJS/FcduLdhq6LIZjRjiCkfihg7wbKPCHhWbY82fgO+e/TQL8jH/HSi4W4Lne8wA/HWro2NM9okk/ew6ffaVKWpFpGBKQbT/dUcctj6Fnpd2T+6KBtFYIdC+3bfs1s15dRseWK+8szqX3ipsNtBmgyV2B/NLRMSpwyghRsD8/N/88aYIuow85BfSpNyx8c6wuYwD6pYG7GLUp1fDHsOd3sjL/9ZEKfi66Ln/FwpnjdfQfr+M7E/2nM2t1THkkJtWiTg4X49hD/s9eHcMPJ+roP8E/DaSZdCx/JZ62Q3FRLr1JyMXnqiUmTq/R0b8AXnxvgo6Lp+t4dkcw/vzP7kzg4hsNMF+/dUJ6Sffwe0xwg07l0x/O+Z3S6XJ9pIKfKld6ff19dwIv7k7g72/7S/LZ3QnpPcbAE87Dlz9/RjAP0vHOxwm89LZNh19a+BwTy+DUk+cEP0dIqWE/Y/gRHDy4Os5r+tI/v9M/PxQvNr2bAK0unUe+YB5eXn3M5x/vJgqqF9JBurd/kIAZrw+yEoLfWSMu10cq+F1Y0eBbfiP5OMHa4I9mZCDBr1x6ORfOnBJFBU4YJ2QATwX+jCwC+VeCfxQbG3djMIK/MS38WIg68NOlN58ZeCafvF5omzgAAANWSURBVP7PYuggDROfjAXCtC87ky8F/GUCF84y4Izhp1b75YJfY8/5qwV+NtPA/gPpvVPQvL5+dQytGT7LRXCoemsTEVJOGiNgpSoLoyP9+nYDHQg6t3UUqslqBNZsrw/gqd4N8izBP8zbXVr1/By5KL18kN9nXpTtR7dZOLm2EWP4tSzTMGlV8wX/8lctHD82QPtnp/BTAMsELp5TD35CkMOzV+nSe0PKx8FNUJ35FHtNY5JqgdPG6Vi33Q5XzUgvFLggEueXNNnmSvvVd5j25h0etB4V0XD5YgO7PkrKXonvBkED82CZuI6xdruF/tfrcp8CV/Az6s1ggemrYvjo86SMqRgUDZKOBGR0YgbloLutpxFWpUDXoQIPbrHk80HygnSwgWX5ah6JoYT+/G6jII96cmu86+7VXaRebhURGP9ETK5cMnY6nV+aRRK2deFjr1s4sTZHRRXDJPUOQR0R+MlMHS+9a+H9gwm8fzApz+t3WjiTwTzyOeeovIo80ximQ1TITRwY1mnfgQT2H0zKGILsKYtN+1PvMhbgsIdN9Bltz6ldQUfaowLHjhSoejCGze8l5HcDoeNgUpbp2Z0WfnOrgY5RzduNNbWByYljBOasjcu9DlgfxfJAvUdeMO35dwJLN8Rx5nRd6us9QSc1Fhr+8wZdhiLb84ldJ0Hwg+WhCf3stXGcMMbexMSzTgqVqUzws1K/MlpH30k6Thyv44Rmkkjr1ybq6FWj+7OWK5RR6nlaoQ0RchMH6nZlqhHoPkagLZ8JqlVW33M5t2Tkm6hA1+H297uPFggkjRHoNpKNiyZ13jmFLKUX57MlI+3ykwcNpiPFU5aNZcznv87GsHVUoDN37xkVMD9G27sSyViGeepVWihWaOg8JMWLgOqE8tVtlEAnlrNCuMZUzMKwi8y4PpN1M7UXXStGDYk0s0TmRANmkBsjaXJKk2HORZmiWv693NzyKfYeRyAURi78KBqCOtPDkWXzM3XhM3yW7wT1fZUPy8YyHko6FC/yAL8OQ3yuMfih6PDDi0Jkqo5wt5f4seaU3MoQ3nNdtMtZ7yHPjgyehULgokIKhf/IEP4jvZ5D8IfgD2XgCJWBsOKP0Io/0nu9sPwuobtDpoRD3lAGjggZ+H/G3+oaLSzueQAAAABJRU5ErkJggg==;" parent="ISa7n2zJE7d0IjWUZAvD-176" vertex="1">
          <mxGeometry y="14.039999999999996" width="68.92000000000002" height="20.000000000000004" as="geometry" />
        </mxCell>
        <mxCell id="ISa7n2zJE7d0IjWUZAvD-175" value="" style="sketch=0;aspect=fixed;html=1;points=[];align=center;image;fontSize=12;image=img/lib/mscae/VM_Linux_Non_Azure.svg;labelBackgroundColor=none;" parent="ISa7n2zJE7d0IjWUZAvD-176" vertex="1">
          <mxGeometry x="58.61999999999997" width="24.000000000000007" height="22.080000000000002" as="geometry" />
        </mxCell>
        <mxCell id="ISa7n2zJE7d0IjWUZAvD-177" value="Enterprise Server&#xa;(SIT)" style="group;spacing=29;" parent="1" vertex="1" connectable="0">
          <mxGeometry x="1020" y="340.00000000000006" width="82.61999999999989" height="34.03999999999999" as="geometry" />
        </mxCell>
        <mxCell id="ISa7n2zJE7d0IjWUZAvD-178" value="" style="shape=image;verticalLabelPosition=bottom;labelBackgroundColor=#ffffff;verticalAlign=top;aspect=fixed;imageAspect=0;image=data:image/png,iVBORw0KGgoAAAANSUhEUgAAAP8AAABKCAYAAAB0D4IMAAAgAElEQVR4Ae1dCZQU1bkG2ddBwKDgEhOIJkaSvBhfYtRo4vLeyfI0xphnYvJUGGZ6embYl4FhEwGRTUlAkKjgviDgioiARo1ABFRc2FSEoEYjotatqu7q/t75bvWdqe6u6q7uqZEZqDrnTtVUV93673//727/clu0GCwQppAHoQwcgTIQVvoRWOlhgx92eJSBEPwh+EMZOEJlIKz4I7Tiw94/7P1D8IfgD2XgCJWBwCq+WqBFc0wN6QGd5W1IPm7vqrzdfvNzT72vzn7eyfWMyieoc65v+f0tKFqYj99v+n0uKNr8fq+Y5xpS6JaDBVpVC7SpFmjXDFPbaoGWRVT8UYPtMvN9lptn8qBVMRXgeIe0MB+VL/NW+ZLXfuuK+bQdnF4nrasFSLffPNRzzIvvOmkKoq4lPUXwnh2MkjnyJsikaCpGJiS/yOMUvxqDLlUnuc6UE9azr7rOlVG+31gJ3YYJ9J+o40fX6fjhpOaTSO9/Xq+jQ6ENQJVd5m9P1PGDiTrOnKjjjIk6vjNRR/ehAi0qCgeY5HOVQJsKDaeMEzI/mfckHf0n6OgxQqBVlc98qwTaVgp8b7KOMyfZNP5wso5Ta3V0pFD4BRz5UinQtkLgpFEC30+Vl3QFkb5RI9CJYImmRow+G6ajKgV6jRT41jgdp9boOGVMQKlGR98xOnoOFWhDmip98lvRzbJEBHoMFegXFF3Mp0aX/O/C/ClbXnJQlaqvwQJdRwh0HS5wFJ9l8qrzfAD3/J2tbqXA92fpWLvdwhv7E9j2zwS27WseifS+sjeBXuNspnmWU1Uuz2RiROBH03U8vs3ClvcS2JpKG99J4NqlJjpHCwCYyrtaoH2lQP9Jdr6ki/m+ujeB9TssXLzAQFu/IIkKdK4UeHF3Aq/us/N5bV8Cd220cPIEHa1zCYOiZ7BAyyqBDlGB/11sYNkWC5v31JdVlbno894E1rxlYfwTMXxlhEBrn0Bjr9Y+KlD1kIl12y08/Waw6ak3LNzxUhyXLDTQqaqAeuQIMCpw/hwD8/8Wx6rXg6NrzZsWVr5iYcaaOE6doKOdS/2xQSfYfzjLwIULDJw1V8e5Nxu4aL6Bk/gO69NRt3WyXnfh9mOue1JgNZz3ZwNvf5xEczwOiCR61wq0rNC8W0cnDwj+MoGLZxvY8a8EYlZ6qZ/bZeH063S0jeRooZ35pa5bVgj0GiGw6IU4NDM9z/0Hk/jdEhMdSCMr3uX9tHsVAkdHBT7R0uvk2Z0JnHadjjYuwpP2fir/VhUCXxuvY6dLOdMpLO6/ZBKSxitvM9DBJ00cjneuELhpfby4j/p8i41A33HCd0PZImqDb9UbVlb9+fxk3sc+N4Apq2IoGZYuWwR+5yECv1pk4oo7DJw5x8B/zNJx6jQdP56u45q7TfSdossGNms641bxvu4R/FEN59xsYNdH6YKWtyRN5IEDWhLHji0c/BfOMrD9w2zws4KWbLDQUw7RtPxATfWw7co0lN5p4v2DSViJdObs+zSJy2430SHiF/wajq7IBv+6HRa+NVlHm0p/DR0bsB/fqEuAEqiNcZBf05+OodvwdIH2kj8Kb8dygTnrGhf82/YncNbNOtpF/fGqZVSgd62Ojz5PItFIvBIx4NFtFk6u1cHGRvIoNfo+Y5aOXy4wcOwogTXbLTzwjzgWPx/DpQsMOf0ru9/E0cPttZI03qb9k69Xcf6uwH9T8wZ/r0LBP0jgwpkG3nIBP4HLHrf8PhPdyKt8Q3XOzyMCZ0zVwZ45ngAyZaco8Ec8wD/JJ/i5wBcROHeWjk9FOkUUbpaz0MSyZQLjCxOYuz6O7iP9zbHrwL82Hfyk0CqCLtLEcmQ2bqzb8+cb/sFfIdCnVgc7E+fBfAvlE59345UeB57ebuEbE1Lg5yiU040hAr+9w5Qg7zZC4K5NcZwzRcelfzFwy7oY+gwX+PkCAxfNM9A+c+4fgr/Anj8H+FnxpgVs2ZfABXN0tC7X5NzZlcdcteYQvUpgycY4PtXTBUcJ0SEDf7nAOTOzwc/G7c0PEtj+YVKmHR8mkS/x2df3J+TIxllKgn9OAOAnYPZ+Uk9XPnrU729+kAR7eSOe3gDUgd/ndJDTNvb8meDnyIbTw7c+KIxXXI/adyCZ1hkQ/KvfstBvvG4vKnNBtkqgZLSOP95loucIgS7DBZ5+y8KC9XHMfCqGXy80cEw1R3AGrrjVQGd2SM4GwFUwnT2813XY82fN+QlYtvZsAO7YEMfxajHLyXDFz0qBksECA+825WiBAux2NDXws2c5ebzAV2oEOGritClf6lUj5LBz/MqY5I1qABT4ezSw5//CAAbcZaJ3jU1XPnrU78eMFjhhpMA/9lhpdRkU+NduT+B7U3Ww/IXwqvtwgQFLTXz4WVKOaCgXXuDvOkrHVXea6D1KoPMwgQc2xzFnfQz3/COOrhUaOkU0nDXTwOUK/Er+eA7BH2zPrwDM+fvwZSa6VAhQPeXkM4evbSICF8w18Nr+hASEei/z3NTAv+BvcXSLamgV0eRCKRdL86ZyDS2u0TDmfjOtN+Pi5s3PxdFjVMOG/Z/pSVx2i4FOHGkVQlephpJrNbz0tpVWB0WBf1x2z//4axb6jhRoUy7808W1nWs0XDnfABd7VafgBn724rS/uGSxITVQJSMEFr4Qw5kzdPz1+Ti+N0XHccMFLv+rgTNm6NImxSmHIfgDmvOzx1c9GgHMeRuHoufeqKODUz9LI5BKgeOHCdz5Uhxxq/49vu/Mg/k0NfAvfCGOo2kv4EfzoHoZjnzKBEY+aIIaFq4jHBRJfPBZEjc9F0N3gt9Hfl5zfoL/t7ca6MhG1o/mgPQwRQRKSgU2vhNAz+8C/ie3WehXI3xrWCQwSVepwB8WmnifPX9qROgFfmpvTr1OlwA/oVbH8JUmTqnVcf5sHeX3mjhnjoE/3WVKjQqnCSH4U90r52hBLPgR+Kwczh3VQRDrMWD9Tgvf4AptWUrgokL2UFXLTHz8RbIO7FwM4/PMw7kw1tTAT3WkBD+FVIHbzzkqcNI4HT+9ycBP5hg4b66BC+YZ6EsNBN/3kZ8X+A/qSfzmFgMd2WtSzcqFVj9pkEDJAA0b3mmcnr/RwU9tEUeRVQI/mm2g/H4TZ91k4DvTdPSfquPniwxce7cptQA0yMuqr6wbrAi2EGxFczGwQqB9uYZzbjKwuxmr+oIAP3t5DhWpipHztFRrzVb731oSUx6PoWeVvcDXqULgojk63v44AdPRWLAnvHtTHH9/x16AUo3IYQP+lNkrjVRoENOu0k60XKQAu8phRqPiBX6uHVx7p4ETRwscO0bguBp/iZaCJw8TeHmPJUdqiudBDfu/DPBLvtEga7DAqZN0uap/3jwDP51nSKMjrqfQ1NifkQ/VT+UaOg/U0HlAjnSNhu5Xazg/pfP+3EjiUCcu/LDnVEMlVZle56B6fn5zw54E/meRgdWvW6BO1jl8p03AxfMMdLpGw7fHCqx+w5K9vKKLPf2mdxK46DodD22xQGFWx2EDfgVkAj0zqd/ynL3Az0b0b7ss3LclLtP9W+Pwk+7ZHJcLY9RgOEdbzQ785Bt5muqw2aDKdSbndNONt5ktLtUWv1xkSEOKG56OY3qONG11HJNXxVD7iIlxD5sY+7CJmuWHKD1sYvRDJpZujOOTDN20AlLmOSjwK/XeeZN1/PdMHfsP1M/V+E0O55/flcA3RwpMfCQGzlGVsPHMYWvNwzEce6WGR1+zGw9F62EHfjch9HnPC/xSwxK3+cyGt5DEulF1oXiuwN++EFXfoZjz++RbJsbr/q+7SGV0VLmGcY/HpEBS95wrffRFEs/sSODUcQLdIhpKqL6i7vFQpKiGr5Rp+PVtplwkUxWZ6xwk+F/5Z0IaV3AOOfGJmLT2Ut+mcHFl++EtltT5UljVQeF75BULp40RKPmDBq4Q8546QvDXTwm8wK94FdT5jQ8SOGdeYUY+vQ8H8LcYpGHikw7py8FRLnI9t9vC17mgVZ5aK+B6waFIUYEOBP/tJvZ+6kBXDvqDBP+r+xP48VQdbQYI9B0tsGyrvYLsBDobASdlXOn/4GASZ9ygo32pQNf/0/DEthD8mR2S+j8X+Mln8jczOfnvFAXWQ+aztBKkv8ZzuxI4fQqtIX0uRNLI57AAf2kR4HdYHamK+tLPXPQo16Qd/CED/3QdLQcJtCnTcNl8mj1n2/87BZDAH7kshi7lAkeVCXS9OgR/LrnxAj8BzvUeqhAzkx6vn2Ip3hP4BDmf5XxfvqMn8e8vaCWYxMgVMXQpwDtTWvgd0eDPZ8fe0PlJvvebCPilSq9CoPsQgdpHY1Kw2MM4DworFwm5uv/VkQKtybuIQNdrDmPwc0EqU4vkVy+fqnsv8HOa9Od1MVQsMVHOtDSVlpiY+lgM732SXgGsD05ZZz4RQ9lio+6d0qUmLrrJwDEjsg2zcjZKR3zPH4JfulCq6U+rCg29hgg8ti3bzZO9DheVLpxr1Ov/Kw5z8FO1Vy3QZYhAFwacGGy7otLXXOqg2TjkaeC9wE816aXzDXQo1dBioIYWg2xDmValGnpWCsxbH5eNrZoCEPyfGUlMeyKGowdoaHWtJg1rZMNNOwGfw31Fb9jzh+CvB3/K6aJdROAH03Vs3VtvuM8+iKv71Q+Y6EohY6LQH87gJ7AjApcsMHD/Zgv3v2xJleaKVy2U3mfKyDNyVFAk+KWF36IMC79UHbQqF/jBdTqe3ZFuP8EGYO+BJH6/1JRrRTICE+n00Qgp0KtzCP4Q/GngpxDRBJaaj+oHTbzz7yT+9XkS//w0ibs2xtFjWCqCjRK2ZgL+W2jbX6nZIaVY537TAA0j7zelmpN2DFTH0QCKtv0NdemtM+/ltELxkw0JryvtyEY/TwWdcRpWcbrwyr6ENMGuMw3O0wApwDvPXuDn4m3fUQKtqW/3yyc+e62G3y/wYdtfBK1OurNt+4td8AvBnw5+JXwRgeNGC9nDlN5vSjvrb9KvPjMyTzMBPx17epVp6DJQoLPvpKHTVRrG3m1Kq0Y1A2cjQH/+hnr1SfAvNtAxE/wKHDSpjmgYujxlUq0ISNlgEKSnjtftBk29U8DZC/xU235rmEAJDeYK4dUfNVw1LwR/3nlgXUvWVBb8qPLM6H0YN699hR2Fpn3Ejn3I+Wsd7RS0ZgL+rfsSMvrOtNUxME33kaY9FcOkJ2JgeKxE/QxIWjIG4c+fF/yMncBoO0MFbn0+Lv0wnPP/L4wkrmeIrMrUQl9m3eRpCCT4Xfz5d3+UwNx1Np9882p1DJOfiOGBzbT0TNYFGnF17MlDV5p8uT2b9UDY86eD0sk0CoVLMA9a+Ek9//SUvUOm8PB/JmX/kPk7v9HEwM/1CrdgHtRScM1CGn+5qNYyVW3qf3rzcajvPNjzz3k2oGF/rp4/5QDTulzg7Bt1vLA7ff7PgQBjFf7pNroFFxDQNSUbXuCnXNDkvRheaRmWhxL82y30YyQfTg3cZMgpq36uQ/AX58/vjOGXF/x+KqKJgd8rjJcTvA29luBfHwtmzp8H/FLOKwW6VAoZ2IIelXTIUgfrkHXaf7KOdgWCi+A/vlaXaxiOGYXKOpAz1ydkJB8VxsuPTOV7JgR/geAvE7iIzkyOqLZU3TEox9lePX++SuDvKfAz7LPTvJcLhJczgGfmGoFXngwN5hLAkyHAT5MBPP31Glyk+u40XS5SqiFyIFLsyIS94ugVJroOSY2KvMqUus+pUqeIwNyMAJ4c9l/hB/yMQxAVKIlocrrCBVh1sIzSBHtrHF8fZ2sn/PauDOB5zBiBHR/acRhVnkGeSRv9Vo4bo9driPLwKwvbmc9nPRAO+3MP+8sFfjZLl3H6uFrNIR17kQ3vJmQ0FelPXsyQjPH2B2hY8YolAcd8ObxmZOTLbjNlvHpfwsgw0pVCGrbI4WYqH4aVPmWy/7j99Ao7eqiQcehpJCODcKjhfgBnAo8RhRnmiu69fspGt1S6RM9YU+97Qh7tZwO52JAbsOTNh5ujRAW+MVbgvpfj6RZ+WhK7P05i5MMxyE0yMsHi9X+lkIFEhq8wZTxDFbBE8b+hZxokbd6bwC8Ys4CyVYx8udEegr+Anp8MpOBM0jHqkRjo9Tjj6bg8D1tu4qu1KZWOG6Pz3eOiYETDwHvMunxvXBNH7eMxnD7Df7x9qra46s0Y7zc+Y9M265k4Kh6MoVeNbhvU5KOFv9P/Pipw4iiB391hysW9fF6euTxA1W/M44anY6h8yMT3r9fRliMaZeuQhy6Cn7sRXbrYwOy1dtm4mQXr4PRpugxplSXPLnlyBEH9/9kzDExdbedD+kgbRxXVD8VwTI1LqGuXvOT3mF+lkLv9/GqhIXkfBK9IE8s3cmUM58zW0TGqyV2U/JTR1zNZD4U9v3fPr0BRafsRdBok0LlUgGf6FcidZ4ptlVN2AXQj7TRIk/ky7w5lHtqBHILIXpvx7Tun6GM+7cttAXUN6uCRF5+VmoqIIy/fKisPVWCpzTPSRyBnaT08aFFyylBU7SIaOpfZ+bBsHctsXXohefFZ7oLUSeXDcpG2QcXzipaKXC9Iy7Mh/KrjlYZ2tK0oVra8eKqYWncOwZ8b/GQkK0HZqSsrPS8dsxfjve6rfGk3ofIutNKd9Kl8iqUvMy+/xiq5nmO5iqWHfAuCR6oeSYuT1iBpc+Zb7HWxMuAlX877daBXN0Pw5we/4lV4DnnVnGUgBH+Bc/7mXNkh7WFj5ZSBEPwh+LNkwCkg4fXh22BkVXw47PdV2VwMa+yUVTcuQGwMGvx81/nMoabB6/tOGgu5dsvP1/uptRm39xt6z9f3XeQj53tZP4bgzw1+rspX2vvEczOODhGq6IJNzLc9V8K52OO22McFrwohd83ht4OkgQ5HLemfwG/nEybSSF+FiBYYD2RZUmWTZqwsaw466DlJOwFVF3yfHnqMYOvKuxx58XnynLvzdkzVLfNlfp51ofJjPaXopml0UDLB8pC/5LNcmHSTB0VDoecsxobgzylsrIB+E3WMeTQmdbA3rLH1w7b+OoDrNXGpnx+2PCYbALmy7ahUqqgYW+60iTqqHjKlk00gNLAca+IY/WgM583SZdCNnA0AXWUH2/b/0uYh9X6D+bDGjhhdvczEt6/TpUGOpwqvSuDokQLlD5iyLqgT5/cnr4qj/3WF28BTldZjuJAxBmbRjmBNHDPXxjHt6Tg65dpGPGUTcfxogT8tNTGVNgMByQXLRFuP/1lgb7QpGzWHPGTht5Dfsl4Owe8Nfra65QL/NdeQu6/SrJdBIYJOzJc74ZYo9ZCjQqlLPm6YwKLn7RDltE8P6vvc74Amty++ncAFsw07KKtXTxPh7q861u9MyKg4fDcoOlgmWsn99cU4+ozK0YtXCpw0XsfanXa4c36fvOMOt1fMN8BgtIX0/tzcol+NLr0Pae7L/HhmnL8eNTkMuKSFn4bax2LY84ntMxAUL5gPTXu52+9liwy57VYhZcrCt0OWQn/+QvfqU7b9H+YOztkQu24K/2v7LZRwqEcnE1VhNCKpFjh3qo49H9uBKeut0xvyxfp3KWz03Bv/aAwM4173bUVD6syNOocsj8kYhX43San/Su4rlol0UOAvWJAjhHZU4PhxAs/srPeHIO/2Hkjit3820IJhvbwar4zy8Dlue9VvtI4nX7fSCCT4OcJoQWvEzPe49hMV6Flj2/bTQagx6oTbfS/dFJc7EuUckbnQ50azvJf1Q9jzu1aw5BMFKeXS6/TqS5OUAP6hAHM/+25qnqcqlNuiVwn8bLYu7dkD+JRnFjesiaEt55ou4OHiFb3+pqyOp+2665lZkT9wI88rlpjowD343Ob+9KZT4E9tfcaGqFjw05qx7ygd3GbLeaSB340fKa8+Phc08BUddPZa9aaFvoyUzRGhkomGnLMyCcHvzVgH+BmAk0NMHqxwApYV9LmelGGkGUq62ERnlVf3JdA1c9ifAv8Fc9LBz6Ep9wDQDA7bC/suh5QGtxfLkNoZz8TQjot/bsI+mCa2AtevjqdtjcY8OGpgnoWUnTSTdrljsYOODz9P4neMsecGftLVSOBnZB/nkQ/8R1UI9HEJ5sHyiAJ5Qb5RhshHjn7UkRbMg3LhUi9ZWM7XMGS9EIK/YPAT+HS9nb8uhrHLTExYGcOER4pPkx6LoeI+U25omdbjeYCfgrJlbwITVpioXW76/zbpXG5i5Za4bACUoPF8Qz7wlwtc/1Q6+EnHU9vimPRIDOML4EHtChPjl5uyDMxDHRL8Xj1/EwK/VzCPN99PYMaqmC0PPvlBvtUsM3Hvhjg+0+sbgDTwFxhvIAvjqlHI+iEEf8Hg5whg2/sJnD9VR0mZQLcqgW7VDUiD7RDXWdsqe4CfUV8YFLR3hUA3Jr/frhLoExEYdq8pe2oFOp4JfnrcefX8bV3Azx5/wooYjmf5Kwugg3HvI0LuY+CM9kPw/28z6Pm9wM/YDP3HCPQgL/zKBIO+DtIw4FYTLD93EeJB8K/dYeGUialhf9jzO+Y+hzqG3z/t7bpalKYcTzhHLTSxQp1JtdDq7AF+RsS5a6OFLlwjYFI6bmdemdcp2rqWCwy+x5RDTVvM7L/FgJ/D97HL7Vh4clHKLx0VAp0jQu6YyxgJaqNNzt2vVOAn/YoPPPP/JjLs9wL/49ssfH10KkpzIbIwSMNvbzGw61+JungDjH+w8lULfRnJx48NhpNXXtdpDOVDYc+fLmROxlHgvGL4EfzTdHvDCD9CnwlG53e8rnOA/26Cn8PBQhaDqgW6RoIF/7gVMTnySJuueJVH3Wcsg0qBqmUm7tscx71b4nhgaxy3b4jjrLmG1PVnzXGbAfhl6O4xtlu0rwZZyURUoNcogbNn6jKO4rkzdZw3R8fpU3W0HxrQfJ+8D8FfgG2/B/g57GcYr3Om6OhE/236v7M385E6RW3B97VrTXMCP3mlwJ3vzGAY1QLdRwn0rrFTn7ECx9UIdB4u3P3Ymwn4vzWKYcP8yUKdvEQESsoFupcJdB8k0LVUkxuLtKmw94Lwzdd8fM/KKOz5vYXWA/xc8KNxR+2KGK661cDVtxm45nZ/acASE7+Yb6DbiNRwPVeFHa7gZ5nJW46YOKRVWg5e854bT5oB+Le8l0D1vSauvt2Qya9MZD73q78Ycu8HrrPQnNmVH248yncvK6MQ/N7M9QA/12TYAFCt85lIyl1pGFTST+LOsM/tTuB0mqPmU+EczuDPJ6iZvzcD8HNEKNWvPmXBS164lfzL71n4PrdyZ4PIsmfyo5j/szIpEPzP7rLwtXGpePWqpWbr9GWnKENeafjN7Sb2fepQkDpXsTKuydRjC7Xwc5nzZ2Rb0L9Ubb20J4HvEPxcrMtVsSH464W+iYGfen7aAzTGQfsJbix607o4enKESJwVA/bMd7IyKQD8FNx1O+0VzQ4DNRnHjgYZhySVaeg2QMOltxkyci174ZwpBnxwMIk+tTTPdDfbzOINBa4RwP/3d+148SH4CxDqpgR+LtCNtSMmcwTYGAcNyJ5sShZ+LOjr7ydw7X0mfrnYwCW3mbj0ECV++xeLTVQvN3HPpjhWvGzh4Rxp5RYLK7Za6Dm6gB1aGgn8m95L4LtTfHihhT1/fY/XhMDPnrhztcCfn4vLMO6NAn4aUL1loR/Ne5uCkQ/ND9kicbjz/mdJ0Bb7UKb3DiRx72YL/Wp19Bos0GuYdzp2uJBDKDpz5BxqO4dKHuAnH6ifpkPInS/Fcc9GC/dsyp/u3WTh7o1xXP9UDCdy6pRvOHe4g5/8dUvOOlDXTQn8dApiSPcJOsaujOGuDRbu3RSXnZAfOUh7ZqMtQ8/tTEh7B2V23eQs/BqjhWtInjQOeXCrhePG0PU2FQ+egHJLak2CQqQEKt+Zz7oM+5WF3wXTdPQapOG4SoHeflKVQG/6kA8WoDtp3kboMAY/LQnbMjAHVZ9RDR2imgyqQWcbOhJl1VFTAj/pqxI4qlxIWwvW/fGVGvr4kYGMZyg7vUo1DFxoyI5UeUyG4M/TMijwU1ecd+XcTaDy3fMAv9qr7+xpOlqV2f7n1Fv7StxCKhUSLEvAM+k5XMFfZcfw7z9Dx0W3GPivhQZ+eauB/15o4MSJHrsMNSXwpzbtOGaIQK9qgV5VAsdWCxzNckUFWvuVBT5XJdCqVOCqEPx50J7xcxb4M8HT0P/zgP/H3KuvzEcPXiwd+cBPbYGaD5LWfKlKIGjzXmnh5xxV5aOBv0eFDJv1l7/FsOujhLSZoGkvDacu+avhvnEm38th3nv5PAMtBqZcgf3QwGg8lQJ9RwoU6tXHEF89xggseiGOJS/FcduLdhq6LIZjRjiCkfihg7wbKPCHhWbY82fgO+e/TQL8jH/HSi4W4Lne8wA/HWro2NM9okk/ew6ffaVKWpFpGBKQbT/dUcctj6Fnpd2T+6KBtFYIdC+3bfs1s15dRseWK+8szqX3ipsNtBmgyV2B/NLRMSpwyghRsD8/N/88aYIuow85BfSpNyx8c6wuYwD6pYG7GLUp1fDHsOd3sjL/9ZEKfi66Ln/FwpnjdfQfr+M7E/2nM2t1THkkJtWiTg4X49hD/s9eHcMPJ+roP8E/DaSZdCx/JZ62Q3FRLr1JyMXnqiUmTq/R0b8AXnxvgo6Lp+t4dkcw/vzP7kzg4hsNMF+/dUJ6Sffwe0xwg07l0x/O+Z3S6XJ9pIKfKld6ff19dwIv7k7g72/7S/LZ3QnpPcbAE87Dlz9/RjAP0vHOxwm89LZNh19a+BwTy+DUk+cEP0dIqWE/Y/gRHDy4Os5r+tI/v9M/PxQvNr2bAK0unUe+YB5eXn3M5x/vJgqqF9JBurd/kIAZrw+yEoLfWSMu10cq+F1Y0eBbfiP5OMHa4I9mZCDBr1x6ORfOnBJFBU4YJ2QATwX+jCwC+VeCfxQbG3djMIK/MS38WIg68NOlN58ZeCafvF5omzgAAANWSURBVP7PYuggDROfjAXCtC87ky8F/GUCF84y4Izhp1b75YJfY8/5qwV+NtPA/gPpvVPQvL5+dQytGT7LRXCoemsTEVJOGiNgpSoLoyP9+nYDHQg6t3UUqslqBNZsrw/gqd4N8izBP8zbXVr1/By5KL18kN9nXpTtR7dZOLm2EWP4tSzTMGlV8wX/8lctHD82QPtnp/BTAMsELp5TD35CkMOzV+nSe0PKx8FNUJ35FHtNY5JqgdPG6Vi33Q5XzUgvFLggEueXNNnmSvvVd5j25h0etB4V0XD5YgO7PkrKXonvBkED82CZuI6xdruF/tfrcp8CV/Az6s1ggemrYvjo86SMqRgUDZKOBGR0YgbloLutpxFWpUDXoQIPbrHk80HygnSwgWX5ah6JoYT+/G6jII96cmu86+7VXaRebhURGP9ETK5cMnY6nV+aRRK2deFjr1s4sTZHRRXDJPUOQR0R+MlMHS+9a+H9gwm8fzApz+t3WjiTwTzyOeeovIo80ximQ1TITRwY1mnfgQT2H0zKGILsKYtN+1PvMhbgsIdN9Bltz6ldQUfaowLHjhSoejCGze8l5HcDoeNgUpbp2Z0WfnOrgY5RzduNNbWByYljBOasjcu9DlgfxfJAvUdeMO35dwJLN8Rx5nRd6us9QSc1Fhr+8wZdhiLb84ldJ0Hwg+WhCf3stXGcMMbexMSzTgqVqUzws1K/MlpH30k6Thyv44Rmkkjr1ybq6FWj+7OWK5RR6nlaoQ0RchMH6nZlqhHoPkagLZ8JqlVW33M5t2Tkm6hA1+H297uPFggkjRHoNpKNiyZ13jmFLKUX57MlI+3ykwcNpiPFU5aNZcznv87GsHVUoDN37xkVMD9G27sSyViGeepVWihWaOg8JMWLgOqE8tVtlEAnlrNCuMZUzMKwi8y4PpN1M7UXXStGDYk0s0TmRANmkBsjaXJKk2HORZmiWv693NzyKfYeRyAURi78KBqCOtPDkWXzM3XhM3yW7wT1fZUPy8YyHko6FC/yAL8OQ3yuMfih6PDDi0Jkqo5wt5f4seaU3MoQ3nNdtMtZ7yHPjgyehULgokIKhf/IEP4jvZ5D8IfgD2XgCJWBsOKP0Io/0nu9sPwuobtDpoRD3lAGjggZ+H/G3+oaLSzueQAAAABJRU5ErkJggg==;" parent="ISa7n2zJE7d0IjWUZAvD-177" vertex="1">
          <mxGeometry y="14.039999999999992" width="68.92" height="20" as="geometry" />
        </mxCell>
        <mxCell id="ISa7n2zJE7d0IjWUZAvD-179" value="" style="sketch=0;aspect=fixed;html=1;points=[];align=center;image;fontSize=12;image=img/lib/mscae/VM_Linux_Non_Azure.svg;labelBackgroundColor=none;" parent="ISa7n2zJE7d0IjWUZAvD-177" vertex="1">
          <mxGeometry x="58.61999999999989" width="24" height="22.08" as="geometry" />
        </mxCell>
        <mxCell id="ISa7n2zJE7d0IjWUZAvD-183" value="Enterprise Server&#xa;(SIT)" style="group;spacing=29;aspect=fixed;" parent="1" vertex="1" connectable="0">
          <mxGeometry x="1135.62" y="467.50000000000006" width="86" height="35.27" as="geometry" />
        </mxCell>
        <mxCell id="ISa7n2zJE7d0IjWUZAvD-184" value="" style="shape=image;verticalLabelPosition=bottom;labelBackgroundColor=#ffffff;verticalAlign=top;aspect=fixed;imageAspect=0;image=data:image/png,iVBORw0KGgoAAAANSUhEUgAAAP8AAABKCAYAAAB0D4IMAAAgAElEQVR4Ae1dCZQU1bkG2ddBwKDgEhOIJkaSvBhfYtRo4vLeyfI0xphnYvJUGGZ6embYl4FhEwGRTUlAkKjgviDgioiARo1ABFRc2FSEoEYjotatqu7q/t75bvWdqe6u6q7uqZEZqDrnTtVUV93673//727/clu0GCwQppAHoQwcgTIQVvoRWOlhgx92eJSBEPwh+EMZOEJlIKz4I7Tiw94/7P1D8IfgD2XgCJWBwCq+WqBFc0wN6QGd5W1IPm7vqrzdfvNzT72vzn7eyfWMyieoc65v+f0tKFqYj99v+n0uKNr8fq+Y5xpS6JaDBVpVC7SpFmjXDFPbaoGWRVT8UYPtMvN9lptn8qBVMRXgeIe0MB+VL/NW+ZLXfuuK+bQdnF4nrasFSLffPNRzzIvvOmkKoq4lPUXwnh2MkjnyJsikaCpGJiS/yOMUvxqDLlUnuc6UE9azr7rOlVG+31gJ3YYJ9J+o40fX6fjhpOaTSO9/Xq+jQ6ENQJVd5m9P1PGDiTrOnKjjjIk6vjNRR/ehAi0qCgeY5HOVQJsKDaeMEzI/mfckHf0n6OgxQqBVlc98qwTaVgp8b7KOMyfZNP5wso5Ta3V0pFD4BRz5UinQtkLgpFEC30+Vl3QFkb5RI9CJYImmRow+G6ajKgV6jRT41jgdp9boOGVMQKlGR98xOnoOFWhDmip98lvRzbJEBHoMFegXFF3Mp0aX/O/C/ClbXnJQlaqvwQJdRwh0HS5wFJ9l8qrzfAD3/J2tbqXA92fpWLvdwhv7E9j2zwS27WseifS+sjeBXuNspnmWU1Uuz2RiROBH03U8vs3ClvcS2JpKG99J4NqlJjpHCwCYyrtaoH2lQP9Jdr6ki/m+ujeB9TssXLzAQFu/IIkKdK4UeHF3Aq/us/N5bV8Cd220cPIEHa1zCYOiZ7BAyyqBDlGB/11sYNkWC5v31JdVlbno894E1rxlYfwTMXxlhEBrn0Bjr9Y+KlD1kIl12y08/Waw6ak3LNzxUhyXLDTQqaqAeuQIMCpw/hwD8/8Wx6rXg6NrzZsWVr5iYcaaOE6doKOdS/2xQSfYfzjLwIULDJw1V8e5Nxu4aL6Bk/gO69NRt3WyXnfh9mOue1JgNZz3ZwNvf5xEczwOiCR61wq0rNC8W0cnDwj+MoGLZxvY8a8EYlZ6qZ/bZeH063S0jeRooZ35pa5bVgj0GiGw6IU4NDM9z/0Hk/jdEhMdSCMr3uX9tHsVAkdHBT7R0uvk2Z0JnHadjjYuwpP2fir/VhUCXxuvY6dLOdMpLO6/ZBKSxitvM9DBJ00cjneuELhpfby4j/p8i41A33HCd0PZImqDb9UbVlb9+fxk3sc+N4Apq2IoGZYuWwR+5yECv1pk4oo7DJw5x8B/zNJx6jQdP56u45q7TfSdossGNms641bxvu4R/FEN59xsYNdH6YKWtyRN5IEDWhLHji0c/BfOMrD9w2zws4KWbLDQUw7RtPxATfWw7co0lN5p4v2DSViJdObs+zSJy2430SHiF/wajq7IBv+6HRa+NVlHm0p/DR0bsB/fqEuAEqiNcZBf05+OodvwdIH2kj8Kb8dygTnrGhf82/YncNbNOtpF/fGqZVSgd62Ojz5PItFIvBIx4NFtFk6u1cHGRvIoNfo+Y5aOXy4wcOwogTXbLTzwjzgWPx/DpQsMOf0ru9/E0cPttZI03qb9k69Xcf6uwH9T8wZ/r0LBP0jgwpkG3nIBP4HLHrf8PhPdyKt8Q3XOzyMCZ0zVwZ45ngAyZaco8Ec8wD/JJ/i5wBcROHeWjk9FOkUUbpaz0MSyZQLjCxOYuz6O7iP9zbHrwL82Hfyk0CqCLtLEcmQ2bqzb8+cb/sFfIdCnVgc7E+fBfAvlE59345UeB57ebuEbE1Lg5yiU040hAr+9w5Qg7zZC4K5NcZwzRcelfzFwy7oY+gwX+PkCAxfNM9A+c+4fgr/Anj8H+FnxpgVs2ZfABXN0tC7X5NzZlcdcteYQvUpgycY4PtXTBUcJ0SEDf7nAOTOzwc/G7c0PEtj+YVKmHR8mkS/x2df3J+TIxllKgn9OAOAnYPZ+Uk9XPnrU729+kAR7eSOe3gDUgd/ndJDTNvb8meDnyIbTw7c+KIxXXI/adyCZ1hkQ/KvfstBvvG4vKnNBtkqgZLSOP95loucIgS7DBZ5+y8KC9XHMfCqGXy80cEw1R3AGrrjVQGd2SM4GwFUwnT2813XY82fN+QlYtvZsAO7YEMfxajHLyXDFz0qBksECA+825WiBAux2NDXws2c5ebzAV2oEOGritClf6lUj5LBz/MqY5I1qABT4ezSw5//CAAbcZaJ3jU1XPnrU78eMFjhhpMA/9lhpdRkU+NduT+B7U3Ww/IXwqvtwgQFLTXz4WVKOaCgXXuDvOkrHVXea6D1KoPMwgQc2xzFnfQz3/COOrhUaOkU0nDXTwOUK/Er+eA7BH2zPrwDM+fvwZSa6VAhQPeXkM4evbSICF8w18Nr+hASEei/z3NTAv+BvcXSLamgV0eRCKRdL86ZyDS2u0TDmfjOtN+Pi5s3PxdFjVMOG/Z/pSVx2i4FOHGkVQlephpJrNbz0tpVWB0WBf1x2z//4axb6jhRoUy7808W1nWs0XDnfABd7VafgBn724rS/uGSxITVQJSMEFr4Qw5kzdPz1+Ti+N0XHccMFLv+rgTNm6NImxSmHIfgDmvOzx1c9GgHMeRuHoufeqKODUz9LI5BKgeOHCdz5Uhxxq/49vu/Mg/k0NfAvfCGOo2kv4EfzoHoZjnzKBEY+aIIaFq4jHBRJfPBZEjc9F0N3gt9Hfl5zfoL/t7ca6MhG1o/mgPQwRQRKSgU2vhNAz+8C/ie3WehXI3xrWCQwSVepwB8WmnifPX9qROgFfmpvTr1OlwA/oVbH8JUmTqnVcf5sHeX3mjhnjoE/3WVKjQqnCSH4U90r52hBLPgR+Kwczh3VQRDrMWD9Tgvf4AptWUrgokL2UFXLTHz8RbIO7FwM4/PMw7kw1tTAT3WkBD+FVIHbzzkqcNI4HT+9ycBP5hg4b66BC+YZ6EsNBN/3kZ8X+A/qSfzmFgMd2WtSzcqFVj9pkEDJAA0b3mmcnr/RwU9tEUeRVQI/mm2g/H4TZ91k4DvTdPSfquPniwxce7cptQA0yMuqr6wbrAi2EGxFczGwQqB9uYZzbjKwuxmr+oIAP3t5DhWpipHztFRrzVb731oSUx6PoWeVvcDXqULgojk63v44AdPRWLAnvHtTHH9/x16AUo3IYQP+lNkrjVRoENOu0k60XKQAu8phRqPiBX6uHVx7p4ETRwscO0bguBp/iZaCJw8TeHmPJUdqiudBDfu/DPBLvtEga7DAqZN0uap/3jwDP51nSKMjrqfQ1NifkQ/VT+UaOg/U0HlAjnSNhu5Xazg/pfP+3EjiUCcu/LDnVEMlVZle56B6fn5zw54E/meRgdWvW6BO1jl8p03AxfMMdLpGw7fHCqx+w5K9vKKLPf2mdxK46DodD22xQGFWx2EDfgVkAj0zqd/ynL3Az0b0b7ss3LclLtP9W+Pwk+7ZHJcLY9RgOEdbzQ785Bt5muqw2aDKdSbndNONt5ktLtUWv1xkSEOKG56OY3qONG11HJNXxVD7iIlxD5sY+7CJmuWHKD1sYvRDJpZujOOTDN20AlLmOSjwK/XeeZN1/PdMHfsP1M/V+E0O55/flcA3RwpMfCQGzlGVsPHMYWvNwzEce6WGR1+zGw9F62EHfjch9HnPC/xSwxK3+cyGt5DEulF1oXiuwN++EFXfoZjz++RbJsbr/q+7SGV0VLmGcY/HpEBS95wrffRFEs/sSODUcQLdIhpKqL6i7vFQpKiGr5Rp+PVtplwkUxWZ6xwk+F/5Z0IaV3AOOfGJmLT2Ut+mcHFl++EtltT5UljVQeF75BULp40RKPmDBq4Q8546QvDXTwm8wK94FdT5jQ8SOGdeYUY+vQ8H8LcYpGHikw7py8FRLnI9t9vC17mgVZ5aK+B6waFIUYEOBP/tJvZ+6kBXDvqDBP+r+xP48VQdbQYI9B0tsGyrvYLsBDobASdlXOn/4GASZ9ygo32pQNf/0/DEthD8mR2S+j8X+Mln8jczOfnvFAXWQ+aztBKkv8ZzuxI4fQqtIX0uRNLI57AAf2kR4HdYHamK+tLPXPQo16Qd/CED/3QdLQcJtCnTcNl8mj1n2/87BZDAH7kshi7lAkeVCXS9OgR/LrnxAj8BzvUeqhAzkx6vn2Ip3hP4BDmf5XxfvqMn8e8vaCWYxMgVMXQpwDtTWvgd0eDPZ8fe0PlJvvebCPilSq9CoPsQgdpHY1Kw2MM4DworFwm5uv/VkQKtybuIQNdrDmPwc0EqU4vkVy+fqnsv8HOa9Od1MVQsMVHOtDSVlpiY+lgM732SXgGsD05ZZz4RQ9lio+6d0qUmLrrJwDEjsg2zcjZKR3zPH4JfulCq6U+rCg29hgg8ti3bzZO9DheVLpxr1Ov/Kw5z8FO1Vy3QZYhAFwacGGy7otLXXOqg2TjkaeC9wE816aXzDXQo1dBioIYWg2xDmValGnpWCsxbH5eNrZoCEPyfGUlMeyKGowdoaHWtJg1rZMNNOwGfw31Fb9jzh+CvB3/K6aJdROAH03Vs3VtvuM8+iKv71Q+Y6EohY6LQH87gJ7AjApcsMHD/Zgv3v2xJleaKVy2U3mfKyDNyVFAk+KWF36IMC79UHbQqF/jBdTqe3ZFuP8EGYO+BJH6/1JRrRTICE+n00Qgp0KtzCP4Q/GngpxDRBJaaj+oHTbzz7yT+9XkS//w0ibs2xtFjWCqCjRK2ZgL+W2jbX6nZIaVY537TAA0j7zelmpN2DFTH0QCKtv0NdemtM+/ltELxkw0JryvtyEY/TwWdcRpWcbrwyr6ENMGuMw3O0wApwDvPXuDn4m3fUQKtqW/3yyc+e62G3y/wYdtfBK1OurNt+4td8AvBnw5+JXwRgeNGC9nDlN5vSjvrb9KvPjMyTzMBPx17epVp6DJQoLPvpKHTVRrG3m1Kq0Y1A2cjQH/+hnr1SfAvNtAxE/wKHDSpjmgYujxlUq0ISNlgEKSnjtftBk29U8DZC/xU235rmEAJDeYK4dUfNVw1LwR/3nlgXUvWVBb8qPLM6H0YN699hR2Fpn3Ejn3I+Wsd7RS0ZgL+rfsSMvrOtNUxME33kaY9FcOkJ2JgeKxE/QxIWjIG4c+fF/yMncBoO0MFbn0+Lv0wnPP/L4wkrmeIrMrUQl9m3eRpCCT4Xfz5d3+UwNx1Np9882p1DJOfiOGBzbT0TNYFGnF17MlDV5p8uT2b9UDY86eD0sk0CoVLMA9a+Ek9//SUvUOm8PB/JmX/kPk7v9HEwM/1CrdgHtRScM1CGn+5qNYyVW3qf3rzcajvPNjzz3k2oGF/rp4/5QDTulzg7Bt1vLA7ff7PgQBjFf7pNroFFxDQNSUbXuCnXNDkvRheaRmWhxL82y30YyQfTg3cZMgpq36uQ/AX58/vjOGXF/x+KqKJgd8rjJcTvA29luBfHwtmzp8H/FLOKwW6VAoZ2IIelXTIUgfrkHXaf7KOdgWCi+A/vlaXaxiOGYXKOpAz1ydkJB8VxsuPTOV7JgR/geAvE7iIzkyOqLZU3TEox9lePX++SuDvKfAz7LPTvJcLhJczgGfmGoFXngwN5hLAkyHAT5MBPP31Glyk+u40XS5SqiFyIFLsyIS94ugVJroOSY2KvMqUus+pUqeIwNyMAJ4c9l/hB/yMQxAVKIlocrrCBVh1sIzSBHtrHF8fZ2sn/PauDOB5zBiBHR/acRhVnkGeSRv9Vo4bo9driPLwKwvbmc9nPRAO+3MP+8sFfjZLl3H6uFrNIR17kQ3vJmQ0FelPXsyQjPH2B2hY8YolAcd8ObxmZOTLbjNlvHpfwsgw0pVCGrbI4WYqH4aVPmWy/7j99Ao7eqiQcehpJCODcKjhfgBnAo8RhRnmiu69fspGt1S6RM9YU+97Qh7tZwO52JAbsOTNh5ujRAW+MVbgvpfj6RZ+WhK7P05i5MMxyE0yMsHi9X+lkIFEhq8wZTxDFbBE8b+hZxokbd6bwC8Ys4CyVYx8udEegr+Anp8MpOBM0jHqkRjo9Tjj6bg8D1tu4qu1KZWOG6Pz3eOiYETDwHvMunxvXBNH7eMxnD7Df7x9qra46s0Y7zc+Y9M265k4Kh6MoVeNbhvU5KOFv9P/Pipw4iiB391hysW9fF6euTxA1W/M44anY6h8yMT3r9fRliMaZeuQhy6Cn7sRXbrYwOy1dtm4mQXr4PRpugxplSXPLnlyBEH9/9kzDExdbedD+kgbRxXVD8VwTI1LqGuXvOT3mF+lkLv9/GqhIXkfBK9IE8s3cmUM58zW0TGqyV2U/JTR1zNZD4U9v3fPr0BRafsRdBok0LlUgGf6FcidZ4ptlVN2AXQj7TRIk/ky7w5lHtqBHILIXpvx7Tun6GM+7cttAXUN6uCRF5+VmoqIIy/fKisPVWCpzTPSRyBnaT08aFFyylBU7SIaOpfZ+bBsHctsXXohefFZ7oLUSeXDcpG2QcXzipaKXC9Iy7Mh/KrjlYZ2tK0oVra8eKqYWncOwZ8b/GQkK0HZqSsrPS8dsxfjve6rfGk3ofIutNKd9Kl8iqUvMy+/xiq5nmO5iqWHfAuCR6oeSYuT1iBpc+Zb7HWxMuAlX877daBXN0Pw5we/4lV4DnnVnGUgBH+Bc/7mXNkh7WFj5ZSBEPwh+LNkwCkg4fXh22BkVXw47PdV2VwMa+yUVTcuQGwMGvx81/nMoabB6/tOGgu5dsvP1/uptRm39xt6z9f3XeQj53tZP4bgzw1+rspX2vvEczOODhGq6IJNzLc9V8K52OO22McFrwohd83ht4OkgQ5HLemfwG/nEybSSF+FiBYYD2RZUmWTZqwsaw466DlJOwFVF3yfHnqMYOvKuxx58XnynLvzdkzVLfNlfp51ofJjPaXopml0UDLB8pC/5LNcmHSTB0VDoecsxobgzylsrIB+E3WMeTQmdbA3rLH1w7b+OoDrNXGpnx+2PCYbALmy7ahUqqgYW+60iTqqHjKlk00gNLAca+IY/WgM583SZdCNnA0AXWUH2/b/0uYh9X6D+bDGjhhdvczEt6/TpUGOpwqvSuDokQLlD5iyLqgT5/cnr4qj/3WF28BTldZjuJAxBmbRjmBNHDPXxjHt6Tg65dpGPGUTcfxogT8tNTGVNgMByQXLRFuP/1lgb7QpGzWHPGTht5Dfsl4Owe8Nfra65QL/NdeQu6/SrJdBIYJOzJc74ZYo9ZCjQqlLPm6YwKLn7RDltE8P6vvc74Amty++ncAFsw07KKtXTxPh7q861u9MyKg4fDcoOlgmWsn99cU4+ozK0YtXCpw0XsfanXa4c36fvOMOt1fMN8BgtIX0/tzcol+NLr0Pae7L/HhmnL8eNTkMuKSFn4bax2LY84ntMxAUL5gPTXu52+9liwy57VYhZcrCt0OWQn/+QvfqU7b9H+YOztkQu24K/2v7LZRwqEcnE1VhNCKpFjh3qo49H9uBKeut0xvyxfp3KWz03Bv/aAwM4173bUVD6syNOocsj8kYhX43San/Su4rlol0UOAvWJAjhHZU4PhxAs/srPeHIO/2Hkjit3820IJhvbwar4zy8Dlue9VvtI4nX7fSCCT4OcJoQWvEzPe49hMV6Flj2/bTQagx6oTbfS/dFJc7EuUckbnQ50azvJf1Q9jzu1aw5BMFKeXS6/TqS5OUAP6hAHM/+25qnqcqlNuiVwn8bLYu7dkD+JRnFjesiaEt55ou4OHiFb3+pqyOp+2665lZkT9wI88rlpjowD343Ob+9KZT4E9tfcaGqFjw05qx7ygd3GbLeaSB340fKa8+Phc08BUddPZa9aaFvoyUzRGhkomGnLMyCcHvzVgH+BmAk0NMHqxwApYV9LmelGGkGUq62ERnlVf3JdA1c9ifAv8Fc9LBz6Ep9wDQDA7bC/suh5QGtxfLkNoZz8TQjot/bsI+mCa2AtevjqdtjcY8OGpgnoWUnTSTdrljsYOODz9P4neMsecGftLVSOBnZB/nkQ/8R1UI9HEJ5sHyiAJ5Qb5RhshHjn7UkRbMg3LhUi9ZWM7XMGS9EIK/YPAT+HS9nb8uhrHLTExYGcOER4pPkx6LoeI+U25omdbjeYCfgrJlbwITVpioXW76/zbpXG5i5Za4bACUoPF8Qz7wlwtc/1Q6+EnHU9vimPRIDOML4EHtChPjl5uyDMxDHRL8Xj1/EwK/VzCPN99PYMaqmC0PPvlBvtUsM3Hvhjg+0+sbgDTwFxhvIAvjqlHI+iEEf8Hg5whg2/sJnD9VR0mZQLcqgW7VDUiD7RDXWdsqe4CfUV8YFLR3hUA3Jr/frhLoExEYdq8pe2oFOp4JfnrcefX8bV3Azx5/wooYjmf5Kwugg3HvI0LuY+CM9kPw/28z6Pm9wM/YDP3HCPQgL/zKBIO+DtIw4FYTLD93EeJB8K/dYeGUialhf9jzO+Y+hzqG3z/t7bpalKYcTzhHLTSxQp1JtdDq7AF+RsS5a6OFLlwjYFI6bmdemdcp2rqWCwy+x5RDTVvM7L/FgJ/D97HL7Vh4clHKLx0VAp0jQu6YyxgJaqNNzt2vVOAn/YoPPPP/JjLs9wL/49ssfH10KkpzIbIwSMNvbzGw61+JungDjH+w8lULfRnJx48NhpNXXtdpDOVDYc+fLmROxlHgvGL4EfzTdHvDCD9CnwlG53e8rnOA/26Cn8PBQhaDqgW6RoIF/7gVMTnySJuueJVH3Wcsg0qBqmUm7tscx71b4nhgaxy3b4jjrLmG1PVnzXGbAfhl6O4xtlu0rwZZyURUoNcogbNn6jKO4rkzdZw3R8fpU3W0HxrQfJ+8D8FfgG2/B/g57GcYr3Om6OhE/236v7M385E6RW3B97VrTXMCP3mlwJ3vzGAY1QLdRwn0rrFTn7ECx9UIdB4u3P3Ymwn4vzWKYcP8yUKdvEQESsoFupcJdB8k0LVUkxuLtKmw94Lwzdd8fM/KKOz5vYXWA/xc8KNxR+2KGK661cDVtxm45nZ/acASE7+Yb6DbiNRwPVeFHa7gZ5nJW46YOKRVWg5e854bT5oB+Le8l0D1vSauvt2Qya9MZD73q78Ycu8HrrPQnNmVH248yncvK6MQ/N7M9QA/12TYAFCt85lIyl1pGFTST+LOsM/tTuB0mqPmU+EczuDPJ6iZvzcD8HNEKNWvPmXBS164lfzL71n4PrdyZ4PIsmfyo5j/szIpEPzP7rLwtXGpePWqpWbr9GWnKENeafjN7Sb2fepQkDpXsTKuydRjC7Xwc5nzZ2Rb0L9Ubb20J4HvEPxcrMtVsSH464W+iYGfen7aAzTGQfsJbix607o4enKESJwVA/bMd7IyKQD8FNx1O+0VzQ4DNRnHjgYZhySVaeg2QMOltxkyci174ZwpBnxwMIk+tTTPdDfbzOINBa4RwP/3d+148SH4CxDqpgR+LtCNtSMmcwTYGAcNyJ5sShZ+LOjr7ydw7X0mfrnYwCW3mbj0ECV++xeLTVQvN3HPpjhWvGzh4Rxp5RYLK7Za6Dm6gB1aGgn8m95L4LtTfHihhT1/fY/XhMDPnrhztcCfn4vLMO6NAn4aUL1loR/Ne5uCkQ/ND9kicbjz/mdJ0Bb7UKb3DiRx72YL/Wp19Bos0GuYdzp2uJBDKDpz5BxqO4dKHuAnH6ifpkPInS/Fcc9GC/dsyp/u3WTh7o1xXP9UDCdy6pRvOHe4g5/8dUvOOlDXTQn8dApiSPcJOsaujOGuDRbu3RSXnZAfOUh7ZqMtQ8/tTEh7B2V23eQs/BqjhWtInjQOeXCrhePG0PU2FQ+egHJLak2CQqQEKt+Zz7oM+5WF3wXTdPQapOG4SoHeflKVQG/6kA8WoDtp3kboMAY/LQnbMjAHVZ9RDR2imgyqQWcbOhJl1VFTAj/pqxI4qlxIWwvW/fGVGvr4kYGMZyg7vUo1DFxoyI5UeUyG4M/TMijwU1ecd+XcTaDy3fMAv9qr7+xpOlqV2f7n1Fv7StxCKhUSLEvAM+k5XMFfZcfw7z9Dx0W3GPivhQZ+eauB/15o4MSJHrsMNSXwpzbtOGaIQK9qgV5VAsdWCxzNckUFWvuVBT5XJdCqVOCqEPx50J7xcxb4M8HT0P/zgP/H3KuvzEcPXiwd+cBPbYGaD5LWfKlKIGjzXmnh5xxV5aOBv0eFDJv1l7/FsOujhLSZoGkvDacu+avhvnEm38th3nv5PAMtBqZcgf3QwGg8lQJ9RwoU6tXHEF89xggseiGOJS/FcduLdhq6LIZjRjiCkfihg7wbKPCHhWbY82fgO+e/TQL8jH/HSi4W4Lne8wA/HWro2NM9okk/ew6ffaVKWpFpGBKQbT/dUcctj6Fnpd2T+6KBtFYIdC+3bfs1s15dRseWK+8szqX3ipsNtBmgyV2B/NLRMSpwyghRsD8/N/88aYIuow85BfSpNyx8c6wuYwD6pYG7GLUp1fDHsOd3sjL/9ZEKfi66Ln/FwpnjdfQfr+M7E/2nM2t1THkkJtWiTg4X49hD/s9eHcMPJ+roP8E/DaSZdCx/JZ62Q3FRLr1JyMXnqiUmTq/R0b8AXnxvgo6Lp+t4dkcw/vzP7kzg4hsNMF+/dUJ6Sffwe0xwg07l0x/O+Z3S6XJ9pIKfKld6ff19dwIv7k7g72/7S/LZ3QnpPcbAE87Dlz9/RjAP0vHOxwm89LZNh19a+BwTy+DUk+cEP0dIqWE/Y/gRHDy4Os5r+tI/v9M/PxQvNr2bAK0unUe+YB5eXn3M5x/vJgqqF9JBurd/kIAZrw+yEoLfWSMu10cq+F1Y0eBbfiP5OMHa4I9mZCDBr1x6ORfOnBJFBU4YJ2QATwX+jCwC+VeCfxQbG3djMIK/MS38WIg68NOlN58ZeCafvF5omzgAAANWSURBVP7PYuggDROfjAXCtC87ky8F/GUCF84y4Izhp1b75YJfY8/5qwV+NtPA/gPpvVPQvL5+dQytGT7LRXCoemsTEVJOGiNgpSoLoyP9+nYDHQg6t3UUqslqBNZsrw/gqd4N8izBP8zbXVr1/By5KL18kN9nXpTtR7dZOLm2EWP4tSzTMGlV8wX/8lctHD82QPtnp/BTAMsELp5TD35CkMOzV+nSe0PKx8FNUJ35FHtNY5JqgdPG6Vi33Q5XzUgvFLggEueXNNnmSvvVd5j25h0etB4V0XD5YgO7PkrKXonvBkED82CZuI6xdruF/tfrcp8CV/Az6s1ggemrYvjo86SMqRgUDZKOBGR0YgbloLutpxFWpUDXoQIPbrHk80HygnSwgWX5ah6JoYT+/G6jII96cmu86+7VXaRebhURGP9ETK5cMnY6nV+aRRK2deFjr1s4sTZHRRXDJPUOQR0R+MlMHS+9a+H9gwm8fzApz+t3WjiTwTzyOeeovIo80ximQ1TITRwY1mnfgQT2H0zKGILsKYtN+1PvMhbgsIdN9Bltz6ldQUfaowLHjhSoejCGze8l5HcDoeNgUpbp2Z0WfnOrgY5RzduNNbWByYljBOasjcu9DlgfxfJAvUdeMO35dwJLN8Rx5nRd6us9QSc1Fhr+8wZdhiLb84ldJ0Hwg+WhCf3stXGcMMbexMSzTgqVqUzws1K/MlpH30k6Thyv44Rmkkjr1ybq6FWj+7OWK5RR6nlaoQ0RchMH6nZlqhHoPkagLZ8JqlVW33M5t2Tkm6hA1+H297uPFggkjRHoNpKNiyZ13jmFLKUX57MlI+3ykwcNpiPFU5aNZcznv87GsHVUoDN37xkVMD9G27sSyViGeepVWihWaOg8JMWLgOqE8tVtlEAnlrNCuMZUzMKwi8y4PpN1M7UXXStGDYk0s0TmRANmkBsjaXJKk2HORZmiWv693NzyKfYeRyAURi78KBqCOtPDkWXzM3XhM3yW7wT1fZUPy8YyHko6FC/yAL8OQ3yuMfih6PDDi0Jkqo5wt5f4seaU3MoQ3nNdtMtZ7yHPjgyehULgokIKhf/IEP4jvZ5D8IfgD2XgCJWBsOKP0Io/0nu9sPwuobtDpoRD3lAGjggZ+H/G3+oaLSzueQAAAABJRU5ErkJggg==;" parent="ISa7n2zJE7d0IjWUZAvD-183" vertex="1">
          <mxGeometry y="14.547320799059927" width="75.6377790834313" height="21.945317273795546" as="geometry" />
        </mxCell>
        <mxCell id="ISa7n2zJE7d0IjWUZAvD-185" value="" style="sketch=0;aspect=fixed;html=1;points=[];align=center;image;fontSize=12;image=img/lib/mscae/VM_Linux_Non_Azure.svg;labelBackgroundColor=none;" parent="ISa7n2zJE7d0IjWUZAvD-183" vertex="1">
          <mxGeometry x="61.01815541031224" width="24.867215041128095" height="22.87783783783785" as="geometry" />
        </mxCell>
        <mxCell id="ISa7n2zJE7d0IjWUZAvD-187" value="" style="shape=image;verticalLabelPosition=bottom;labelBackgroundColor=default;verticalAlign=top;aspect=fixed;imageAspect=0;image=https://res.cloudinary.com/crunchbase-production/image/upload/c_lpad,f_auto,q_auto:eco,dpr_1/v1460640914/hyk187shdkxuov8iycdt.png;" parent="1" vertex="1">
          <mxGeometry x="1058.31" y="541.5" width="40" height="40" as="geometry" />
        </mxCell>
        <mxCell id="ISa7n2zJE7d0IjWUZAvD-188" value="Logs" style="shape=image;html=1;verticalAlign=top;verticalLabelPosition=bottom;labelBackgroundColor=#ffffff;imageAspect=0;aspect=fixed;image=https://cdn3.iconfinder.com/data/icons/geosm-e-commerce/48/logs-2-128.png;fillColor=#3399FF;spacing=-15;" parent="1" vertex="1">
          <mxGeometry x="1105.62" y="535.5" width="45" height="45" as="geometry" />
        </mxCell>
        <mxCell id="ISa7n2zJE7d0IjWUZAvD-190" value="Alerts" style="sketch=0;aspect=fixed;html=1;points=[];align=center;image;fontSize=12;image=img/lib/mscae/Notification.svg;labelBackgroundColor=none;fillColor=#3399FF;spacing=-6;" parent="1" vertex="1">
          <mxGeometry x="1161.12" y="544.5" width="40" height="40" as="geometry" />
        </mxCell>
        <mxCell id="ISa7n2zJE7d0IjWUZAvD-191" value="ESMAC" style="shape=image;verticalLabelPosition=bottom;labelBackgroundColor=#ffffff;verticalAlign=top;aspect=fixed;imageAspect=0;image=data:image/png,iVBORw0KGgoAAAANSUhEUgAAAP8AAABKCAYAAAB0D4IMAAAgAElEQVR4Ae1dCZQU1bkG2ddBwKDgEhOIJkaSvBhfYtRo4vLeyfI0xphnYvJUGGZ6embYl4FhEwGRTUlAkKjgviDgioiARo1ABFRc2FSEoEYjotatqu7q/t75bvWdqe6u6q7uqZEZqDrnTtVUV93673//727/clu0GCwQppAHoQwcgTIQVvoRWOlhgx92eJSBEPwh+EMZOEJlIKz4I7Tiw94/7P1D8IfgD2XgCJWBwCq+WqBFc0wN6QGd5W1IPm7vqrzdfvNzT72vzn7eyfWMyieoc65v+f0tKFqYj99v+n0uKNr8fq+Y5xpS6JaDBVpVC7SpFmjXDFPbaoGWRVT8UYPtMvN9lptn8qBVMRXgeIe0MB+VL/NW+ZLXfuuK+bQdnF4nrasFSLffPNRzzIvvOmkKoq4lPUXwnh2MkjnyJsikaCpGJiS/yOMUvxqDLlUnuc6UE9azr7rOlVG+31gJ3YYJ9J+o40fX6fjhpOaTSO9/Xq+jQ6ENQJVd5m9P1PGDiTrOnKjjjIk6vjNRR/ehAi0qCgeY5HOVQJsKDaeMEzI/mfckHf0n6OgxQqBVlc98qwTaVgp8b7KOMyfZNP5wso5Ta3V0pFD4BRz5UinQtkLgpFEC30+Vl3QFkb5RI9CJYImmRow+G6ajKgV6jRT41jgdp9boOGVMQKlGR98xOnoOFWhDmip98lvRzbJEBHoMFegXFF3Mp0aX/O/C/ClbXnJQlaqvwQJdRwh0HS5wFJ9l8qrzfAD3/J2tbqXA92fpWLvdwhv7E9j2zwS27WseifS+sjeBXuNspnmWU1Uuz2RiROBH03U8vs3ClvcS2JpKG99J4NqlJjpHCwCYyrtaoH2lQP9Jdr6ki/m+ujeB9TssXLzAQFu/IIkKdK4UeHF3Aq/us/N5bV8Cd220cPIEHa1zCYOiZ7BAyyqBDlGB/11sYNkWC5v31JdVlbno894E1rxlYfwTMXxlhEBrn0Bjr9Y+KlD1kIl12y08/Waw6ak3LNzxUhyXLDTQqaqAeuQIMCpw/hwD8/8Wx6rXg6NrzZsWVr5iYcaaOE6doKOdS/2xQSfYfzjLwIULDJw1V8e5Nxu4aL6Bk/gO69NRt3WyXnfh9mOue1JgNZz3ZwNvf5xEczwOiCR61wq0rNC8W0cnDwj+MoGLZxvY8a8EYlZ6qZ/bZeH063S0jeRooZ35pa5bVgj0GiGw6IU4NDM9z/0Hk/jdEhMdSCMr3uX9tHsVAkdHBT7R0uvk2Z0JnHadjjYuwpP2fir/VhUCXxuvY6dLOdMpLO6/ZBKSxitvM9DBJ00cjneuELhpfby4j/p8i41A33HCd0PZImqDb9UbVlb9+fxk3sc+N4Apq2IoGZYuWwR+5yECv1pk4oo7DJw5x8B/zNJx6jQdP56u45q7TfSdossGNms641bxvu4R/FEN59xsYNdH6YKWtyRN5IEDWhLHji0c/BfOMrD9w2zws4KWbLDQUw7RtPxATfWw7co0lN5p4v2DSViJdObs+zSJy2430SHiF/wajq7IBv+6HRa+NVlHm0p/DR0bsB/fqEuAEqiNcZBf05+OodvwdIH2kj8Kb8dygTnrGhf82/YncNbNOtpF/fGqZVSgd62Ojz5PItFIvBIx4NFtFk6u1cHGRvIoNfo+Y5aOXy4wcOwogTXbLTzwjzgWPx/DpQsMOf0ru9/E0cPttZI03qb9k69Xcf6uwH9T8wZ/r0LBP0jgwpkG3nIBP4HLHrf8PhPdyKt8Q3XOzyMCZ0zVwZ45ngAyZaco8Ec8wD/JJ/i5wBcROHeWjk9FOkUUbpaz0MSyZQLjCxOYuz6O7iP9zbHrwL82Hfyk0CqCLtLEcmQ2bqzb8+cb/sFfIdCnVgc7E+fBfAvlE59345UeB57ebuEbE1Lg5yiU040hAr+9w5Qg7zZC4K5NcZwzRcelfzFwy7oY+gwX+PkCAxfNM9A+c+4fgr/Anj8H+FnxpgVs2ZfABXN0tC7X5NzZlcdcteYQvUpgycY4PtXTBUcJ0SEDf7nAOTOzwc/G7c0PEtj+YVKmHR8mkS/x2df3J+TIxllKgn9OAOAnYPZ+Uk9XPnrU729+kAR7eSOe3gDUgd/ndJDTNvb8meDnyIbTw7c+KIxXXI/adyCZ1hkQ/KvfstBvvG4vKnNBtkqgZLSOP95loucIgS7DBZ5+y8KC9XHMfCqGXy80cEw1R3AGrrjVQGd2SM4GwFUwnT2813XY82fN+QlYtvZsAO7YEMfxajHLyXDFz0qBksECA+825WiBAux2NDXws2c5ebzAV2oEOGritClf6lUj5LBz/MqY5I1qABT4ezSw5//CAAbcZaJ3jU1XPnrU78eMFjhhpMA/9lhpdRkU+NduT+B7U3Ww/IXwqvtwgQFLTXz4WVKOaCgXXuDvOkrHVXea6D1KoPMwgQc2xzFnfQz3/COOrhUaOkU0nDXTwOUK/Er+eA7BH2zPrwDM+fvwZSa6VAhQPeXkM4evbSICF8w18Nr+hASEei/z3NTAv+BvcXSLamgV0eRCKRdL86ZyDS2u0TDmfjOtN+Pi5s3PxdFjVMOG/Z/pSVx2i4FOHGkVQlephpJrNbz0tpVWB0WBf1x2z//4axb6jhRoUy7808W1nWs0XDnfABd7VafgBn724rS/uGSxITVQJSMEFr4Qw5kzdPz1+Ti+N0XHccMFLv+rgTNm6NImxSmHIfgDmvOzx1c9GgHMeRuHoufeqKODUz9LI5BKgeOHCdz5Uhxxq/49vu/Mg/k0NfAvfCGOo2kv4EfzoHoZjnzKBEY+aIIaFq4jHBRJfPBZEjc9F0N3gt9Hfl5zfoL/t7ca6MhG1o/mgPQwRQRKSgU2vhNAz+8C/ie3WehXI3xrWCQwSVepwB8WmnifPX9qROgFfmpvTr1OlwA/oVbH8JUmTqnVcf5sHeX3mjhnjoE/3WVKjQqnCSH4U90r52hBLPgR+Kwczh3VQRDrMWD9Tgvf4AptWUrgokL2UFXLTHz8RbIO7FwM4/PMw7kw1tTAT3WkBD+FVIHbzzkqcNI4HT+9ycBP5hg4b66BC+YZ6EsNBN/3kZ8X+A/qSfzmFgMd2WtSzcqFVj9pkEDJAA0b3mmcnr/RwU9tEUeRVQI/mm2g/H4TZ91k4DvTdPSfquPniwxce7cptQA0yMuqr6wbrAi2EGxFczGwQqB9uYZzbjKwuxmr+oIAP3t5DhWpipHztFRrzVb731oSUx6PoWeVvcDXqULgojk63v44AdPRWLAnvHtTHH9/x16AUo3IYQP+lNkrjVRoENOu0k60XKQAu8phRqPiBX6uHVx7p4ETRwscO0bguBp/iZaCJw8TeHmPJUdqiudBDfu/DPBLvtEga7DAqZN0uap/3jwDP51nSKMjrqfQ1NifkQ/VT+UaOg/U0HlAjnSNhu5Xazg/pfP+3EjiUCcu/LDnVEMlVZle56B6fn5zw54E/meRgdWvW6BO1jl8p03AxfMMdLpGw7fHCqx+w5K9vKKLPf2mdxK46DodD22xQGFWx2EDfgVkAj0zqd/ynL3Az0b0b7ss3LclLtP9W+Pwk+7ZHJcLY9RgOEdbzQ785Bt5muqw2aDKdSbndNONt5ktLtUWv1xkSEOKG56OY3qONG11HJNXxVD7iIlxD5sY+7CJmuWHKD1sYvRDJpZujOOTDN20AlLmOSjwK/XeeZN1/PdMHfsP1M/V+E0O55/flcA3RwpMfCQGzlGVsPHMYWvNwzEce6WGR1+zGw9F62EHfjch9HnPC/xSwxK3+cyGt5DEulF1oXiuwN++EFXfoZjz++RbJsbr/q+7SGV0VLmGcY/HpEBS95wrffRFEs/sSODUcQLdIhpKqL6i7vFQpKiGr5Rp+PVtplwkUxWZ6xwk+F/5Z0IaV3AOOfGJmLT2Ut+mcHFl++EtltT5UljVQeF75BULp40RKPmDBq4Q8546QvDXTwm8wK94FdT5jQ8SOGdeYUY+vQ8H8LcYpGHikw7py8FRLnI9t9vC17mgVZ5aK+B6waFIUYEOBP/tJvZ+6kBXDvqDBP+r+xP48VQdbQYI9B0tsGyrvYLsBDobASdlXOn/4GASZ9ygo32pQNf/0/DEthD8mR2S+j8X+Mln8jczOfnvFAXWQ+aztBKkv8ZzuxI4fQqtIX0uRNLI57AAf2kR4HdYHamK+tLPXPQo16Qd/CED/3QdLQcJtCnTcNl8mj1n2/87BZDAH7kshi7lAkeVCXS9OgR/LrnxAj8BzvUeqhAzkx6vn2Ip3hP4BDmf5XxfvqMn8e8vaCWYxMgVMXQpwDtTWvgd0eDPZ8fe0PlJvvebCPilSq9CoPsQgdpHY1Kw2MM4DworFwm5uv/VkQKtybuIQNdrDmPwc0EqU4vkVy+fqnsv8HOa9Od1MVQsMVHOtDSVlpiY+lgM732SXgGsD05ZZz4RQ9lio+6d0qUmLrrJwDEjsg2zcjZKR3zPH4JfulCq6U+rCg29hgg8ti3bzZO9DheVLpxr1Ov/Kw5z8FO1Vy3QZYhAFwacGGy7otLXXOqg2TjkaeC9wE816aXzDXQo1dBioIYWg2xDmValGnpWCsxbH5eNrZoCEPyfGUlMeyKGowdoaHWtJg1rZMNNOwGfw31Fb9jzh+CvB3/K6aJdROAH03Vs3VtvuM8+iKv71Q+Y6EohY6LQH87gJ7AjApcsMHD/Zgv3v2xJleaKVy2U3mfKyDNyVFAk+KWF36IMC79UHbQqF/jBdTqe3ZFuP8EGYO+BJH6/1JRrRTICE+n00Qgp0KtzCP4Q/GngpxDRBJaaj+oHTbzz7yT+9XkS//w0ibs2xtFjWCqCjRK2ZgL+W2jbX6nZIaVY537TAA0j7zelmpN2DFTH0QCKtv0NdemtM+/ltELxkw0JryvtyEY/TwWdcRpWcbrwyr6ENMGuMw3O0wApwDvPXuDn4m3fUQKtqW/3yyc+e62G3y/wYdtfBK1OurNt+4td8AvBnw5+JXwRgeNGC9nDlN5vSjvrb9KvPjMyTzMBPx17epVp6DJQoLPvpKHTVRrG3m1Kq0Y1A2cjQH/+hnr1SfAvNtAxE/wKHDSpjmgYujxlUq0ISNlgEKSnjtftBk29U8DZC/xU235rmEAJDeYK4dUfNVw1LwR/3nlgXUvWVBb8qPLM6H0YN699hR2Fpn3Ejn3I+Wsd7RS0ZgL+rfsSMvrOtNUxME33kaY9FcOkJ2JgeKxE/QxIWjIG4c+fF/yMncBoO0MFbn0+Lv0wnPP/L4wkrmeIrMrUQl9m3eRpCCT4Xfz5d3+UwNx1Np9882p1DJOfiOGBzbT0TNYFGnF17MlDV5p8uT2b9UDY86eD0sk0CoVLMA9a+Ek9//SUvUOm8PB/JmX/kPk7v9HEwM/1CrdgHtRScM1CGn+5qNYyVW3qf3rzcajvPNjzz3k2oGF/rp4/5QDTulzg7Bt1vLA7ff7PgQBjFf7pNroFFxDQNSUbXuCnXNDkvRheaRmWhxL82y30YyQfTg3cZMgpq36uQ/AX58/vjOGXF/x+KqKJgd8rjJcTvA29luBfHwtmzp8H/FLOKwW6VAoZ2IIelXTIUgfrkHXaf7KOdgWCi+A/vlaXaxiOGYXKOpAz1ydkJB8VxsuPTOV7JgR/geAvE7iIzkyOqLZU3TEox9lePX++SuDvKfAz7LPTvJcLhJczgGfmGoFXngwN5hLAkyHAT5MBPP31Glyk+u40XS5SqiFyIFLsyIS94ugVJroOSY2KvMqUus+pUqeIwNyMAJ4c9l/hB/yMQxAVKIlocrrCBVh1sIzSBHtrHF8fZ2sn/PauDOB5zBiBHR/acRhVnkGeSRv9Vo4bo9driPLwKwvbmc9nPRAO+3MP+8sFfjZLl3H6uFrNIR17kQ3vJmQ0FelPXsyQjPH2B2hY8YolAcd8ObxmZOTLbjNlvHpfwsgw0pVCGrbI4WYqH4aVPmWy/7j99Ao7eqiQcehpJCODcKjhfgBnAo8RhRnmiu69fspGt1S6RM9YU+97Qh7tZwO52JAbsOTNh5ujRAW+MVbgvpfj6RZ+WhK7P05i5MMxyE0yMsHi9X+lkIFEhq8wZTxDFbBE8b+hZxokbd6bwC8Ys4CyVYx8udEegr+Anp8MpOBM0jHqkRjo9Tjj6bg8D1tu4qu1KZWOG6Pz3eOiYETDwHvMunxvXBNH7eMxnD7Df7x9qra46s0Y7zc+Y9M265k4Kh6MoVeNbhvU5KOFv9P/Pipw4iiB391hysW9fF6euTxA1W/M44anY6h8yMT3r9fRliMaZeuQhy6Cn7sRXbrYwOy1dtm4mQXr4PRpugxplSXPLnlyBEH9/9kzDExdbedD+kgbRxXVD8VwTI1LqGuXvOT3mF+lkLv9/GqhIXkfBK9IE8s3cmUM58zW0TGqyV2U/JTR1zNZD4U9v3fPr0BRafsRdBok0LlUgGf6FcidZ4ptlVN2AXQj7TRIk/ky7w5lHtqBHILIXpvx7Tun6GM+7cttAXUN6uCRF5+VmoqIIy/fKisPVWCpzTPSRyBnaT08aFFyylBU7SIaOpfZ+bBsHctsXXohefFZ7oLUSeXDcpG2QcXzipaKXC9Iy7Mh/KrjlYZ2tK0oVra8eKqYWncOwZ8b/GQkK0HZqSsrPS8dsxfjve6rfGk3ofIutNKd9Kl8iqUvMy+/xiq5nmO5iqWHfAuCR6oeSYuT1iBpc+Zb7HWxMuAlX877daBXN0Pw5we/4lV4DnnVnGUgBH+Bc/7mXNkh7WFj5ZSBEPwh+LNkwCkg4fXh22BkVXw47PdV2VwMa+yUVTcuQGwMGvx81/nMoabB6/tOGgu5dsvP1/uptRm39xt6z9f3XeQj53tZP4bgzw1+rspX2vvEczOODhGq6IJNzLc9V8K52OO22McFrwohd83ht4OkgQ5HLemfwG/nEybSSF+FiBYYD2RZUmWTZqwsaw466DlJOwFVF3yfHnqMYOvKuxx58XnynLvzdkzVLfNlfp51ofJjPaXopml0UDLB8pC/5LNcmHSTB0VDoecsxobgzylsrIB+E3WMeTQmdbA3rLH1w7b+OoDrNXGpnx+2PCYbALmy7ahUqqgYW+60iTqqHjKlk00gNLAca+IY/WgM583SZdCNnA0AXWUH2/b/0uYh9X6D+bDGjhhdvczEt6/TpUGOpwqvSuDokQLlD5iyLqgT5/cnr4qj/3WF28BTldZjuJAxBmbRjmBNHDPXxjHt6Tg65dpGPGUTcfxogT8tNTGVNgMByQXLRFuP/1lgb7QpGzWHPGTht5Dfsl4Owe8Nfra65QL/NdeQu6/SrJdBIYJOzJc74ZYo9ZCjQqlLPm6YwKLn7RDltE8P6vvc74Amty++ncAFsw07KKtXTxPh7q861u9MyKg4fDcoOlgmWsn99cU4+ozK0YtXCpw0XsfanXa4c36fvOMOt1fMN8BgtIX0/tzcol+NLr0Pae7L/HhmnL8eNTkMuKSFn4bax2LY84ntMxAUL5gPTXu52+9liwy57VYhZcrCt0OWQn/+QvfqU7b9H+YOztkQu24K/2v7LZRwqEcnE1VhNCKpFjh3qo49H9uBKeut0xvyxfp3KWz03Bv/aAwM4173bUVD6syNOocsj8kYhX43San/Su4rlol0UOAvWJAjhHZU4PhxAs/srPeHIO/2Hkjit3820IJhvbwar4zy8Dlue9VvtI4nX7fSCCT4OcJoQWvEzPe49hMV6Flj2/bTQagx6oTbfS/dFJc7EuUckbnQ50azvJf1Q9jzu1aw5BMFKeXS6/TqS5OUAP6hAHM/+25qnqcqlNuiVwn8bLYu7dkD+JRnFjesiaEt55ou4OHiFb3+pqyOp+2665lZkT9wI88rlpjowD343Ob+9KZT4E9tfcaGqFjw05qx7ygd3GbLeaSB340fKa8+Phc08BUddPZa9aaFvoyUzRGhkomGnLMyCcHvzVgH+BmAk0NMHqxwApYV9LmelGGkGUq62ERnlVf3JdA1c9ifAv8Fc9LBz6Ep9wDQDA7bC/suh5QGtxfLkNoZz8TQjot/bsI+mCa2AtevjqdtjcY8OGpgnoWUnTSTdrljsYOODz9P4neMsecGftLVSOBnZB/nkQ/8R1UI9HEJ5sHyiAJ5Qb5RhshHjn7UkRbMg3LhUi9ZWM7XMGS9EIK/YPAT+HS9nb8uhrHLTExYGcOER4pPkx6LoeI+U25omdbjeYCfgrJlbwITVpioXW76/zbpXG5i5Za4bACUoPF8Qz7wlwtc/1Q6+EnHU9vimPRIDOML4EHtChPjl5uyDMxDHRL8Xj1/EwK/VzCPN99PYMaqmC0PPvlBvtUsM3Hvhjg+0+sbgDTwFxhvIAvjqlHI+iEEf8Hg5whg2/sJnD9VR0mZQLcqgW7VDUiD7RDXWdsqe4CfUV8YFLR3hUA3Jr/frhLoExEYdq8pe2oFOp4JfnrcefX8bV3Azx5/wooYjmf5Kwugg3HvI0LuY+CM9kPw/28z6Pm9wM/YDP3HCPQgL/zKBIO+DtIw4FYTLD93EeJB8K/dYeGUialhf9jzO+Y+hzqG3z/t7bpalKYcTzhHLTSxQp1JtdDq7AF+RsS5a6OFLlwjYFI6bmdemdcp2rqWCwy+x5RDTVvM7L/FgJ/D97HL7Vh4clHKLx0VAp0jQu6YyxgJaqNNzt2vVOAn/YoPPPP/JjLs9wL/49ssfH10KkpzIbIwSMNvbzGw61+JungDjH+w8lULfRnJx48NhpNXXtdpDOVDYc+fLmROxlHgvGL4EfzTdHvDCD9CnwlG53e8rnOA/26Cn8PBQhaDqgW6RoIF/7gVMTnySJuueJVH3Wcsg0qBqmUm7tscx71b4nhgaxy3b4jjrLmG1PVnzXGbAfhl6O4xtlu0rwZZyURUoNcogbNn6jKO4rkzdZw3R8fpU3W0HxrQfJ+8D8FfgG2/B/g57GcYr3Om6OhE/236v7M385E6RW3B97VrTXMCP3mlwJ3vzGAY1QLdRwn0rrFTn7ECx9UIdB4u3P3Ymwn4vzWKYcP8yUKdvEQESsoFupcJdB8k0LVUkxuLtKmw94Lwzdd8fM/KKOz5vYXWA/xc8KNxR+2KGK661cDVtxm45nZ/acASE7+Yb6DbiNRwPVeFHa7gZ5nJW46YOKRVWg5e854bT5oB+Le8l0D1vSauvt2Qya9MZD73q78Ycu8HrrPQnNmVH248yncvK6MQ/N7M9QA/12TYAFCt85lIyl1pGFTST+LOsM/tTuB0mqPmU+EczuDPJ6iZvzcD8HNEKNWvPmXBS164lfzL71n4PrdyZ4PIsmfyo5j/szIpEPzP7rLwtXGpePWqpWbr9GWnKENeafjN7Sb2fepQkDpXsTKuydRjC7Xwc5nzZ2Rb0L9Ubb20J4HvEPxcrMtVsSH464W+iYGfen7aAzTGQfsJbix607o4enKESJwVA/bMd7IyKQD8FNx1O+0VzQ4DNRnHjgYZhySVaeg2QMOltxkyci174ZwpBnxwMIk+tTTPdDfbzOINBa4RwP/3d+148SH4CxDqpgR+LtCNtSMmcwTYGAcNyJ5sShZ+LOjr7ydw7X0mfrnYwCW3mbj0ECV++xeLTVQvN3HPpjhWvGzh4Rxp5RYLK7Za6Dm6gB1aGgn8m95L4LtTfHihhT1/fY/XhMDPnrhztcCfn4vLMO6NAn4aUL1loR/Ne5uCkQ/ND9kicbjz/mdJ0Bb7UKb3DiRx72YL/Wp19Bos0GuYdzp2uJBDKDpz5BxqO4dKHuAnH6ifpkPInS/Fcc9GC/dsyp/u3WTh7o1xXP9UDCdy6pRvOHe4g5/8dUvOOlDXTQn8dApiSPcJOsaujOGuDRbu3RSXnZAfOUh7ZqMtQ8/tTEh7B2V23eQs/BqjhWtInjQOeXCrhePG0PU2FQ+egHJLak2CQqQEKt+Zz7oM+5WF3wXTdPQapOG4SoHeflKVQG/6kA8WoDtp3kboMAY/LQnbMjAHVZ9RDR2imgyqQWcbOhJl1VFTAj/pqxI4qlxIWwvW/fGVGvr4kYGMZyg7vUo1DFxoyI5UeUyG4M/TMijwU1ecd+XcTaDy3fMAv9qr7+xpOlqV2f7n1Fv7StxCKhUSLEvAM+k5XMFfZcfw7z9Dx0W3GPivhQZ+eauB/15o4MSJHrsMNSXwpzbtOGaIQK9qgV5VAsdWCxzNckUFWvuVBT5XJdCqVOCqEPx50J7xcxb4M8HT0P/zgP/H3KuvzEcPXiwd+cBPbYGaD5LWfKlKIGjzXmnh5xxV5aOBv0eFDJv1l7/FsOujhLSZoGkvDacu+avhvnEm38th3nv5PAMtBqZcgf3QwGg8lQJ9RwoU6tXHEF89xggseiGOJS/FcduLdhq6LIZjRjiCkfihg7wbKPCHhWbY82fgO+e/TQL8jH/HSi4W4Lne8wA/HWro2NM9okk/ew6ffaVKWpFpGBKQbT/dUcctj6Fnpd2T+6KBtFYIdC+3bfs1s15dRseWK+8szqX3ipsNtBmgyV2B/NLRMSpwyghRsD8/N/88aYIuow85BfSpNyx8c6wuYwD6pYG7GLUp1fDHsOd3sjL/9ZEKfi66Ln/FwpnjdfQfr+M7E/2nM2t1THkkJtWiTg4X49hD/s9eHcMPJ+roP8E/DaSZdCx/JZ62Q3FRLr1JyMXnqiUmTq/R0b8AXnxvgo6Lp+t4dkcw/vzP7kzg4hsNMF+/dUJ6Sffwe0xwg07l0x/O+Z3S6XJ9pIKfKld6ff19dwIv7k7g72/7S/LZ3QnpPcbAE87Dlz9/RjAP0vHOxwm89LZNh19a+BwTy+DUk+cEP0dIqWE/Y/gRHDy4Os5r+tI/v9M/PxQvNr2bAK0unUe+YB5eXn3M5x/vJgqqF9JBurd/kIAZrw+yEoLfWSMu10cq+F1Y0eBbfiP5OMHa4I9mZCDBr1x6ORfOnBJFBU4YJ2QATwX+jCwC+VeCfxQbG3djMIK/MS38WIg68NOlN58ZeCafvF5omzgAAANWSURBVP7PYuggDROfjAXCtC87ky8F/GUCF84y4Izhp1b75YJfY8/5qwV+NtPA/gPpvVPQvL5+dQytGT7LRXCoemsTEVJOGiNgpSoLoyP9+nYDHQg6t3UUqslqBNZsrw/gqd4N8izBP8zbXVr1/By5KL18kN9nXpTtR7dZOLm2EWP4tSzTMGlV8wX/8lctHD82QPtnp/BTAMsELp5TD35CkMOzV+nSe0PKx8FNUJ35FHtNY5JqgdPG6Vi33Q5XzUgvFLggEueXNNnmSvvVd5j25h0etB4V0XD5YgO7PkrKXonvBkED82CZuI6xdruF/tfrcp8CV/Az6s1ggemrYvjo86SMqRgUDZKOBGR0YgbloLutpxFWpUDXoQIPbrHk80HygnSwgWX5ah6JoYT+/G6jII96cmu86+7VXaRebhURGP9ETK5cMnY6nV+aRRK2deFjr1s4sTZHRRXDJPUOQR0R+MlMHS+9a+H9gwm8fzApz+t3WjiTwTzyOeeovIo80ximQ1TITRwY1mnfgQT2H0zKGILsKYtN+1PvMhbgsIdN9Bltz6ldQUfaowLHjhSoejCGze8l5HcDoeNgUpbp2Z0WfnOrgY5RzduNNbWByYljBOasjcu9DlgfxfJAvUdeMO35dwJLN8Rx5nRd6us9QSc1Fhr+8wZdhiLb84ldJ0Hwg+WhCf3stXGcMMbexMSzTgqVqUzws1K/MlpH30k6Thyv44Rmkkjr1ybq6FWj+7OWK5RR6nlaoQ0RchMH6nZlqhHoPkagLZ8JqlVW33M5t2Tkm6hA1+H297uPFggkjRHoNpKNiyZ13jmFLKUX57MlI+3ykwcNpiPFU5aNZcznv87GsHVUoDN37xkVMD9G27sSyViGeepVWihWaOg8JMWLgOqE8tVtlEAnlrNCuMZUzMKwi8y4PpN1M7UXXStGDYk0s0TmRANmkBsjaXJKk2HORZmiWv693NzyKfYeRyAURi78KBqCOtPDkWXzM3XhM3yW7wT1fZUPy8YyHko6FC/yAL8OQ3yuMfih6PDDi0Jkqo5wt5f4seaU3MoQ3nNdtMtZ7yHPjgyehULgokIKhf/IEP4jvZ5D8IfgD2XgCJWBsOKP0Io/0nu9sPwuobtDpoRD3lAGjggZ+H/G3+oaLSzueQAAAABJRU5ErkJggg==;spacing=-4;" parent="1" vertex="1">
          <mxGeometry x="1221.62" y="547.02732079906" width="75.6377790834313" height="21.945317273795546" as="geometry" />
        </mxCell>
        <mxCell id="ISa7n2zJE7d0IjWUZAvD-192" value="" style="rounded=1;whiteSpace=wrap;html=1;labelBackgroundColor=none;fillColor=none;" parent="1" vertex="1">
          <mxGeometry x="1040" y="457.5" width="288.62" height="140" as="geometry" />
        </mxCell>
        <mxCell id="ISa7n2zJE7d0IjWUZAvD-194" value="" style="shape=image;verticalLabelPosition=bottom;labelBackgroundColor=default;verticalAlign=top;aspect=fixed;imageAspect=0;image=data:image/png,iVBORw0KGgoAAAANSUhEUgAAAOoAAADXCAMAAAAjrj0PAAABC1BMVEX////iQyn8bSb8oybgMQn419PgQCn9pybiQCX8YQD9bSbpTyj8nADgLQDjRCnhOx3xXCfhPSD3ZSbhNBD8ah/+9PH8aybhNhX8ZhP2ZCb++fj0wbv0YCfrUij8ZhH8XgDpe23tmI776ef2zMfwpp3riX3wrKT7fUjydCf5nCb8oRzocmL64t/lWEPytq/1yMLtkofjSjLnalrkVT/mYE37m3j/7+j9p4b7jGL+2Mr3kibwaCf9uZ/+27T9yY3+4sP8q0DqgnXvSQD7dzz8wa79zb77k2r8ekH6glL8oH38sJX+4df2hib8vKj0iCf3lSf2iwD0iET+7Nj9wHj9tmH8sVH+3bn9vnL+0qI/tWgxAAALqElEQVR4nN2de0MTuRrG27QMzFB6o5S2lharK1jQXd3lIuguexBlV9FzXHX5/p/kzLSd6XRye5O8mYu/vzXkSZ558+SClkoqDCbHawOlv2GNweTR2o611o/3G1vVavXlmrWfAGbtaNvvytbRsZ3mH2816mWf1ta+nR8AZnC01SrPu/LERvuPt8ohu/s2fgCcZ42oK1vP8ZtfWyr1f8DP+D8AzsPteFfwP9j9Vqz9jRfo7SsQH/Ry40/s5nfiI+mPZYalaa260pVt7Gl9srvSfuMX5PYV+KWx0pVd7K/12cZK+1k6+EWiK7/hNn+88n1k6uA1qiu4i2vCNL6DH6K2r8BDqiu4H9N2ovnyRhm1fQXKG8m+bGM2/4CSmpmDKf/6Uh8gtv+yRbWflYMp//rx8CVe8xN6JDOrwS8o//oOm6A1/3iXbr5ctbSrEHNcZXRl9zFa+y3GSGK2rwBz1DfqWM0/Yo1keeNXrPZVeMYa9XL1EVLz+3RRmn0hGTiYijJzWvs4ze/QK01mDmb6t4yW+Z9wms/Cwb8y/YuW+XnNY9Z4IKxVbz7szzCaZ8STcCitHOyI4BkMqXD8RMeTcCiRt09yfuMZDCXzDzhFaTaUKTuY699yub5r3jwj6Uek7WC+f1EyP98z6TtY1BfzzM9ZsxdYOJkUsCPui+nXxNgzxUA/whLyXOBfhESzWxc1j7lTlMPYNcfYaJm1/jMz6S+ppuhgXkCN+mKW+Y+EA+nXvRQd/Fwi1SzzTySTWm4dIekAIBt2s8zP20gsSa8GD4T1N8BomWcd5CRGEvO0Togoy8wx2Wrxk35Eeg6W+tco8/8pXFQX05rS2whRFg9p/KTduvRLLafnYLl//czf0B13WXWfgXWsI4NzwIU07qJ0HWs+FQeDHKad3sRJ33wklYD4t6yd+amLRs5I7uOKYgPyr/ZNkjjpx0YSWRUTmMPKGxs6jT+QhcKQ7RRe9si2HRFamR+wZM/Bf05DA1nhZ+h8ToIjqwT1lvUaPGgBPyatbaU86S9bx7oc4sK+IGOikfnroEV1hn4eg8I/i6ZQv+JWGEd/JG3IiwNdDAKUH2kA17E5th2sNO6qHpOd45i1roqCf9Uzv/gcMgneBT0b+qmSCMWkyr6H51K1+ohpTcW/qpkfmPQj7D4kBYbxCKXMr9q43Wd4av5VzPwNheI+w+YzPMAJ1yoqmR+4OYxh8xme+NqIhcLiJ74cYWGzBqv6VyXzw5P+Ens1mPnUTtYbaOZXd4xNB+v0Bpz5mU8KJdh7xMR9SyTqDTDzKyXOCFvP8FSX+EVvYN+TUtKPaFh6hqewb473BpTK1ZJ+hK2n0PIbMhawzC96MSPCjoP1/Au849YpAwF2HpLq+Rf2zkg5hkWNo7xoTKK4xVoCyPxK2+AVqhae4UlfKHCRL/QD5aQfa3wNHZ38MEceVUEXjTytVXS0lfomk106vNT9NnKHLPPr1vY8Inl8o/9t5A9J5tcvSvlDnN/Ad3uFQLiHBl80FgJR5tdfsPPJLj/z6yb9vCLI/OoHVvmGn/m1k35u4W4swQ8OCgMv88MefBUKXuY3Sfp5hZP5YU8KiwX7ufLxfzbrjpN131BxnPrWKUPqWY+QbvOHkevL3Bt2yeg1Q6rnkRnt5mbh1TrOZrM9U9O5ppW+cklEt9BqnfLmcKnFpZfWwL9LvG6zXkix/nwO40JI729K6rVHErSLN7VOvdlNqOgcJJVOxkmlMyMXaWr9Ce1T80XIOHnu8nbEkOozLIpYx9lLTuic0U1C6rsOWyrx+psFEOuUm4wJndH7KyG1x/uTRRDrC+X2nniJ5ebU5f9ZknMbO45AqI+7ehbxSiyVkPwWKN43upT6YUXqHacqxdjLpVZnsy3r+OitIECwaefvk3XqQ3m/EyHilleAV2jmTKuzxy+mSzrvVqQegKSSbp4m1qm3IUqTeYmA/pJfufMzsc4erMuk8z6udAD4VBd081KKh8DZ8WcxvtrsyNaaOHkoxc6mZIWJM9rRleoNM9cqCQ0J3BWprH0Nn4xN7Ncjpe662rMakKWJnU3FzppJzdDEauY1l5qZiVXNS0uVR2CaLEysbN6AlQpcuoQuUjEyiBMOdwMu6ifRCYYJ2umaWMe8hAqGsLhPk2Ym1jJvIPV2RSpkE8ckPRNrmXcmdfVw6bVOXZqRkok1zRvQW722kR648PHSMLGzqTmlhDodnehLTaMSa5s3IHlrYyDVN7FlofrmnUldVVo61yzBC2yaWLfyLkgUYNCRoQiLJjYyL2FcxX0wcjCxV4nrfcOOua8SUksds7EjdkxsaN6AEfXQ8MTsYyVWTKy+YaPonCeVlm5MHUwsmNjUvIQ62w8YjIwdTHBNbBIblriMF/zmDiaoJkYwL2H6F6EGz2ljvf5HMK+Pm7wzn3GNMa0Ex8RK57wCvA5LKfc5hHLz5ibGMS9hPuWZYb60Luibmpj1UkULl/XE0OdvpGklZiZ26jjmJdR9YwwXazBNTAy+YQMw5kyqyVkETV9XqWG6j8OfVPg1KwSt0wnDrWkC3pcagJEOIzRMjGlev/ye8ZXqH5KyUc3EmOYN1lThP5ggeaqljIqJcc3LC0pL7nC1KpgYYWu6Qo+Vfi1aGG5itIC0QGLfgB3Bw0o9ICbGNq+/pFLnLDSv1B4LyAGYGNu8/o5cWH1DXiOXJrmJsc3LOBHlcIIYmhaITIxvXtKRf6gLznXv5fjwTYxvXuL1BDEpwS2+Vp6J8c1LvMQLYDEH+FqZbycsmNdXCii+8XnF/14ZD4AsmFdZaan0Dr0O0w+AcDPvHHWlpdIZ9voaEDexDfOSTk/lOw15O0bOiAFDq+YlHQKvvXE+EAvFKVxiLVRefzNzq/tfAAzOLXywiyXWhnld+n4GzmvXgon9JdaGeXvXeuYNsWFibwj6TQrFRt0TI6ElGybuHlYO8VOv7MwBxB3e8XBA++N6Zf0T+JcMYIzem5k35IOHZ+Ju+/N6pVJZf9pHO8L3zTtO/uKmPmjRyTdvoDQQi2fiDvXbuCbcocQJLzBvyPonpEuokWHlTYJRibvti6XSwMSXCCb2XNDRihLGJu5ePo0rDTA3Ma55Q8wysdc+TAqtmFfi0QGueUOOr/VN7PU/0UpNTWzDvCHaJvbNyxBqWIlxYgOPt3qZmGVe40o8OrD7P/pOLtVN7A2Z5o20ftaJE97YnnlDTlRN3O1TlTehtXKpbOJOT/1cRR1FE7cPhTrnYj8Cfj0+zug2nf+OeqJSiYcfxVMamnioYGJvzHmOZAGwibvDzxClAfBVp9NJw7whN7A40b4E6lQxcVrmDZlcA87EYeaNtF5ATOy56Zk35GQsWQ695oWKUpiJ0zVvyI24Ere5AUkwsR8lccJN2bwhk/cCEw8FAUmg9UIUJ9KsvEn+4h07aZg3hG/ibMwbcjNimrg7VDdvNLGHnPfd7nkq/4M6l1NWJe5rmTfSesHaxHbGrH9SM13Okib2msJ0D4E2cY/o3LBhk6jEvnlNldImztq8IacHMRObmTfSumLijpu9eUPOojjRVApIAmInMfkwb8jCxN0mON1LiUycF/OG7AQm7l9W0JSGJzEd9y5rbRRnYzTzhjztd/Jl3pCb/yIrrVSm/8O7d0Llvoat9MrOgTYCXypTTKW1f7IWJGDwFW9ip7U3WcsR8zuW1mnlS9ZaZHyZopi49jVrIQB2viFMbO0+axkwjE1cAPOG/GFm4trXfCVBITtXBhNb+z3r7qvxj67W6fSPrPuuyvealolr37I5/TTi9EpDa9HMG/KvqomntcKZN+SNmolrVwU0b4hS/i+qeUPA+X9a+551X00BbmJzvDWFA8r/ud6awpFvYnO/NYUjyf/Tq8KkeznC/F/7N+vuoSLYxBZlawqHY+ICbU3hME1ciHMVdU7pTeyPZ96QxCZ2Ov0BzRuysomtfSvQuYo6SxNPi57u5dxXatPptFb79gObN+LLm/v77xmE+/8DKU9nJEngm3UAAAAASUVORK5CYII=;" parent="1" vertex="1">
          <mxGeometry x="518.67" y="392" width="32.66" height="30" as="geometry" />
        </mxCell>
        <mxCell id="ISa7n2zJE7d0IjWUZAvD-195" value="&lt;font style=&quot;font-size: 11px&quot;&gt;main&lt;/font&gt;" style="text;html=1;strokeColor=none;fillColor=none;align=center;verticalAlign=middle;whiteSpace=wrap;rounded=0;labelBackgroundColor=none;fontSize=8;" parent="1" vertex="1">
          <mxGeometry x="618" y="464.5" width="40" height="20" as="geometry" />
        </mxCell>
        <mxCell id="ISa7n2zJE7d0IjWUZAvD-196" value="Enterprise Analyzer" style="shape=image;verticalLabelPosition=bottom;labelBackgroundColor=#ffffff;verticalAlign=top;aspect=fixed;imageAspect=0;image=data:image/png,iVBORw0KGgoAAAANSUhEUgAAAP8AAABKCAYAAAB0D4IMAAAgAElEQVR4Ae1dCZQU1bkG2ddBwKDgEhOIJkaSvBhfYtRo4vLeyfI0xphnYvJUGGZ6embYl4FhEwGRTUlAkKjgviDgioiARo1ABFRc2FSEoEYjotatqu7q/t75bvWdqe6u6q7uqZEZqDrnTtVUV93673//727/clu0GCwQppAHoQwcgTIQVvoRWOlhgx92eJSBEPwh+EMZOEJlIKz4I7Tiw94/7P1D8IfgD2XgCJWBwCq+WqBFc0wN6QGd5W1IPm7vqrzdfvNzT72vzn7eyfWMyieoc65v+f0tKFqYj99v+n0uKNr8fq+Y5xpS6JaDBVpVC7SpFmjXDFPbaoGWRVT8UYPtMvN9lptn8qBVMRXgeIe0MB+VL/NW+ZLXfuuK+bQdnF4nrasFSLffPNRzzIvvOmkKoq4lPUXwnh2MkjnyJsikaCpGJiS/yOMUvxqDLlUnuc6UE9azr7rOlVG+31gJ3YYJ9J+o40fX6fjhpOaTSO9/Xq+jQ6ENQJVd5m9P1PGDiTrOnKjjjIk6vjNRR/ehAi0qCgeY5HOVQJsKDaeMEzI/mfckHf0n6OgxQqBVlc98qwTaVgp8b7KOMyfZNP5wso5Ta3V0pFD4BRz5UinQtkLgpFEC30+Vl3QFkb5RI9CJYImmRow+G6ajKgV6jRT41jgdp9boOGVMQKlGR98xOnoOFWhDmip98lvRzbJEBHoMFegXFF3Mp0aX/O/C/ClbXnJQlaqvwQJdRwh0HS5wFJ9l8qrzfAD3/J2tbqXA92fpWLvdwhv7E9j2zwS27WseifS+sjeBXuNspnmWU1Uuz2RiROBH03U8vs3ClvcS2JpKG99J4NqlJjpHCwCYyrtaoH2lQP9Jdr6ki/m+ujeB9TssXLzAQFu/IIkKdK4UeHF3Aq/us/N5bV8Cd220cPIEHa1zCYOiZ7BAyyqBDlGB/11sYNkWC5v31JdVlbno894E1rxlYfwTMXxlhEBrn0Bjr9Y+KlD1kIl12y08/Waw6ak3LNzxUhyXLDTQqaqAeuQIMCpw/hwD8/8Wx6rXg6NrzZsWVr5iYcaaOE6doKOdS/2xQSfYfzjLwIULDJw1V8e5Nxu4aL6Bk/gO69NRt3WyXnfh9mOue1JgNZz3ZwNvf5xEczwOiCR61wq0rNC8W0cnDwj+MoGLZxvY8a8EYlZ6qZ/bZeH063S0jeRooZ35pa5bVgj0GiGw6IU4NDM9z/0Hk/jdEhMdSCMr3uX9tHsVAkdHBT7R0uvk2Z0JnHadjjYuwpP2fir/VhUCXxuvY6dLOdMpLO6/ZBKSxitvM9DBJ00cjneuELhpfby4j/p8i41A33HCd0PZImqDb9UbVlb9+fxk3sc+N4Apq2IoGZYuWwR+5yECv1pk4oo7DJw5x8B/zNJx6jQdP56u45q7TfSdossGNms641bxvu4R/FEN59xsYNdH6YKWtyRN5IEDWhLHji0c/BfOMrD9w2zws4KWbLDQUw7RtPxATfWw7co0lN5p4v2DSViJdObs+zSJy2430SHiF/wajq7IBv+6HRa+NVlHm0p/DR0bsB/fqEuAEqiNcZBf05+OodvwdIH2kj8Kb8dygTnrGhf82/YncNbNOtpF/fGqZVSgd62Ojz5PItFIvBIx4NFtFk6u1cHGRvIoNfo+Y5aOXy4wcOwogTXbLTzwjzgWPx/DpQsMOf0ru9/E0cPttZI03qb9k69Xcf6uwH9T8wZ/r0LBP0jgwpkG3nIBP4HLHrf8PhPdyKt8Q3XOzyMCZ0zVwZ45ngAyZaco8Ec8wD/JJ/i5wBcROHeWjk9FOkUUbpaz0MSyZQLjCxOYuz6O7iP9zbHrwL82Hfyk0CqCLtLEcmQ2bqzb8+cb/sFfIdCnVgc7E+fBfAvlE59345UeB57ebuEbE1Lg5yiU040hAr+9w5Qg7zZC4K5NcZwzRcelfzFwy7oY+gwX+PkCAxfNM9A+c+4fgr/Anj8H+FnxpgVs2ZfABXN0tC7X5NzZlcdcteYQvUpgycY4PtXTBUcJ0SEDf7nAOTOzwc/G7c0PEtj+YVKmHR8mkS/x2df3J+TIxllKgn9OAOAnYPZ+Uk9XPnrU729+kAR7eSOe3gDUgd/ndJDTNvb8meDnyIbTw7c+KIxXXI/adyCZ1hkQ/KvfstBvvG4vKnNBtkqgZLSOP95loucIgS7DBZ5+y8KC9XHMfCqGXy80cEw1R3AGrrjVQGd2SM4GwFUwnT2813XY82fN+QlYtvZsAO7YEMfxajHLyXDFz0qBksECA+825WiBAux2NDXws2c5ebzAV2oEOGritClf6lUj5LBz/MqY5I1qABT4ezSw5//CAAbcZaJ3jU1XPnrU78eMFjhhpMA/9lhpdRkU+NduT+B7U3Ww/IXwqvtwgQFLTXz4WVKOaCgXXuDvOkrHVXea6D1KoPMwgQc2xzFnfQz3/COOrhUaOkU0nDXTwOUK/Er+eA7BH2zPrwDM+fvwZSa6VAhQPeXkM4evbSICF8w18Nr+hASEei/z3NTAv+BvcXSLamgV0eRCKRdL86ZyDS2u0TDmfjOtN+Pi5s3PxdFjVMOG/Z/pSVx2i4FOHGkVQlephpJrNbz0tpVWB0WBf1x2z//4axb6jhRoUy7808W1nWs0XDnfABd7VafgBn724rS/uGSxITVQJSMEFr4Qw5kzdPz1+Ti+N0XHccMFLv+rgTNm6NImxSmHIfgDmvOzx1c9GgHMeRuHoufeqKODUz9LI5BKgeOHCdz5Uhxxq/49vu/Mg/k0NfAvfCGOo2kv4EfzoHoZjnzKBEY+aIIaFq4jHBRJfPBZEjc9F0N3gt9Hfl5zfoL/t7ca6MhG1o/mgPQwRQRKSgU2vhNAz+8C/ie3WehXI3xrWCQwSVepwB8WmnifPX9qROgFfmpvTr1OlwA/oVbH8JUmTqnVcf5sHeX3mjhnjoE/3WVKjQqnCSH4U90r52hBLPgR+Kwczh3VQRDrMWD9Tgvf4AptWUrgokL2UFXLTHz8RbIO7FwM4/PMw7kw1tTAT3WkBD+FVIHbzzkqcNI4HT+9ycBP5hg4b66BC+YZ6EsNBN/3kZ8X+A/qSfzmFgMd2WtSzcqFVj9pkEDJAA0b3mmcnr/RwU9tEUeRVQI/mm2g/H4TZ91k4DvTdPSfquPniwxce7cptQA0yMuqr6wbrAi2EGxFczGwQqB9uYZzbjKwuxmr+oIAP3t5DhWpipHztFRrzVb731oSUx6PoWeVvcDXqULgojk63v44AdPRWLAnvHtTHH9/x16AUo3IYQP+lNkrjVRoENOu0k60XKQAu8phRqPiBX6uHVx7p4ETRwscO0bguBp/iZaCJw8TeHmPJUdqiudBDfu/DPBLvtEga7DAqZN0uap/3jwDP51nSKMjrqfQ1NifkQ/VT+UaOg/U0HlAjnSNhu5Xazg/pfP+3EjiUCcu/LDnVEMlVZle56B6fn5zw54E/meRgdWvW6BO1jl8p03AxfMMdLpGw7fHCqx+w5K9vKKLPf2mdxK46DodD22xQGFWx2EDfgVkAj0zqd/ynL3Az0b0b7ss3LclLtP9W+Pwk+7ZHJcLY9RgOEdbzQ785Bt5muqw2aDKdSbndNONt5ktLtUWv1xkSEOKG56OY3qONG11HJNXxVD7iIlxD5sY+7CJmuWHKD1sYvRDJpZujOOTDN20AlLmOSjwK/XeeZN1/PdMHfsP1M/V+E0O55/flcA3RwpMfCQGzlGVsPHMYWvNwzEce6WGR1+zGw9F62EHfjch9HnPC/xSwxK3+cyGt5DEulF1oXiuwN++EFXfoZjz++RbJsbr/q+7SGV0VLmGcY/HpEBS95wrffRFEs/sSODUcQLdIhpKqL6i7vFQpKiGr5Rp+PVtplwkUxWZ6xwk+F/5Z0IaV3AOOfGJmLT2Ut+mcHFl++EtltT5UljVQeF75BULp40RKPmDBq4Q8546QvDXTwm8wK94FdT5jQ8SOGdeYUY+vQ8H8LcYpGHikw7py8FRLnI9t9vC17mgVZ5aK+B6waFIUYEOBP/tJvZ+6kBXDvqDBP+r+xP48VQdbQYI9B0tsGyrvYLsBDobASdlXOn/4GASZ9ygo32pQNf/0/DEthD8mR2S+j8X+Mln8jczOfnvFAXWQ+aztBKkv8ZzuxI4fQqtIX0uRNLI57AAf2kR4HdYHamK+tLPXPQo16Qd/CED/3QdLQcJtCnTcNl8mj1n2/87BZDAH7kshi7lAkeVCXS9OgR/LrnxAj8BzvUeqhAzkx6vn2Ip3hP4BDmf5XxfvqMn8e8vaCWYxMgVMXQpwDtTWvgd0eDPZ8fe0PlJvvebCPilSq9CoPsQgdpHY1Kw2MM4DworFwm5uv/VkQKtybuIQNdrDmPwc0EqU4vkVy+fqnsv8HOa9Od1MVQsMVHOtDSVlpiY+lgM732SXgGsD05ZZz4RQ9lio+6d0qUmLrrJwDEjsg2zcjZKR3zPH4JfulCq6U+rCg29hgg8ti3bzZO9DheVLpxr1Ov/Kw5z8FO1Vy3QZYhAFwacGGy7otLXXOqg2TjkaeC9wE816aXzDXQo1dBioIYWg2xDmValGnpWCsxbH5eNrZoCEPyfGUlMeyKGowdoaHWtJg1rZMNNOwGfw31Fb9jzh+CvB3/K6aJdROAH03Vs3VtvuM8+iKv71Q+Y6EohY6LQH87gJ7AjApcsMHD/Zgv3v2xJleaKVy2U3mfKyDNyVFAk+KWF36IMC79UHbQqF/jBdTqe3ZFuP8EGYO+BJH6/1JRrRTICE+n00Qgp0KtzCP4Q/GngpxDRBJaaj+oHTbzz7yT+9XkS//w0ibs2xtFjWCqCjRK2ZgL+W2jbX6nZIaVY537TAA0j7zelmpN2DFTH0QCKtv0NdemtM+/ltELxkw0JryvtyEY/TwWdcRpWcbrwyr6ENMGuMw3O0wApwDvPXuDn4m3fUQKtqW/3yyc+e62G3y/wYdtfBK1OurNt+4td8AvBnw5+JXwRgeNGC9nDlN5vSjvrb9KvPjMyTzMBPx17epVp6DJQoLPvpKHTVRrG3m1Kq0Y1A2cjQH/+hnr1SfAvNtAxE/wKHDSpjmgYujxlUq0ISNlgEKSnjtftBk29U8DZC/xU235rmEAJDeYK4dUfNVw1LwR/3nlgXUvWVBb8qPLM6H0YN699hR2Fpn3Ejn3I+Wsd7RS0ZgL+rfsSMvrOtNUxME33kaY9FcOkJ2JgeKxE/QxIWjIG4c+fF/yMncBoO0MFbn0+Lv0wnPP/L4wkrmeIrMrUQl9m3eRpCCT4Xfz5d3+UwNx1Np9882p1DJOfiOGBzbT0TNYFGnF17MlDV5p8uT2b9UDY86eD0sk0CoVLMA9a+Ek9//SUvUOm8PB/JmX/kPk7v9HEwM/1CrdgHtRScM1CGn+5qNYyVW3qf3rzcajvPNjzz3k2oGF/rp4/5QDTulzg7Bt1vLA7ff7PgQBjFf7pNroFFxDQNSUbXuCnXNDkvRheaRmWhxL82y30YyQfTg3cZMgpq36uQ/AX58/vjOGXF/x+KqKJgd8rjJcTvA29luBfHwtmzp8H/FLOKwW6VAoZ2IIelXTIUgfrkHXaf7KOdgWCi+A/vlaXaxiOGYXKOpAz1ydkJB8VxsuPTOV7JgR/geAvE7iIzkyOqLZU3TEox9lePX++SuDvKfAz7LPTvJcLhJczgGfmGoFXngwN5hLAkyHAT5MBPP31Glyk+u40XS5SqiFyIFLsyIS94ugVJroOSY2KvMqUus+pUqeIwNyMAJ4c9l/hB/yMQxAVKIlocrrCBVh1sIzSBHtrHF8fZ2sn/PauDOB5zBiBHR/acRhVnkGeSRv9Vo4bo9driPLwKwvbmc9nPRAO+3MP+8sFfjZLl3H6uFrNIR17kQ3vJmQ0FelPXsyQjPH2B2hY8YolAcd8ObxmZOTLbjNlvHpfwsgw0pVCGrbI4WYqH4aVPmWy/7j99Ao7eqiQcehpJCODcKjhfgBnAo8RhRnmiu69fspGt1S6RM9YU+97Qh7tZwO52JAbsOTNh5ujRAW+MVbgvpfj6RZ+WhK7P05i5MMxyE0yMsHi9X+lkIFEhq8wZTxDFbBE8b+hZxokbd6bwC8Ys4CyVYx8udEegr+Anp8MpOBM0jHqkRjo9Tjj6bg8D1tu4qu1KZWOG6Pz3eOiYETDwHvMunxvXBNH7eMxnD7Df7x9qra46s0Y7zc+Y9M265k4Kh6MoVeNbhvU5KOFv9P/Pipw4iiB391hysW9fF6euTxA1W/M44anY6h8yMT3r9fRliMaZeuQhy6Cn7sRXbrYwOy1dtm4mQXr4PRpugxplSXPLnlyBEH9/9kzDExdbedD+kgbRxXVD8VwTI1LqGuXvOT3mF+lkLv9/GqhIXkfBK9IE8s3cmUM58zW0TGqyV2U/JTR1zNZD4U9v3fPr0BRafsRdBok0LlUgGf6FcidZ4ptlVN2AXQj7TRIk/ky7w5lHtqBHILIXpvx7Tun6GM+7cttAXUN6uCRF5+VmoqIIy/fKisPVWCpzTPSRyBnaT08aFFyylBU7SIaOpfZ+bBsHctsXXohefFZ7oLUSeXDcpG2QcXzipaKXC9Iy7Mh/KrjlYZ2tK0oVra8eKqYWncOwZ8b/GQkK0HZqSsrPS8dsxfjve6rfGk3ofIutNKd9Kl8iqUvMy+/xiq5nmO5iqWHfAuCR6oeSYuT1iBpc+Zb7HWxMuAlX877daBXN0Pw5we/4lV4DnnVnGUgBH+Bc/7mXNkh7WFj5ZSBEPwh+LNkwCkg4fXh22BkVXw47PdV2VwMa+yUVTcuQGwMGvx81/nMoabB6/tOGgu5dsvP1/uptRm39xt6z9f3XeQj53tZP4bgzw1+rspX2vvEczOODhGq6IJNzLc9V8K52OO22McFrwohd83ht4OkgQ5HLemfwG/nEybSSF+FiBYYD2RZUmWTZqwsaw466DlJOwFVF3yfHnqMYOvKuxx58XnynLvzdkzVLfNlfp51ofJjPaXopml0UDLB8pC/5LNcmHSTB0VDoecsxobgzylsrIB+E3WMeTQmdbA3rLH1w7b+OoDrNXGpnx+2PCYbALmy7ahUqqgYW+60iTqqHjKlk00gNLAca+IY/WgM583SZdCNnA0AXWUH2/b/0uYh9X6D+bDGjhhdvczEt6/TpUGOpwqvSuDokQLlD5iyLqgT5/cnr4qj/3WF28BTldZjuJAxBmbRjmBNHDPXxjHt6Tg65dpGPGUTcfxogT8tNTGVNgMByQXLRFuP/1lgb7QpGzWHPGTht5Dfsl4Owe8Nfra65QL/NdeQu6/SrJdBIYJOzJc74ZYo9ZCjQqlLPm6YwKLn7RDltE8P6vvc74Amty++ncAFsw07KKtXTxPh7q861u9MyKg4fDcoOlgmWsn99cU4+ozK0YtXCpw0XsfanXa4c36fvOMOt1fMN8BgtIX0/tzcol+NLr0Pae7L/HhmnL8eNTkMuKSFn4bax2LY84ntMxAUL5gPTXu52+9liwy57VYhZcrCt0OWQn/+QvfqU7b9H+YOztkQu24K/2v7LZRwqEcnE1VhNCKpFjh3qo49H9uBKeut0xvyxfp3KWz03Bv/aAwM4173bUVD6syNOocsj8kYhX43San/Su4rlol0UOAvWJAjhHZU4PhxAs/srPeHIO/2Hkjit3820IJhvbwar4zy8Dlue9VvtI4nX7fSCCT4OcJoQWvEzPe49hMV6Flj2/bTQagx6oTbfS/dFJc7EuUckbnQ50azvJf1Q9jzu1aw5BMFKeXS6/TqS5OUAP6hAHM/+25qnqcqlNuiVwn8bLYu7dkD+JRnFjesiaEt55ou4OHiFb3+pqyOp+2665lZkT9wI88rlpjowD343Ob+9KZT4E9tfcaGqFjw05qx7ygd3GbLeaSB340fKa8+Phc08BUddPZa9aaFvoyUzRGhkomGnLMyCcHvzVgH+BmAk0NMHqxwApYV9LmelGGkGUq62ERnlVf3JdA1c9ifAv8Fc9LBz6Ep9wDQDA7bC/suh5QGtxfLkNoZz8TQjot/bsI+mCa2AtevjqdtjcY8OGpgnoWUnTSTdrljsYOODz9P4neMsecGftLVSOBnZB/nkQ/8R1UI9HEJ5sHyiAJ5Qb5RhshHjn7UkRbMg3LhUi9ZWM7XMGS9EIK/YPAT+HS9nb8uhrHLTExYGcOER4pPkx6LoeI+U25omdbjeYCfgrJlbwITVpioXW76/zbpXG5i5Za4bACUoPF8Qz7wlwtc/1Q6+EnHU9vimPRIDOML4EHtChPjl5uyDMxDHRL8Xj1/EwK/VzCPN99PYMaqmC0PPvlBvtUsM3Hvhjg+0+sbgDTwFxhvIAvjqlHI+iEEf8Hg5whg2/sJnD9VR0mZQLcqgW7VDUiD7RDXWdsqe4CfUV8YFLR3hUA3Jr/frhLoExEYdq8pe2oFOp4JfnrcefX8bV3Azx5/wooYjmf5Kwugg3HvI0LuY+CM9kPw/28z6Pm9wM/YDP3HCPQgL/zKBIO+DtIw4FYTLD93EeJB8K/dYeGUialhf9jzO+Y+hzqG3z/t7bpalKYcTzhHLTSxQp1JtdDq7AF+RsS5a6OFLlwjYFI6bmdemdcp2rqWCwy+x5RDTVvM7L/FgJ/D97HL7Vh4clHKLx0VAp0jQu6YyxgJaqNNzt2vVOAn/YoPPPP/JjLs9wL/49ssfH10KkpzIbIwSMNvbzGw61+JungDjH+w8lULfRnJx48NhpNXXtdpDOVDYc+fLmROxlHgvGL4EfzTdHvDCD9CnwlG53e8rnOA/26Cn8PBQhaDqgW6RoIF/7gVMTnySJuueJVH3Wcsg0qBqmUm7tscx71b4nhgaxy3b4jjrLmG1PVnzXGbAfhl6O4xtlu0rwZZyURUoNcogbNn6jKO4rkzdZw3R8fpU3W0HxrQfJ+8D8FfgG2/B/g57GcYr3Om6OhE/236v7M385E6RW3B97VrTXMCP3mlwJ3vzGAY1QLdRwn0rrFTn7ECx9UIdB4u3P3Ymwn4vzWKYcP8yUKdvEQESsoFupcJdB8k0LVUkxuLtKmw94Lwzdd8fM/KKOz5vYXWA/xc8KNxR+2KGK661cDVtxm45nZ/acASE7+Yb6DbiNRwPVeFHa7gZ5nJW46YOKRVWg5e854bT5oB+Le8l0D1vSauvt2Qya9MZD73q78Ycu8HrrPQnNmVH248yncvK6MQ/N7M9QA/12TYAFCt85lIyl1pGFTST+LOsM/tTuB0mqPmU+EczuDPJ6iZvzcD8HNEKNWvPmXBS164lfzL71n4PrdyZ4PIsmfyo5j/szIpEPzP7rLwtXGpePWqpWbr9GWnKENeafjN7Sb2fepQkDpXsTKuydRjC7Xwc5nzZ2Rb0L9Ubb20J4HvEPxcrMtVsSH464W+iYGfen7aAzTGQfsJbix607o4enKESJwVA/bMd7IyKQD8FNx1O+0VzQ4DNRnHjgYZhySVaeg2QMOltxkyci174ZwpBnxwMIk+tTTPdDfbzOINBa4RwP/3d+148SH4CxDqpgR+LtCNtSMmcwTYGAcNyJ5sShZ+LOjr7ydw7X0mfrnYwCW3mbj0ECV++xeLTVQvN3HPpjhWvGzh4Rxp5RYLK7Za6Dm6gB1aGgn8m95L4LtTfHihhT1/fY/XhMDPnrhztcCfn4vLMO6NAn4aUL1loR/Ne5uCkQ/ND9kicbjz/mdJ0Bb7UKb3DiRx72YL/Wp19Bos0GuYdzp2uJBDKDpz5BxqO4dKHuAnH6ifpkPInS/Fcc9GC/dsyp/u3WTh7o1xXP9UDCdy6pRvOHe4g5/8dUvOOlDXTQn8dApiSPcJOsaujOGuDRbu3RSXnZAfOUh7ZqMtQ8/tTEh7B2V23eQs/BqjhWtInjQOeXCrhePG0PU2FQ+egHJLak2CQqQEKt+Zz7oM+5WF3wXTdPQapOG4SoHeflKVQG/6kA8WoDtp3kboMAY/LQnbMjAHVZ9RDR2imgyqQWcbOhJl1VFTAj/pqxI4qlxIWwvW/fGVGvr4kYGMZyg7vUo1DFxoyI5UeUyG4M/TMijwU1ecd+XcTaDy3fMAv9qr7+xpOlqV2f7n1Fv7StxCKhUSLEvAM+k5XMFfZcfw7z9Dx0W3GPivhQZ+eauB/15o4MSJHrsMNSXwpzbtOGaIQK9qgV5VAsdWCxzNckUFWvuVBT5XJdCqVOCqEPx50J7xcxb4M8HT0P/zgP/H3KuvzEcPXiwd+cBPbYGaD5LWfKlKIGjzXmnh5xxV5aOBv0eFDJv1l7/FsOujhLSZoGkvDacu+avhvnEm38th3nv5PAMtBqZcgf3QwGg8lQJ9RwoU6tXHEF89xggseiGOJS/FcduLdhq6LIZjRjiCkfihg7wbKPCHhWbY82fgO+e/TQL8jH/HSi4W4Lne8wA/HWro2NM9okk/ew6ffaVKWpFpGBKQbT/dUcctj6Fnpd2T+6KBtFYIdC+3bfs1s15dRseWK+8szqX3ipsNtBmgyV2B/NLRMSpwyghRsD8/N/88aYIuow85BfSpNyx8c6wuYwD6pYG7GLUp1fDHsOd3sjL/9ZEKfi66Ln/FwpnjdfQfr+M7E/2nM2t1THkkJtWiTg4X49hD/s9eHcMPJ+roP8E/DaSZdCx/JZ62Q3FRLr1JyMXnqiUmTq/R0b8AXnxvgo6Lp+t4dkcw/vzP7kzg4hsNMF+/dUJ6Sffwe0xwg07l0x/O+Z3S6XJ9pIKfKld6ff19dwIv7k7g72/7S/LZ3QnpPcbAE87Dlz9/RjAP0vHOxwm89LZNh19a+BwTy+DUk+cEP0dIqWE/Y/gRHDy4Os5r+tI/v9M/PxQvNr2bAK0unUe+YB5eXn3M5x/vJgqqF9JBurd/kIAZrw+yEoLfWSMu10cq+F1Y0eBbfiP5OMHa4I9mZCDBr1x6ORfOnBJFBU4YJ2QATwX+jCwC+VeCfxQbG3djMIK/MS38WIg68NOlN58ZeCafvF5omzgAAANWSURBVP7PYuggDROfjAXCtC87ky8F/GUCF84y4Izhp1b75YJfY8/5qwV+NtPA/gPpvVPQvL5+dQytGT7LRXCoemsTEVJOGiNgpSoLoyP9+nYDHQg6t3UUqslqBNZsrw/gqd4N8izBP8zbXVr1/By5KL18kN9nXpTtR7dZOLm2EWP4tSzTMGlV8wX/8lctHD82QPtnp/BTAMsELp5TD35CkMOzV+nSe0PKx8FNUJ35FHtNY5JqgdPG6Vi33Q5XzUgvFLggEueXNNnmSvvVd5j25h0etB4V0XD5YgO7PkrKXonvBkED82CZuI6xdruF/tfrcp8CV/Az6s1ggemrYvjo86SMqRgUDZKOBGR0YgbloLutpxFWpUDXoQIPbrHk80HygnSwgWX5ah6JoYT+/G6jII96cmu86+7VXaRebhURGP9ETK5cMnY6nV+aRRK2deFjr1s4sTZHRRXDJPUOQR0R+MlMHS+9a+H9gwm8fzApz+t3WjiTwTzyOeeovIo80ximQ1TITRwY1mnfgQT2H0zKGILsKYtN+1PvMhbgsIdN9Bltz6ldQUfaowLHjhSoejCGze8l5HcDoeNgUpbp2Z0WfnOrgY5RzduNNbWByYljBOasjcu9DlgfxfJAvUdeMO35dwJLN8Rx5nRd6us9QSc1Fhr+8wZdhiLb84ldJ0Hwg+WhCf3stXGcMMbexMSzTgqVqUzws1K/MlpH30k6Thyv44Rmkkjr1ybq6FWj+7OWK5RR6nlaoQ0RchMH6nZlqhHoPkagLZ8JqlVW33M5t2Tkm6hA1+H297uPFggkjRHoNpKNiyZ13jmFLKUX57MlI+3ykwcNpiPFU5aNZcznv87GsHVUoDN37xkVMD9G27sSyViGeepVWihWaOg8JMWLgOqE8tVtlEAnlrNCuMZUzMKwi8y4PpN1M7UXXStGDYk0s0TmRANmkBsjaXJKk2HORZmiWv693NzyKfYeRyAURi78KBqCOtPDkWXzM3XhM3yW7wT1fZUPy8YyHko6FC/yAL8OQ3yuMfih6PDDi0Jkqo5wt5f4seaU3MoQ3nNdtMtZ7yHPjgyehULgokIKhf/IEP4jvZ5D8IfgD2XgCJWBsOKP0Io/0nu9sPwuobtDpoRD3lAGjggZ+H/G3+oaLSzueQAAAABJRU5ErkJggg==;spacing=-6;" parent="1" vertex="1">
          <mxGeometry x="365.53000000000014" y="217" width="68.92000000000002" height="20.000000000000004" as="geometry" />
        </mxCell>
      </root>
    </mxGraphModel>
  </diagram>
  <diagram id="jaOVwnMpF36vuv5YFht9" name="Page-2">
    <mxGraphModel dx="1426" dy="826" grid="1" gridSize="10" guides="1" tooltips="1" connect="1" arrows="1" fold="1" page="1" pageScale="1" pageWidth="850" pageHeight="1100" math="0" shadow="0">
      <root>
        <mxCell id="24g8IbpXDalR44-WMLQY-0" />
        <mxCell id="24g8IbpXDalR44-WMLQY-1" parent="24g8IbpXDalR44-WMLQY-0" />
        <mxCell id="24g8IbpXDalR44-WMLQY-3" value="Choose/Set Parameters for Build" style="rounded=1;whiteSpace=wrap;html=1;fontSize=12;fillColor=#e1d5e7;strokeColor=#9673a6;" vertex="1" parent="24g8IbpXDalR44-WMLQY-1">
          <mxGeometry x="335" y="95" width="270" height="20" as="geometry" />
        </mxCell>
        <mxCell id="24g8IbpXDalR44-WMLQY-4" value="Git Checkout Repository/Branch" style="rounded=1;whiteSpace=wrap;html=1;fontSize=12;fillColor=#e1d5e7;strokeColor=#9673a6;" vertex="1" parent="24g8IbpXDalR44-WMLQY-1">
          <mxGeometry x="335" y="125" width="270" height="20" as="geometry" />
        </mxCell>
        <mxCell id="24g8IbpXDalR44-WMLQY-5" value="Setup System &amp;amp; MicroFocus env vars" style="rounded=1;whiteSpace=wrap;html=1;fontSize=12;fillColor=#e1d5e7;strokeColor=#9673a6;" vertex="1" parent="24g8IbpXDalR44-WMLQY-1">
          <mxGeometry x="335" y="155" width="270" height="20" as="geometry" />
        </mxCell>
        <mxCell id="24g8IbpXDalR44-WMLQY-6" value="Get previous built GIT SHA Id" style="rounded=1;whiteSpace=wrap;html=1;fontSize=12;fillColor=#fff2cc;strokeColor=#d6b656;" vertex="1" parent="24g8IbpXDalR44-WMLQY-1">
          <mxGeometry x="180" y="185" width="270" height="20" as="geometry" />
        </mxCell>
        <mxCell id="24g8IbpXDalR44-WMLQY-7" value="Re-Create ANT Build File for Incr Build" style="rounded=1;whiteSpace=wrap;html=1;fontSize=12;fillColor=#fff2cc;strokeColor=#d6b656;" vertex="1" parent="24g8IbpXDalR44-WMLQY-1">
          <mxGeometry x="180" y="242" width="270" height="20" as="geometry" />
        </mxCell>
        <mxCell id="24g8IbpXDalR44-WMLQY-8" value="Setup ANT Build file for Full-Build-Only apps" style="rounded=1;whiteSpace=wrap;html=1;fontSize=12;fillColor=#fff2cc;strokeColor=#d6b656;" vertex="1" parent="24g8IbpXDalR44-WMLQY-1">
          <mxGeometry x="180" y="272" width="270" height="20" as="geometry" />
        </mxCell>
        <mxCell id="24g8IbpXDalR44-WMLQY-9" value="Run ANT Build" style="rounded=1;whiteSpace=wrap;html=1;fontSize=12;fillColor=#fff2cc;strokeColor=#d6b656;" vertex="1" parent="24g8IbpXDalR44-WMLQY-1">
          <mxGeometry x="180" y="302" width="270" height="20" as="geometry" />
        </mxCell>
        <mxCell id="24g8IbpXDalR44-WMLQY-10" value="Get Build Stats Summary" style="rounded=1;whiteSpace=wrap;html=1;fontSize=12;fillColor=#fff2cc;strokeColor=#d6b656;" vertex="1" parent="24g8IbpXDalR44-WMLQY-1">
          <mxGeometry x="180" y="332" width="270" height="20" as="geometry" />
        </mxCell>
        <mxCell id="24g8IbpXDalR44-WMLQY-11" value="Move all artefacts(so &amp;amp; others) to MF_ROOT dir" style="rounded=1;whiteSpace=wrap;html=1;fontSize=12;fillColor=#d5e8d4;strokeColor=#82b366;" vertex="1" parent="24g8IbpXDalR44-WMLQY-1">
          <mxGeometry x="335" y="362" width="270" height="20" as="geometry" />
        </mxCell>
        <mxCell id="24g8IbpXDalR44-WMLQY-12" value="Zip MF_ROOT dir" style="rounded=1;whiteSpace=wrap;html=1;fontSize=12;fillColor=#d5e8d4;strokeColor=#82b366;" vertex="1" parent="24g8IbpXDalR44-WMLQY-1">
          <mxGeometry x="335" y="392" width="270" height="20" as="geometry" />
        </mxCell>
        <mxCell id="24g8IbpXDalR44-WMLQY-13" value="Copy ROOT zip to Artifactory" style="rounded=1;whiteSpace=wrap;html=1;fontSize=12;fillColor=#d5e8d4;strokeColor=#82b366;" vertex="1" parent="24g8IbpXDalR44-WMLQY-1">
          <mxGeometry x="335" y="422" width="270" height="20" as="geometry" />
        </mxCell>
        <mxCell id="24g8IbpXDalR44-WMLQY-14" value="Create Deploy/Backup Copy scripts using ROOT&amp;nbsp;" style="rounded=1;whiteSpace=wrap;html=1;fontSize=12;fillColor=#d5e8d4;strokeColor=#82b366;" vertex="1" parent="24g8IbpXDalR44-WMLQY-1">
          <mxGeometry x="335" y="452" width="270" height="20" as="geometry" />
        </mxCell>
        <mxCell id="24g8IbpXDalR44-WMLQY-15" value="Run Backup scripts and create &#39;backup&#39; zip" style="rounded=1;whiteSpace=wrap;html=1;fontSize=12;fillColor=#d5e8d4;strokeColor=#82b366;" vertex="1" parent="24g8IbpXDalR44-WMLQY-1">
          <mxGeometry x="335" y="482" width="270" height="20" as="geometry" />
        </mxCell>
        <mxCell id="24g8IbpXDalR44-WMLQY-16" value="Copy backup zip to Artifactory for backout/rollback" style="rounded=1;whiteSpace=wrap;html=1;fontSize=12;fillColor=#d5e8d4;strokeColor=#82b366;" vertex="1" parent="24g8IbpXDalR44-WMLQY-1">
          <mxGeometry x="335" y="512" width="270" height="20" as="geometry" />
        </mxCell>
        <mxCell id="24g8IbpXDalR44-WMLQY-17" value="Run Deploy script to copy artifacts to target path" style="rounded=1;whiteSpace=wrap;html=1;fontSize=12;fillColor=#d5e8d4;strokeColor=#82b366;" vertex="1" parent="24g8IbpXDalR44-WMLQY-1">
          <mxGeometry x="335" y="542" width="270" height="20" as="geometry" />
        </mxCell>
        <mxCell id="24g8IbpXDalR44-WMLQY-18" value="Mark Git SHA for apps as &#39;deployed&#39;" style="rounded=1;whiteSpace=wrap;html=1;fontSize=12;fillColor=#d5e8d4;strokeColor=#82b366;" vertex="1" parent="24g8IbpXDalR44-WMLQY-1">
          <mxGeometry x="335" y="572" width="270" height="20" as="geometry" />
        </mxCell>
        <mxCell id="24g8IbpXDalR44-WMLQY-19" value="Send out Notifications(SMTP)" style="rounded=1;whiteSpace=wrap;html=1;fontSize=12;fillColor=#d5e8d4;strokeColor=#82b366;" vertex="1" parent="24g8IbpXDalR44-WMLQY-1">
          <mxGeometry x="335" y="602" width="270" height="20" as="geometry" />
        </mxCell>
        <mxCell id="24g8IbpXDalR44-WMLQY-26" value="Re-Create ANT Build File for Full Build" style="rounded=1;whiteSpace=wrap;html=1;fontSize=12;fillColor=#ffe6cc;strokeColor=#d79b00;" vertex="1" parent="24g8IbpXDalR44-WMLQY-1">
          <mxGeometry x="470" y="244" width="270" height="20" as="geometry" />
        </mxCell>
        <mxCell id="24g8IbpXDalR44-WMLQY-27" value="Run ANT Build" style="rounded=1;whiteSpace=wrap;html=1;fontSize=12;fillColor=#ffe6cc;strokeColor=#d79b00;" vertex="1" parent="24g8IbpXDalR44-WMLQY-1">
          <mxGeometry x="470" y="301" width="270" height="20" as="geometry" />
        </mxCell>
        <mxCell id="24g8IbpXDalR44-WMLQY-28" value="Get Build Stats Summary" style="rounded=1;whiteSpace=wrap;html=1;fontSize=12;fillColor=#ffe6cc;strokeColor=#d79b00;" vertex="1" parent="24g8IbpXDalR44-WMLQY-1">
          <mxGeometry x="470" y="331" width="270" height="20" as="geometry" />
        </mxCell>
        <mxCell id="24g8IbpXDalR44-WMLQY-29" value="Incremental Build" style="text;html=1;strokeColor=none;fillColor=none;align=left;verticalAlign=middle;whiteSpace=wrap;rounded=0;fontSize=12;fontColor=#0000FF;" vertex="1" parent="24g8IbpXDalR44-WMLQY-1">
          <mxGeometry x="179" y="161" width="101" height="30" as="geometry" />
        </mxCell>
        <mxCell id="24g8IbpXDalR44-WMLQY-30" value="Full Build" style="text;html=1;strokeColor=none;fillColor=none;align=right;verticalAlign=middle;whiteSpace=wrap;rounded=0;fontSize=12;fontColor=#0000FF;" vertex="1" parent="24g8IbpXDalR44-WMLQY-1">
          <mxGeometry x="639" y="194" width="101" height="30" as="geometry" />
        </mxCell>
        <mxCell id="24g8IbpXDalR44-WMLQY-32" value="" style="group" vertex="1" connectable="0" parent="24g8IbpXDalR44-WMLQY-1">
          <mxGeometry x="280" y="420" width="50.5" height="27.83" as="geometry" />
        </mxCell>
        <mxCell id="24g8IbpXDalR44-WMLQY-34" value="" style="outlineConnect=0;dashed=0;verticalLabelPosition=bottom;verticalAlign=top;align=center;html=1;shape=mxgraph.aws3.cli;fillColor=#444444;gradientColor=none;fontSize=12;fontColor=#0000FF;aspect=fixed;" vertex="1" parent="24g8IbpXDalR44-WMLQY-32">
          <mxGeometry x="2" y="3" width="20" height="22.92" as="geometry" />
        </mxCell>
        <mxCell id="-rtHCfNOlhfTTN0MqkGV-11" value="" style="shape=image;verticalLabelPosition=bottom;labelBackgroundColor=none;verticalAlign=top;aspect=fixed;imageAspect=0;image=data:image/png,iVBORw0KGgoAAAANSUhEUgAAANUAAADtCAMAAAAft8BxAAAAilBMVEX///9hpjpcpDL8/vuXw4KLvHJfpTdZoi1epTZbozBYoitWoSdsrUXO48NmqT75/Pfu9erD3Lbz+PCz06Lq8+bZ6c/l8N/n8uFvrkxoqkJSnyB0sFOozJWKvHDd69aSwHp/tmKhyI261quCt2a92K/Q48Z4slmuz52+17OmyZaexomQv3maxYKtzZ7XKOzgAAAKxElEQVR4nO1dbXerKBC+wURQE9+iqZrEmNgkve3u//97m7Z3t3XABBSEnuU5/dCeU4WRYXiYGYZfvywsLCws1MGJ83yV/MEqr+NId4/GwMny1W5f4MC/Af/B++8BLva7Vf7k6O6hIJy0Xi8uBfI95M4YcInno/Lydq3jHyPaTaIywIgwBfouGsJBuV/Xuvv7GPHq1btJ9ECg76LhAB1Wse5+30F6fgs9xCvQF5BX7s+p7t6zsTluA/5BAkOG/O1xo1sCGsm+8sgwkf4I5lX7lW4pOohPS3+USJ9AGJ2MmWHpusADNQ/CxcXOiAnmrAtfkkyfcoUn/WtYgmTK9CGXT571ypQ3snSvIxe+5PpkSl9l2AgWiHfQNb2SEIsMwDv4/90jiQ6Z4j3PhLqRPYT9oArCD/hV4GPvIUX8eNJvs8mFWhXeo34RD8+Ky+J1neRZFn8gy+rV+rhoihA/XrNROfWq/PpgoG6kNdjuznXPohrXq92lCvB9ydzgdUojv9n69zqDfLRfc1ix+rT37lNHXE6nhavyDjEn/vKQpJzf2ElXb8W9ESOzqbRw3a99rkcuieDnzZIL8vrfiHZqpOjCmVf9w0R2g7YT9W7Wv/IFB/WTK236FikSNKfB7iPndOmVC7eqiXx66ZlSrrdNRrnE0mTbx77QRa3NyAq2UC5GyWg9cZ7DHtOKCpWjtSnZWuK5cqa0c/LYazsq1G3/M7ZQrn+QpiHZgW0O0VaVWFnBFMoLpS4pq5A5XGipRgnTLWtOudVcst88mges4SJLFSYjYgqF5A7UJ9jcBTXyR8vZs1rCjRJ1jy8sLfRa6Q0dA0Y71VzRsu8cWQTGn0tuZs0QiiCFXpOENbmCtdQ2zozdK1G7qTuzlhEks8mUJdRMcYimZvAYInG/5TT0+9WSmA+w6BkqpL1+R9N01YTzA2lDm0Jf1nbrTCs4KZ4kvfwuUoaS4LOUVzszSioSThS6YJA0Ukjxf75SaqCGvDAR05bQO0h475na87jhhAHqvKTMbzBeB6ML9bGqSZ2PK2r9J8VoPn2khgrLXeAf4pkiT/5x5CtraqSwDLUWwl/QELpjCcACvpFcJg/BRFv4adE49p7To68hf6CmQkR4zNSOGviVfC3BzQRaDLId8bYVNBUjh34wqIkQjIjZQavuhpMQJRoxdO2TZrB1TyCrDbQF1xOoNcMHC5Iw0mpLw6TcJmQ7sC9naAArjal8NdSbgWbQ2YOh8mQ7Q4RwBCSbDNs/1sCcuqUmU/GJlJpZgzQH7kDwJEG/flxBf9DrgJfERdeYulPtFPuQgj2JSwZwN2hL8VV+R8WwBj3yT+LvgCsw1p63Fy+7g0VaYc/xE9Bib4gWSwZlBoXtxRqsD8SAXN8MWGVh++UABSSNim6KApBcdyn4fAx4hW9E+vIKTgtBFQQK6G6NyF12gHHHglZw0VVAb6z/QxJ23cEiYtu9DBjRYexEPmqggr7QcpN3rY073gMnB9A7GQhNd7AyeJop4BeACorNDPBJJMUhJAAokdA+Noa2Rv9pgD+Iwk7PXJHYYw6W4Iu6bori0F2IRczYc5cdT+1Zv4cRXQOebaTxfANE3qUHaMH/aNex7RbTp8v3oztWIk5cYGgaZV0cAPDF+c1F1qW2SKtvCQLGfbjNxbk7ViYZi1+/Xroq6HGzi1P3wcAgY3EzF1124b/wPvgbPGjELuRfbLoMgZ/MdVmgW2r3w3xHvO1IxW3ane5GWkPM9C66kUJuAx21pPs1jGGBH+i6/7l9F2mXsZtl2KFpd0POx9Ku5nq/lXZSGPPuglVxPhaHRksFHEUDpRJ15KgGlIpz1gOphjjpVQJKxRlVs1JpgJXqG/4XUpluAzkfM3y9ug6TynBu8TqMWxjOA+fDeGDUZcVkbxZnb4dxdufN5P0VCIvwh7CO3TFeGiUV3Au/8T4IrYzRfgvu5Bbgy5aQ6y8Rg31M0B9o1DIMMpE87k8O0hLQ5Hn59wCWK5ffWWmyn70AYTl+U3YxNybiDI+JAIcHNsglDeNXArPjpfuo/tTAL5yGxxpBXNg1KC68GB4XhjF835AkkhtfmnWNhdBZRJhvYUTG2TvAUirGvEEKyqB0ZCUAq5VYbgzIZXdLQ1QQHp0SI3Mw7duUcGMOc87EvvYbyLgwZD8MQt1kL/Y4oO2u+loCPIhgfpXgySkq71ZLPUmIsXm3TmtighawFeLHep5BPjsyIEd1A/PZhRNB4NkDE+wFPHswEz85AM+J6PdeZCE8JyL+DnhUU3/yNzwQNuTAJvBQiSWDqsATPH8VDvHoUWflNA8WnFXDlCeDBwn1HuuBKyh34AoAsKYZEuQncjGHB4abYe+hCiZUGjkudV54cBkt6mz3RVt0xIHVG4aTHUi75JV4EgY8qTmmaAL8QG6piTdtYKG1ETUT6Po6SBPJbWF9i1F1hqhqGXp08ErVImnGvA6exb+JpcEO5jOgfwKRECbgmjUj28kjjyld42fkyplR9RAV1Px8AKrOqRuOZTlXqnbg1OR9R1Xv8kcfG6CLF42qryOOhC6JN7S4yjfUVKEpd8rIT06XBJXinLzSpfZmk4n1VFFCYSm+BodRb5FMtN3fMNqWlNTCUAIyjdeTVUVVmvqf6MLEaIpyo5lL1zmVV57YeaMrtJKlcqLLqtwvs9BaGjKKw6quTZwvWRVpZWp+zbh3xsVK160E0UK5nlzjSxVye29DJYG/Mmt+y/6ONHN6b2WuiOqmc1ZzCupcLZjtbJVMrs2W2ZjAiWdutKyWSKUgIe0UsC7DwErq/KV75g09eC/Z+fm0Z1+90ajR9phRgfu9uVJqBcgkZLairiB3PGM26AattNlVt8zLRJQWuc8YZeA/PiQ6SGk0PvZcF4WUVk6K256b/7xyPVrt02vRc7eWajIdMW3uuxr65XqUvzo6lX03u/nqM+oPrOtSPuXCu8FEPvvt995WF6i6i+U7rv1X23nhIR+wqET5oey9KtENdpPELJ77b7ZzEb6sBSOt8bq9c2kj8abKO8/LO7eFElxtT9yWfvPcVPfua0TldJ6fdNE3uT4F893ir/PmgS5GT+fXgty/NBS3U3qKnStj9/MdLvLDZn7Ko4gxKZwozU/zpvQfXDRP0DRT6gvnvrXlSzCC/CAo2vnfp+Sc53Uc13l+Tk5/z9siCPDj63hxOH2kwuG7CPomG8bY/w+3P7iuF76pseyr3fhwvty7uXYk8FbXSaJ0F9y5vHYMED5qPMq2WVQK7iMn1UJz3l7eyL5nneBG/zG2KNk+uKhaCC4uns1IM0+WTEfDAJAgfDbnHO9qXz1YUTlwW7kbY45ufMCpD2Xf9cCcMuFhhF8xstu2r3+T8kAkz1+uDai/zUR9LQJPeIoRryp2hhzZYCOqd+3s/h333UFCvtvsavM0DyLaJItyhh+PGfFuO5b9y6Mdi0GoV8cWVwH2EIFc1iUEeX5Qoeb4UptjxrmRrk67Q3sJZ0EVfDL22y9heGkPu9PKoNO6AxClcZZlm9UHNlkWx+nPUTkLCwsLCwsLCwsLCwsLCwsLCwsLCwsLCwsLCwshOD8J3FIdFj8HLXemRogQIbcfgh79PP4P1a/hr7WyHJ1pNR34b3+3UumGlUp3X/lhpdLdV35YqXT3lR9WKt195cf/XarQQz8G/Oz2df5zcDCgbLeFhYWFUfgHaumyi841lsMAAAAASUVORK5CYII=;spacing=-5;" vertex="1" parent="24g8IbpXDalR44-WMLQY-32">
          <mxGeometry x="25.5" width="25" height="27.83" as="geometry" />
        </mxCell>
        <mxCell id="24g8IbpXDalR44-WMLQY-35" value="" style="group" vertex="1" connectable="0" parent="24g8IbpXDalR44-WMLQY-1">
          <mxGeometry x="280" y="509.0799999999999" width="50.5" height="30.75000000000007" as="geometry" />
        </mxCell>
        <mxCell id="24g8IbpXDalR44-WMLQY-37" value="" style="outlineConnect=0;dashed=0;verticalLabelPosition=bottom;verticalAlign=top;align=center;html=1;shape=mxgraph.aws3.cli;fillColor=#444444;gradientColor=none;fontSize=12;fontColor=#0000FF;aspect=fixed;" vertex="1" parent="24g8IbpXDalR44-WMLQY-35">
          <mxGeometry x="3" y="2" width="20" height="22.92" as="geometry" />
        </mxCell>
        <mxCell id="-rtHCfNOlhfTTN0MqkGV-0" value="" style="shape=image;verticalLabelPosition=bottom;labelBackgroundColor=none;verticalAlign=top;aspect=fixed;imageAspect=0;image=data:image/png,iVBORw0KGgoAAAANSUhEUgAAANUAAADtCAMAAAAft8BxAAAAilBMVEX///9hpjpcpDL8/vuXw4KLvHJfpTdZoi1epTZbozBYoitWoSdsrUXO48NmqT75/Pfu9erD3Lbz+PCz06Lq8+bZ6c/l8N/n8uFvrkxoqkJSnyB0sFOozJWKvHDd69aSwHp/tmKhyI261quCt2a92K/Q48Z4slmuz52+17OmyZaexomQv3maxYKtzZ7XKOzgAAAKxElEQVR4nO1dbXerKBC+wURQE9+iqZrEmNgkve3u//97m7Z3t3XABBSEnuU5/dCeU4WRYXiYGYZfvywsLCws1MGJ83yV/MEqr+NId4/GwMny1W5f4MC/Af/B++8BLva7Vf7k6O6hIJy0Xi8uBfI95M4YcInno/Lydq3jHyPaTaIywIgwBfouGsJBuV/Xuvv7GPHq1btJ9ECg76LhAB1Wse5+30F6fgs9xCvQF5BX7s+p7t6zsTluA/5BAkOG/O1xo1sCGsm+8sgwkf4I5lX7lW4pOohPS3+USJ9AGJ2MmWHpusADNQ/CxcXOiAnmrAtfkkyfcoUn/WtYgmTK9CGXT571ypQ3snSvIxe+5PpkSl9l2AgWiHfQNb2SEIsMwDv4/90jiQ6Z4j3PhLqRPYT9oArCD/hV4GPvIUX8eNJvs8mFWhXeo34RD8+Ky+J1neRZFn8gy+rV+rhoihA/XrNROfWq/PpgoG6kNdjuznXPohrXq92lCvB9ydzgdUojv9n69zqDfLRfc1ix+rT37lNHXE6nhavyDjEn/vKQpJzf2ElXb8W9ESOzqbRw3a99rkcuieDnzZIL8vrfiHZqpOjCmVf9w0R2g7YT9W7Wv/IFB/WTK236FikSNKfB7iPndOmVC7eqiXx66ZlSrrdNRrnE0mTbx77QRa3NyAq2UC5GyWg9cZ7DHtOKCpWjtSnZWuK5cqa0c/LYazsq1G3/M7ZQrn+QpiHZgW0O0VaVWFnBFMoLpS4pq5A5XGipRgnTLWtOudVcst88mges4SJLFSYjYgqF5A7UJ9jcBTXyR8vZs1rCjRJ1jy8sLfRa6Q0dA0Y71VzRsu8cWQTGn0tuZs0QiiCFXpOENbmCtdQ2zozdK1G7qTuzlhEks8mUJdRMcYimZvAYInG/5TT0+9WSmA+w6BkqpL1+R9N01YTzA2lDm0Jf1nbrTCs4KZ4kvfwuUoaS4LOUVzszSioSThS6YJA0Ukjxf75SaqCGvDAR05bQO0h475na87jhhAHqvKTMbzBeB6ML9bGqSZ2PK2r9J8VoPn2khgrLXeAf4pkiT/5x5CtraqSwDLUWwl/QELpjCcACvpFcJg/BRFv4adE49p7To68hf6CmQkR4zNSOGviVfC3BzQRaDLId8bYVNBUjh34wqIkQjIjZQavuhpMQJRoxdO2TZrB1TyCrDbQF1xOoNcMHC5Iw0mpLw6TcJmQ7sC9naAArjal8NdSbgWbQ2YOh8mQ7Q4RwBCSbDNs/1sCcuqUmU/GJlJpZgzQH7kDwJEG/flxBf9DrgJfERdeYulPtFPuQgj2JSwZwN2hL8VV+R8WwBj3yT+LvgCsw1p63Fy+7g0VaYc/xE9Bib4gWSwZlBoXtxRqsD8SAXN8MWGVh++UABSSNim6KApBcdyn4fAx4hW9E+vIKTgtBFQQK6G6NyF12gHHHglZw0VVAb6z/QxJ23cEiYtu9DBjRYexEPmqggr7QcpN3rY073gMnB9A7GQhNd7AyeJop4BeACorNDPBJJMUhJAAokdA+Noa2Rv9pgD+Iwk7PXJHYYw6W4Iu6bori0F2IRczYc5cdT+1Zv4cRXQOebaTxfANE3qUHaMH/aNex7RbTp8v3oztWIk5cYGgaZV0cAPDF+c1F1qW2SKtvCQLGfbjNxbk7ViYZi1+/Xroq6HGzi1P3wcAgY3EzF1124b/wPvgbPGjELuRfbLoMgZ/MdVmgW2r3w3xHvO1IxW3ane5GWkPM9C66kUJuAx21pPs1jGGBH+i6/7l9F2mXsZtl2KFpd0POx9Ku5nq/lXZSGPPuglVxPhaHRksFHEUDpRJ15KgGlIpz1gOphjjpVQJKxRlVs1JpgJXqG/4XUpluAzkfM3y9ug6TynBu8TqMWxjOA+fDeGDUZcVkbxZnb4dxdufN5P0VCIvwh7CO3TFeGiUV3Au/8T4IrYzRfgvu5Bbgy5aQ6y8Rg31M0B9o1DIMMpE87k8O0hLQ5Hn59wCWK5ffWWmyn70AYTl+U3YxNybiDI+JAIcHNsglDeNXArPjpfuo/tTAL5yGxxpBXNg1KC68GB4XhjF835AkkhtfmnWNhdBZRJhvYUTG2TvAUirGvEEKyqB0ZCUAq5VYbgzIZXdLQ1QQHp0SI3Mw7duUcGMOc87EvvYbyLgwZD8MQt1kL/Y4oO2u+loCPIhgfpXgySkq71ZLPUmIsXm3TmtighawFeLHep5BPjsyIEd1A/PZhRNB4NkDE+wFPHswEz85AM+J6PdeZCE8JyL+DnhUU3/yNzwQNuTAJvBQiSWDqsATPH8VDvHoUWflNA8WnFXDlCeDBwn1HuuBKyh34AoAsKYZEuQncjGHB4abYe+hCiZUGjkudV54cBkt6mz3RVt0xIHVG4aTHUi75JV4EgY8qTmmaAL8QG6piTdtYKG1ETUT6Po6SBPJbWF9i1F1hqhqGXp08ErVImnGvA6exb+JpcEO5jOgfwKRECbgmjUj28kjjyld42fkyplR9RAV1Px8AKrOqRuOZTlXqnbg1OR9R1Xv8kcfG6CLF42qryOOhC6JN7S4yjfUVKEpd8rIT06XBJXinLzSpfZmk4n1VFFCYSm+BodRb5FMtN3fMNqWlNTCUAIyjdeTVUVVmvqf6MLEaIpyo5lL1zmVV57YeaMrtJKlcqLLqtwvs9BaGjKKw6quTZwvWRVpZWp+zbh3xsVK160E0UK5nlzjSxVye29DJYG/Mmt+y/6ONHN6b2WuiOqmc1ZzCupcLZjtbJVMrs2W2ZjAiWdutKyWSKUgIe0UsC7DwErq/KV75g09eC/Z+fm0Z1+90ajR9phRgfu9uVJqBcgkZLairiB3PGM26AattNlVt8zLRJQWuc8YZeA/PiQ6SGk0PvZcF4WUVk6K256b/7xyPVrt02vRc7eWajIdMW3uuxr65XqUvzo6lX03u/nqM+oPrOtSPuXCu8FEPvvt995WF6i6i+U7rv1X23nhIR+wqET5oey9KtENdpPELJ77b7ZzEb6sBSOt8bq9c2kj8abKO8/LO7eFElxtT9yWfvPcVPfua0TldJ6fdNE3uT4F893ir/PmgS5GT+fXgty/NBS3U3qKnStj9/MdLvLDZn7Ko4gxKZwozU/zpvQfXDRP0DRT6gvnvrXlSzCC/CAo2vnfp+Sc53Uc13l+Tk5/z9siCPDj63hxOH2kwuG7CPomG8bY/w+3P7iuF76pseyr3fhwvty7uXYk8FbXSaJ0F9y5vHYMED5qPMq2WVQK7iMn1UJz3l7eyL5nneBG/zG2KNk+uKhaCC4uns1IM0+WTEfDAJAgfDbnHO9qXz1YUTlwW7kbY45ufMCpD2Xf9cCcMuFhhF8xstu2r3+T8kAkz1+uDai/zUR9LQJPeIoRryp2hhzZYCOqd+3s/h333UFCvtvsavM0DyLaJItyhh+PGfFuO5b9y6Mdi0GoV8cWVwH2EIFc1iUEeX5Qoeb4UptjxrmRrk67Q3sJZ0EVfDL22y9heGkPu9PKoNO6AxClcZZlm9UHNlkWx+nPUTkLCwsLCwsLCwsLCwsLCwsLCwsLCwsLCwsLCwshOD8J3FIdFj8HLXemRogQIbcfgh79PP4P1a/hr7WyHJ1pNR34b3+3UumGlUp3X/lhpdLdV35YqXT3lR9WKt195cf/XarQQz8G/Oz2df5zcDCgbLeFhYWFUfgHaumyi841lsMAAAAASUVORK5CYII=;spacing=-5;" vertex="1" parent="24g8IbpXDalR44-WMLQY-35">
          <mxGeometry x="25.5" y="-0.07999999999992724" width="25" height="27.83" as="geometry" />
        </mxCell>
        <mxCell id="24g8IbpXDalR44-WMLQY-40" value="" style="shape=image;html=1;verticalAlign=top;verticalLabelPosition=bottom;labelBackgroundColor=#ffffff;imageAspect=0;aspect=fixed;image=https://cdn1.iconfinder.com/data/icons/hawcons/32/699204-icon-124-document-file-zip-128.png;fontSize=12;fontColor=#0000FF;" vertex="1" parent="24g8IbpXDalR44-WMLQY-1">
          <mxGeometry x="308" y="392" width="20" height="20" as="geometry" />
        </mxCell>
        <mxCell id="24g8IbpXDalR44-WMLQY-41" value="" style="shape=image;html=1;verticalAlign=top;verticalLabelPosition=bottom;labelBackgroundColor=#ffffff;imageAspect=0;aspect=fixed;image=https://cdn1.iconfinder.com/data/icons/ionicons-fill-vol-2/512/logo-python-128.png;fontSize=12;fontColor=#0000FF;" vertex="1" parent="24g8IbpXDalR44-WMLQY-1">
          <mxGeometry x="152" y="332" width="20" height="20" as="geometry" />
        </mxCell>
        <mxCell id="24g8IbpXDalR44-WMLQY-42" value="" style="shape=image;html=1;verticalAlign=top;verticalLabelPosition=bottom;labelBackgroundColor=#ffffff;imageAspect=0;aspect=fixed;image=https://cdn4.iconfinder.com/data/icons/keynote-and-powerpoint-icons/256/parameters-128.png;fontSize=12;fontColor=#0000FF;" vertex="1" parent="24g8IbpXDalR44-WMLQY-1">
          <mxGeometry x="308" y="95" width="20" height="20" as="geometry" />
        </mxCell>
        <mxCell id="24g8IbpXDalR44-WMLQY-43" value="" style="verticalLabelPosition=bottom;html=1;verticalAlign=top;align=center;strokeColor=none;fillColor=#FF3333;shape=mxgraph.azure.git_repository;fontSize=12;fontColor=#0000FF;" vertex="1" parent="24g8IbpXDalR44-WMLQY-1">
          <mxGeometry x="308" y="125" width="20" height="20" as="geometry" />
        </mxCell>
        <mxCell id="24g8IbpXDalR44-WMLQY-44" value="NonProd" style="text;html=1;strokeColor=none;fillColor=none;align=center;verticalAlign=middle;whiteSpace=wrap;rounded=0;fontSize=15;fontColor=#0000FF;fontStyle=1" vertex="1" parent="24g8IbpXDalR44-WMLQY-1">
          <mxGeometry x="382" y="50" width="142" height="30" as="geometry" />
        </mxCell>
        <mxCell id="24g8IbpXDalR44-WMLQY-45" value="" style="sketch=0;outlineConnect=0;fontColor=#232F3E;gradientColor=none;fillColor=#007FFF;strokeColor=none;dashed=0;verticalLabelPosition=bottom;verticalAlign=top;align=center;html=1;fontSize=12;fontStyle=0;aspect=fixed;shape=mxgraph.aws4.email;strokeWidth=3;" vertex="1" parent="24g8IbpXDalR44-WMLQY-1">
          <mxGeometry x="308" y="601.15" width="20" height="17.69" as="geometry" />
        </mxCell>
        <mxCell id="24g8IbpXDalR44-WMLQY-47" value="" style="shape=image;verticalLabelPosition=bottom;labelBackgroundColor=default;verticalAlign=top;aspect=fixed;imageAspect=0;image=data:image/png,iVBORw0KGgoAAAANSUhEUgAAAQAAAACeCAYAAADdadThAAAABGdBTUEAALGPC/xhBQAAACBjSFJNAAB6JgAAgIQAAPoAAACA6AAAdTAAAOpgAAA6mAAAF3CculE8AAAABmJLR0QA/wD/AP+gvaeTAAA6NElEQVR42u1dd3QTx9b/jZp7w7jLttzovfeW0MLjpdISIEAKIS8kkF6AKJTkJfnyEkhCOiGUYEzomGp6M9jGDRt3Sbbce5ctaef7wwXJkrtsy2Z/5/gca7Xanb0z9+5tcy/AggWLRxaEJQGLrkLohlPvVKQVvWg+wWbcqNXzK1iKdD54LAlYdAXurD+6J2Vf6DJGpYa386jPAaxjqcIKABY9HDHiAEGhXH1VcujeuLpjBRHylawA6BpwWBKw6CzEbjvrkhlRnCo/GztO83hRTJZ1+GdnXmQpxAoAFj0U9z4/PzXlzANJXmiqk77vi+KzN7JUYgUAi57I/BsDX5P5h10qkxaYNHZObrDMJ/Lrc4NYarECgEUPwp13ju5O2hfyU1VBRZNrjalWoVxS9C1Lsc4FGwZk0SGoc/Y1tPebgqmDpVr42gBrNiTIagAsujGitwU5ZUWWyFrD/ACgyC3jMinM5ywFWQHAopsi/Iug0WlBsZLcEJlzW35fGxJkwQoAFt0NYZsCV0sPhAaXJOaatfUaRTFZ1vc+C1zGUpMVACy6EULeP/59yv7Qn6sKytu9pkri8zaxFO0csE5AFu0CFYs5t7L6X0o7dX+qwd5KAh76rhk3eOh7s++zFGY1ABZGiuhtQU4Xo4RyQzI/wIYEWQHAwugR/kXQ6LSLsSl5d2UuHXH9nNvS6aG/nDRnKc0KABbGxvziwJelB0KDSxJyO4xBFbllXJrMbGOpzQoAFkaEkA+O7UjaF/abIZx9zSE/Mn0VS/GOBesEZNEi1Dv7AmOmgtJOu2+fV8YtH/HpvL3sDLAaAIsuQuTX5xwvRQnT0k7d71TmB4CS+Fx2lyArAFh0FaK+ODcy/UyCJPeuzLUr7p8TLPNjdwmyAoBFF+Ce+PSqZP/wuyUJOV3mjWeqVSiTFP+PnQ1WALDoRIS8f/zb5H2hf1Tll3f5Gsm9LZnBhgQ7BmxNQBZaoGIx53bOgFPJB8Lmdra93xg0QoLr2RliNQAWHYTwby/bXnngmZx6ItpomL8ObEiQFQAsOhARX1wYnnXqvjz7ZorIGMdXFJPJ7hJkBQCLDmH+z84tkh2OCCmOz7Ew5nGyIUFWALAwMO6+f/z/Evfd8a/MKuEa+1hzgmV+9z4PGsDOmuHAOgEfUdQ5+yT+YXMpQ7vFmJlqFSrlBd8BmMXOoGHApgI/gkjccdpafisnIvtGsld3GztbOJQ1AVi0A+FfnR+WdCIlozsyP1AbEkyhW9mZZAUAi9Yy/2dnFqQGRIQUx2VbdOfnKIiQsyFBVgCwaA1CPzjxdfL+0IDKrNJu7/cpjMm0idh8Zik7q6wAYNEC3H7z0JHkA6Hvqiqqe8wzFcXlsCFBA4B1AvZgJO44bS2/nXMv+3qyT497cwl48H154sARHz8ey840qwGwaICIz4P6pARKU3si8wM1IUGFvIAtHMoKABY6zL/lzDOpR8NjCmMybXryc+YESx9jdwmyAoCFBsI+Pvlp8r6wfyoyS3p8kpcip5TLJDOb2VlnBQAL1Dj7kvaFiJXlVY+Mb6cwKuNldubbDtYJ2AOQuOO0dXpwbljWtSTfR/H5+706YdmwTXP3sSuB1QAeOcR+dd4v5YxU9qgyP8CGBFkB8IgifMu5p5IORcYWRmfaPsp0yAmW9mF3CbIC4JFC6CcnN6TsDz3yKDj7mgMbEmR9AI8Ubr956Ejq8ftPUzXDEqMWpo5WauHq/uwuwVaCrQfQjRDz42XL3Juye7IjUX4sNbShERJ8l6UGawL0OMR+dd4vPTA+LetaMsv8jYANCbICoEciYsv5WclHo+8XRKXbstRoQgDcz2B3CbICoGch7JNTHyfvDzlbnlYkYKnRPIoT2JAgKwB6CILXH9mbtD9km7JMwTprW4jsW2xIsDVgnYBGCIn4smmaJP2u9FD4YJYarQNTrYIiveB/AOaw1GA1gG6H6K8u+iSGxGdkXIxnmb+NyL0jfUwivmzKUoIVAN0K4dvOzZQei4wtiEy3Y6nRdlRmlfLyK0u3sJRgBUC3QeiGUx+k7As9V55ayDr7DID8KDkbEmQFQPdA8Poje1P2hf5XWco6+wyFwuhM2/DPzixgKdE0WCdgF0IivmyaJk0Plh4KH8pSw/AoSczZCuAQSwlWAzA6RH59zisxJD49Iyh+KADwLU1g7ecAa18HcE1YuWwI5ATL+sR+dZ7NnGQ1AONC+GfnZqYeuX+qPK1IwOFx4bdyLAaumwa+dY3jurqoEnffPYb0cw9YYrUDaoUSRdKi7QCeYKmhH6zN2ckIef/EurRT9/9XXVJJXB/rg2Eb58DKp7fOeaXJeTg9bQdLsHbCzNlKNeRfo628xNMVLDVYE6BLcfvNQ/tSAsK+NXW0JFP2LsPk3Uth5dMbCbuCcWL0/+HGS3/Xn2vl0xvmrjYs0doJNiTImgBdjsS1p00yCvNuZV5MHDFs4xz4Lh8NDo8LRqXGvQ2BSN4fCgDIrVRq/c5+uBAVGcUsAduJ2pDgeywlWA2g0xEpPi2USNLSTJ2sRsy7/hb6rBoHDo8LVUU1rr+4v575AcDEXrvEvd0QV5aABkBhdKZt+NbzbEiQ1QA6FxHbzk4vjMk6PuSDx62cJnnXH1eWKHDtxX3IC03VOt/KW9sXYOnZiyWigVAcl7UFbEiQ1QA6C/c2nV5j6mh1YvLupVrMr8gtw8Vn/9BhfgCw8rLX+mwhtG3yHg7jRJi063l4PjWEJXgzyA2W9mVDgqwG0Dk2/5/BXziM83rHpp8jX/N4eVohrjz/F8qkBXp/11AAmLs1LgDc/zUQ439YAMLlwHV6HxTFZaM4LpslfiNgQ4KsBtDhoJRyC+Ozf/B+fuSHDZm/OCEHF5/5o1HmBwBLb20BYGpvDq4ZX+c8k17mGPP1UyDcmukjPA5Ezw3rugcnBLYDnOE+fxDMHK2Mdn7yQmQzE3ecNmFXKqsBGByRX59zVJVW/Wnbx1HnDVMQIcfV5ftQXdh0wdqGPgAQAgs3G5Qk5Wkd9lo0AjxL7XVs09ex059ZYGOGfq9NhGjBcJg51TB+YXQGLj23C6qKaqObo4rMEl5RhnILgPfZFctqAAZD1Ffnp/Z5ccJVnpWJDvNn30jB5cW7m2V+nrkA5s66b099ZoD9CHfd85ytO/WZRc8Nw7yb69D/jSn1zA8AdoNdMXb7syCc5nPMCI8DC6EtLD3sILDrnCa/hVGZr7ArltUADKPyA+Texydf7/PyRLGJnblOOl9aYAyC3zwMplrV7LUsPOwAoss0+hyBpva6zKLJhB2t7g/bOBt9X5mgdTg3WIrckFT0fXUChHP6Y8iHMxH5+Xm9l3B9vC/8VoyF43gROIKHS1BZVoXSlDwURKajIDwd2bdSUJFu2DyIgqh023tbzj03YuPsf9gVzAqANkMMMSd2x7RPh7026X0On6tTfebBzuuI/jIIlKEtul5jIT9TPTZ1ZU6ZzjG+jRkIl4MObRZCCEZ/9SS8F4/QOiw/+wC31hwEVTHgWwrgt3Ic+q2ZhKK4bMiORNafxzXhYey3z8B9/iC9l+dbmqDXEDf0GuIGLKs5VpKUh4wLcZAdjUTRA8M4OUtqQoKsAGBNgLbh8jQx7+2k//x3wNqpmxoyP6NSI+S9Y4j64kKLmb8pAcDT4wTMDZbq8iaHgG/Vsf6t4eK5OsxfkVGM4Df/AVXVCJ7MK0n13436fD6sNBybo758slHmbwzWvr3Rb80kzD7/H8wJegP9/zMZ5m7tS5HOvSvrF/O/y77sSmYFQKsRIw50dl0+57aVT2/t1FJKIT8Ti3MzdyLF/16rr2vpadeondwQqSeioa7SNSsEtmYd9twD101Dn1XjdI5HbD0HtUYKc35YWr3g41kIMOabpwFC4L14BETPtq/sgU1fRwz5cCb+dXM9xu9c2GbHp7pSiZLk3O3samZNgFYhTHx6XFFO6cmxH8zsDQCVWSUoistGzk0J5GdiUSYraPO1zVz0O/FU5bre9KqCCmReSoBwrnb1a4GNYQWAlU9vCOf0h01fJ3g+rZtsVBSbhbST97WOVRdXoiQpFzZ9apiz9ygP+CwdhQFvTDGcJcLlwGP+IAjn9seDH64j5tvLrdK2arWAWYk7Tpv4vflEFSsAWDTP/BsCVxeEpX0/+c8X+FxTPiI2n0X8b7cMdn3T3pZ6jytL9O9iVeSWdZgGQHgcDH7vMfRbPbE+10AfEnYF6z2eH5pWLwAAYOSWeU1ep83qK4+LgeumwcrbHnfWH22Rs7XedMks4RVlqjcD+IA1AVg0iTvrDu9MP//gp3E7nuOb2FsgdsdVgzI/AJg66BcAje0GrC7WFQwC6/ZXwjZzssL0gyvR//XJzTLtwHXT0HuUh87xhmnOHcH8mvD492BM+WspeOatq6daGJn+KusDYNEoAhYEcK+v2n9dfi5uzeRdLxBLUS8k7r6D6K8vGvxejTFvqSRfv2ZQqisA+O0UAE6TvDHr7OtwGOPZovMthLaYcWgVvJeMbFIAdAacJnlj6r5l4Fu23BFaEJVuG7n17LOsCcBCB5Hic465UWkRWdcyXKbuWwbbgc6QHYlE+KenO+R+lFJ9BxtNHVaW6pqurVn8Wm9oDsGAN6di4LpprX5bEx4Ho76Yj+qiSsjPxIJvZQoLoS0YpRocPrdT56z3aE9M/ftFXF26p1HTSUcLiM/eCuBwe+992netSXGV7RhCMZESeBLAjVLiREDzGdAdz8u3nmUFgJHgMsS8bCEzExQTQehwCtKbUGoFAgqgkm9tkuI4zWeIwMncZeCbU+EwVoScWxLceedoq51N7UFldmmjKbX6FjivDWFAE3sLjNvxLJyntD0qRrgcjPv+OeSHpcFhrGeHq/xNwX64ENMPrsTVpXtQlV/e7Pm5wTUhwYFvT09qlXaIBVy49RtDCZ1FQaaVKDCWAGYAQGqXSM1yAjggcw8IN+5Sm3LXL00Sl7ACoItwxO0j+yrCX5sN9SsAXOsqIhLQ+uqIfCvT+3MvrZ1q5mTl6DzVp/63jhO8MD/4HeSHy1EQIUfObSnyw+UANZBA0HOZ0pT8Rk/XJwBaqwHYDxdiwi+LYe7S/jRirgkPjhO8jGKe7Qa5YMahVbiyeDcqc0qbPFddqURJSu52APOau+6fIrGpqZp5kjD0KTXBTALYt7SsJgFW8RTqx/3dNr27OH3zIVYAdCKOisS2VSrm42rQNQTUsrHzrH1635h17vWRXBOeXne6mZMVhHP6QzinPwCgIr0YqSej8eCH66gurmxyDOauNrAU9QLfwgTFCTm6IUM9gqQwJrNxAVBW1S4fgOczQzH6qyd7bAlyaz8HzDj8Eq4s2Y1yeVHTWsAd2awYcYBgoHihXnXL32VDf3DJ21CpFwCwAalneyUACYAkAiQxBGkciiwCpCk53LQXUsUpv4x8lW+d6TSIw8HzDLCSEBpwQLjxKpdy1y1MF0ewAqADEYAFXEbY76UqlXorAIem3r8eTw2+PH7Hc9NBSIsrJZu72aDfa5PgNrMfLvzrFx2mtBT1gs/zo+A6sx+sfbW3CsiORuHO+iNNpu4WRKS3TgC0QAMgHILBHzyO/q9P7vGC31LUCzP+eQmXF//Z5DbsiswSXoXCdDOADzWP73f5xJPL4YhBsAxAnUNDBpBjlOKCUlVxZXn2/zVpZ6wO+1UJIBxA+PHe72+uNBO8SSh5myHqUH/hht0cLrYtlG2VsALAwDjgvnEyQ7EdwPBmTi0fsXnePb+VY2e09V5WPr3hs3Q04n6+AUvPXnCZ0QfCuf3hMFbU6K44z6eHIPVkNDIuxAMAGLWuBpAfLm/0nqo2CACeuQDjf1wA18f7PjJmn7mbDWYcfglXl/yF4oScxoVtVPqrdQJgj5PY0YSv/oQCqwGYAKgExUFK6F/xct41McRt2nDxZN5XpQC2BXh/8ANTLXgLIOsZNZb7u23Ypyb44gX51sTOpk+P6wvwt6u4N4ej3g5gSXPPx+GSzOkBLxX2HuMxoL33VZZVgaqYViXjxH5/DdFfBQEA5ge/o5XjXpVfjmPDvmz0twI7czwd9WEDjUGOC/N/1c/8FgJM+WspHMaK8CiiqqACV5fuQWF0RqPneC8esUxyILwPJXQ9AEsAaQT4gU9VfzyT/kV+x5im6vUA1gGwJMBxhuDbJWlbrrMaQFve+m6b5hGi/h2Ac7MPbi6ImXv1TTtzZ+sBhrh3W0JwApuHNrtaoV0SPPeurMnf6tUArBr3AYzcNv+RZX6gporS9ICVuPmqP7KvJzd4DRJ4PjUYIOQtSugoAKWE0o8JKf9uofzbyo4a09NScRGATwOE4u0MZd6mhL5JKJ72F24MIYR8W+SY9U+tCdFh6BGJQAFYwD0o3Pg1IfRUS5jfysv+1lORH3iZO1t3ad1tplqtIQBUOmaFx78HN2pCMEq1jhBoLAxo4W4H0TNs4VC+pQmm/LVUa1OSpYcdph9cgXE7nsOIz54YyDXhnVFy1X0XpW/9oiOZXxML5eKCxembNwioyotSbAXgRyn92ybbSXrQfeOGPU7iDiv31O1NgH2+YmueQn0IwKwWnE6Fc/tfnPjL4hkgpMuFX/RXQYj9/hqcp/hi0u9L9Nb/i/oyCA9+uKb39/Nuroelh52WFvHgx+twnOAFwiHIuSVB/O+3MfjdGfBbOQ4s6lYBReKeu7Af6gabfk7gmtbQPXlfCPLC0k6M++7ZJ7t6TXMr1W8QgnWocV4rQOkBSsn3SzK2hLMCoO7N7/2BDVNtchagLVndlcM3zQnt88oEo3F/h354AhkXE/DE5bU6Nf7qUBSbhXOzd+r97vETr8J+uLDJeyhyyxrdZ8DiIeJ+voHIbedh7mKt8pnnadFYSLAzcdJVbF5O1K+C4F0AbjWyi9wAwW61KeeQIZKKuq0PgALkoFLwT0uYn3BJ9jT/lfmO40RGFftymuQD6z6OjTJ/nYraGPTtB2iIzmb+qP9eQNa1ZEzbv7zT6vy1Fw92XkfUFxcA1IQEK6tMPwPwUVePa36GuALAd6d91/5UUmmzAoR8QAidBGAST6H+0V+48RYhuMSARhEgJi6NJ2lthKLbagAHhZteoaC/Nnce14wf+8TltTbmbrZu3fE51VUq/OO7WeuYmaMVRmyZB+ETA4xqrKUp+Tj7+A9glGo8dvRlvTsFjQmMUo0L//oFRbFZWsd7DXUrnBX4mtG1ZboMMS/bXf0cpWQ9AR2jT+EjwC3CwfsLU7eEteSa3dIJGIAFXArarIS29Ox1++nID0Wdwfx1JbEMjYb57PYj3THr3BqjY36qZhDy/nEwyhrHZkFUhmGFS3IecoOleguktBUcPldvglBBZLpdxOcXnjG2dT8dYtXitC3+S+Sbx1KGmQjgVEOFjwIzGAbXD7ptXNhjBYBa2P/fAJpKPKeuM/tdmnf9rbFcM36n6KG31hxE0t67Bi/KqZkNaO3ngKl7lzVaPKRL1egfryP3jrT+szwwxjCChaG4s+4wTk/bgUsLduH0lO0GrRQsnKdfkBY/yNxqzDywJGPbrcXyLfM5wDQADYltRgkO+rtvPOHvJu7T4wQAQN9q4kvFsE9m35i86/lO9fSrFSqEfXwK5+b8hPx7aYa5ZmWNV78OQz6a2WSsv6uQF5KK+99e1jqWG5LaZNJNS5F28j6khx9WFq7MKcWdt48YbFem3/Ixeo/nBEv7R++46GPsnLBQvuVqJY87igD/B0CtzSaYD6KOPijc+PU+X7F1jxAAAW7iYQSYqtehwSE50w6siOv72sROd/b1GuoGwiFwmuStVQ6rPbj9xiEURNVoADxLE7hMM77eltVFlbj9xiFdE4hS3P/mUruvX3hfd0NUzi0JkveFGGze9DlK1ZVKlCYWdIvCoSulYsUi+Zb3OByMBcFJAJp2koAC7/IU6vsBbhvHd3sBQIn6BX3Hueb8+Hk31imdJnkP64px9R7jgSn7lmP4p3PBNRegNCUfhdEZWhVzW+WgqlYhIyi+/rPTeK9OL7DR/GRQ3H37aKNlyzIuJrRbG2osChK7/apO9mSbQAgcx+u3JvOCpbNjxAGC7sIbC1O3hC1O2/LvODnXDBQvNtAI3BmCK/7uG1/v3gIA0EnSsHCzuf3UvQ9cLdztuszT7zzFF07jvRD3y00cG/YlTk/djvNP/IyLz/7RRg8VAeE8nB7nacZXxj7hj2CkX4hr8pyQ94+3WQgCgPCJAXrDpJU5pfUbqdqLxuoYaIQEuxXEEDOL07fsIQx5GoBm9VgBKH484L7p87oKGN1KAAQ4f+QAQEsPdp7uFzTv1ttjeRaCLm1LW5FejEsLdiFy6zmtPoCF0Rktitfr8D+PC+/nR9a/pVwfM64dfAVR6Y22/tJEcXwObrz0d5uFgIm9BQa/q3+jZu4dmUGexXaAcxPPmbEa3RSLMjafhJqOAWiUltJD6UcBwo1fdTsBoObxvDU+Vg1+f+aNqXuWPU44XZvWW5ldinNzdjZaDLNcrl9Fbo4pRm6dhwFrp6DfqxPa3Q3H0Aj/9Ex9yK85ZF1PxsVnf2/UVGgOfVaNg8eTg3X9DyWGSdW39undlAAwypBgS7E4c+uDSh5vLCj5BgCjoUm/HeDxyaRuJQAIoSMAgHBI3pS9yx4MWDt5kjGMK/6Xm6guanwx5oXqf1Ml7QvB8eFfIuS9Y/q7BxOCwe8/jqEbZhvVPJQk5jZZq0CvJvAgB2GfnGpb23BCMOabp9F7tHZikamDYZQ+vrVp46FVSlH8IGsLujFWSsWKxemb3yWEmQ6grvYhR81wv+luPoCXeaa8hCeuvaVwmeY3zBgGVJVfjuT9oU2ek3ZKf0xcOHcAFPkVSPG/hxsvH+jYxp6G8sGoGIR+fLLZsVp62MHjycEYLp6Lx4+9gmfiPsHkP19ode3+OnBNeJiye2l9OTabvo7o+8p4gz2XiX3j6SK5d6QDor4N8kY3x6K0bdc4NtyBlJDFAN1PQC26zV6AAyKxyMzRQvlE0FpnnpWJtbGMK/73282+1XKDpSiXF+m0+rYQ2sJ+mBvyw+XIvSuD9EgkvBYMN9o5UCuUuLPuiE5zUo6AB/thbnAYK4L9CCHshwthYm9h8PvzrU0x8bclUOSWwcTOXG/fxLaiqQiLqqIaZcmF2wHM7+5CYGGMuBrAwdq/7rMZaPSWJ9Z5Pz9qdFfb+5ookxUg4ffbzb81GQrpoXAMXD9d5zuPJwfXq9Mx/7sMzycHgyMwvmnJC03F3XePoTQ5DyAE9sOFcJnmC4dxItgPF9Zvqe0MdMgGp2ZKQebdlc1pqnBod4XRC4CYHy9b5t6Q3WNUjF9jxTG6RhemCP3oZItj0Yl/3UXf1RN1VGD3fw1CxOazoAxFubwISXtC0Ofl8R0+/Jur/ZF1JQlcMz5mHFoFaz/9NVOVJQrc/+YSEnffgaVnLwzdMBvu8wbqaDPdGk00YKlDRUYxr7LaTAzg454kAIzaBxAhDuwjP/FAnnU92c+qCU9tV0D6T6RuaanmfAV6stfMnKzgOPGheZlyIKzDx14clw356VioKqrBKNWNMr/k4D0ETtkOyT8RGLphNuZcfAP9Vk9sM/OrFUpk30xBwq7gmn0TetJ5FXllLWroYUiUpxe3KFRbEJm+Gj0MRqsBhH9+7qnUY9GHKjKKeQBgYmtmNGNT5JYhfEvrOz3F/XwTPktH62gBfVaNqxcmdkM6tkoZZSge/HTj4Ru+tArKsiqdmoYPfryO5H0h8F48An1fmdAum748rRCx31+D7FiUVuiTb2UKz6e0S5XxLUwQOGU7HMZ6wnfpaDiM9WxWPW8v9KUb6xUAURm9wj8/99Twj2cf6ykCgGuMgwr94PgG6cHwn6sKyuvH57dqHEw7wLHUagZSMbi+aj9Kk3Jb/ds6Z6HTJG2HspWXPdJOxaCqoAL2I9xbXbZbVV6N3DtSFCfkQH46FnxLE5g66reTb712EGkn7msdsxTZw26Qi9YxhzGe6PPyeDhN8mmz515ZWmM+BL91BAWR6Tr7BcrlhfB5YbS2SsrnQllWhaTddyA5FI60k/fBKNWw9OzV5nE0h/jfbqEwumVCQGBpOmR31NGdrAnQUbbpa/4Byf73tijLq7TEPlVToxjfvU2ndbzgrVpsv9xESVKejgOq76sTa02LCMT9dAOlknwwSjUqMksgCQhHZXbjLa4Ij4Poby7hxqq/Ef1VUJMJMq4z+ugdk0Hy6jWEZPLeEARO3o64n26AqVbpf/NGZyI/THevgN+KsfX1EUuS8hCx+SxOjP4a117cp6NFGAJF97NafG5PCQkanQYQKj5p/rzr7IiMC/HT9LXJcp83sMnyWJ2B+99cQvyvN9utghc/yILo2WFaFX9t+jhAdjQKVQXlyL6ejMQ/7yB2+1Uk/HYLZdICOE/2hZmT/sQXDo8Da18HSA7eq6XVIFh52+s918rLHvG/3tKK41cVVECRXw63x/u2W93OvpmCGy/9DUlAeIsYVV2lgnCu9p58nhkfiuwyFERqdEZiKMok+ZCfiUXCruBaDYzA3NWm3ZukSpJykX+vZYlNjFINc2dr7z/uHjrACgADIeaLs77Zt2RxeSGp7o2d4zLdDzZ9nbpI76eI+m9NBV9DoCK9GIxKDadJD7ebEy4HJr0sID8Tq/VmH/T2dIzb/mzzDTwJQcJvt2pMjAlesBus35fAEXCRd0eKstRCPW9jOcxdrWucfK0UBIrcMoR+dAKRW8+1yolXmpIPnxdG6qj31n0ckfSXfkcho1Sj6EE20k7eR8Jvt5AXkgplWRVMe1u2qj+ipsaSejy65aZNSZXPhlde/nLnlUNqVgC0E2EbAueknn5woyQpr0kD38bPsUu6z1IVg5D3jiPxrzsGvW5eaBrsBjjD2vehB96mryPSL8RBkVsGnoUAE39ZDJ8lI1vUbrtUkoeUv2siCGbO1k1uHiqIzEBBhO4br0xWAOmhCMiORkFVVgUzZ+sWdTqSHArH9RX7td/YLaWvmoHAxlSnaYnA2hSVOaUobKa0GFUzKJMWIPNSAhJ+v4308w9QmVECDp8L096W4DSRLMRUq0C4HJg6WiHul5tAC4uMKEurONaDRLxfrx+4yAqA9jD/J6c+lh6O/EORX9bsOPhWJjoe446GulKJm6v9G03lbS/SL8TDaYI3zF1tal/iBLZ9HaEsqcKY/3sajuNELb6W7Fg0sq/VRBIUWaXo89L4RpuK5IfLm/RjVBdVIueWBIm7gpF1JRGqimqY2FvoCANVRTVC3j+OmG+vgKlStZkOZZIC9Fk5Tme8tgNckLyndWXWFLllyL0rgyQgHHE/30TW1SSUSfJRmVUKZakCVMWgNDkPiX/eQVpgDNxm9QNXwINaoURBeHprKg0N3Jt46qvuLgC6LLPm5usB/vLAmEUtnVxTB0s8GfZeh4eE6lCckIPb/zmE4rjsDr2PwM4c0w+uhG3/tps3qopqnJu1U6vl+Kj//hs+L4zSe374p6eRsCtY921gyofLdD8I5/SHpZc9zN1soK5UojKzBBkXEyA/Ewvbgc6w9OgFylCkn3ug2+a8jRi/cyE85g/SHetnZ1qUbdmmxc8hmLpvOZwm+9SaQRkIfvMwSloS4SEEfddMfLq7hwQ7XQO49b8As2UO88Mzzj2Yoc/Z19Qid5vZr1FHmCGRtPcubq0+iMqskg6/l1qhhDwwBs5TfduU4kpVDELePaZVkBOo6S3oNrs/THrpbnJJC4xBUUym1mL2WjgcU/cth9eC4bDt7wxzF2vwLUwgsDWDhdAWzlN8ILA2xYMfryMvNBX5YWmoLjZc56zS5Dz4LhutI+DtBrkgeW9Ii7cet454QMalRIieGQq+pQnMnKzgvWQk+FYmKIrJbNaJKbA2HbI7snuHBDtVAER9EeRdcDU9PveO1LMtvzd1sOxQP0BldinurDtS4yVXdd7OPHWlEmWSfIieG9a87yBEhuKEXJg6WKJcVojbbxzSWxmHqVIh7WQ07IcLdTL3uCY8ZJyPA1OthoXQFhN/WYy+r0xoNp/fdoAzCICc21KD06Aqrxy2/Z11shJ55gKoKqqRd1fWMbRX1Gg45i7WMHO0AofPRe9RHvBdNho8CwGK7mdB3Yh5o8guddgsFu/54czuItYEaAbhmwJnys/HnSqXF7U5m8O2vxNmn/+PwcemKqtCwp938ODHawatO99auMzoA9t+NaaApagXvJeM1NKAIreeR9K+ELRGc6q7lvNkXwx+b0Z9t57q4kqUpuTDdoAzuCYtTwilDMWVJbuRc0ti8Oe3G+SCWadf09EClCUKnJr0nf6aCQYE38oUjhO84DTZG8LZ/WHmbA1lqQLxv9xC3K839WoEnk8PPjn++4X/ZgVAk86+k+/Ljkb/t7qkst33a0k/vJaaFBlB8cgLTYPsaGSTBT26Cn1fmYBew9xQEJEOyaHwdo/RdoAzZgauBofXvOKnyCtH3l0ZnKf56oToKtKLcXbmj20qddYcJu96Aa4zdSMY8b/dQsTms53HGByC3qM84PnMUHgtGIaqggpEfRUE2eFILUehhZuNymXVNPNRq0cpu6MA6HATIPitf/6WHIpYr65UGkTYMEp1fVGItqIioxjXXtyPxF3BKIiQ67TmNhbk30uD/HQs8u+lGWSMitwyeC0cAYGNWZNveMmBe7i+aj+khyOQeiwKzlN9tfYC8K1NYWJnrlW12FAoTy3U0nzq0GuwC2RHIqEsUXQO8WmNoMsIiof0cAQcx3mhz0vj4fp4PxREpUORU1NrU1laxbETWXN+u37gEisANJC49rTJc36z78rPxM4CY7g03tLkPHg/P7LNeeHy07G4suQvlKcV4lGElZc97IfpalCMSg3ZkSgEr/0HkoP36sN6yhIFMi8mwOPJweBZPKS57UAXZF1LRmWmYR2llVkl6D3aA5ae2q35CJcDgZ050s8+6HSaKUurIDseDfvhbnAY4wnvRSPBMeEiLyQNVM2AEM6gvQndMyTYIQIgUnxamB6TmpBzR2rwzipUzUDifw8V6cWgDAOeuQB8KxMte74yuxRlknzwzAVa9m2pJB/XXtzXpXZ+V6MwOgMOY0Uwd7GGukqF3NsSxP9yC2EfnoT0SCSqCnTtbGWJAoXRGVrVigghsBvsihT/e632STSroaUXw2uhbmUkm35OSD9fkyjV2aBqBvIzsTV5G0JbOIwVwWW6LzLOx6NUkm+26ZONkT8F7Yl75H0A9z4781jG+Qeny2SFndZQgcPngmcuqEn0qNU2nCf7YMreZfVZdNWFFQh66jeUpuSDBcCzEEBdqWxViy19sfqQD47XZyAaEnMu/Ac2/XRzI7KuJ+Pasr1dVj/R3MUas8+9Xu9MLY7LxsWnf4f9GI+YaXuWD+pu68CguwFDPzr5pjQg/EJnMn+dX6C6uLJ+MZu72mDc98/VM7+6SoUbLx9gmV8DqvLqVvfXi/r8vE5IbNDbM+p37hkSyfv0F1p1nuyDaX+/qJM63FmoyCzBnbeP1ms9Nv2cMHzzE8gLlg2M+/6qV3dbBwYzAYLXHd4j/SfiA1VldZfW7eLwuZiyZynqKghRFYNbaw4i61oyy/XttYVLFBDYmqH3yId7tviWJlBXKpFr4Dh9SWIuPJ8eAp4pD1UFFVr+Bwt3O3gtHA6P+YPA4XNRkpALprrz9uWUpuTDpq9TfQ9IuwHOyLqaDHW1yuuPu4f8HykTIEYcIMhLqbqZeSlhlDE80Iit8+D34thaw43izttHIf0nguVeA0FgZ45/3VintetOWapA4KTv9PoP2mWmmAtA1QwYFYNB70zHgLV6e8KiOC4b5+f+DEbVeULA2tcBc4L+U69lFsdl4/rK/SqXlVO7VUiwXRpAxNaTbtkhufE5tyVG0bbW86khGPrRrPrP4Z+dbbZmP4vWQa1QglGq4Tz1Ya9CrgkPHD4XWVeTDG7aUTUDUIqcmxJkXU1C0YNs8Mz5WtmNpr0tUZKUi+L4nE6jQ1VBBax8etcnbpn2tkTmpQSOAGry640Dl3u8D+De5+enys8mJeeHyx2N4UFs+jhi1JcPE7JivruChD9usxzbAUj88w5KErU3zPguH93hlYLz76Uh8c9gXF68W6frsOeTQzqdDrKjWi334LNsNAqiM17vTnPZJgEQtuHkf6R/h14qkxaYGMND8C1NMPHXxfW5AYm77xikNz2LRt7MKjXubQrUXkgCXqMquqFBVQzCxWe0jjlP820ywakjkHdXphUCdZvZDxXpRb2ivgx6qscKgOC3j/6ZvD/sh+qiSqOoJ0g4BGO3P1vv9JMcCse9TadZLu1gZN9IQVqgdp0E0YJh9bUNOhr54XJkXEx4uJD5XLjO6twOysqyKlRkPazVSHgcuEzzQ1FM1tYeJwAuTxPzri7fd0sacG9Fh2zNbCMGrpsGt1n9ANRscw1577jBE1NY6EfElrNabdE4fC76vTax0+4f/XWQVijT41+dH4YvTdYu8Oo83Q85dyTdJiTYIgEQIw50Vtu4yjMvxY83psG7ze6PgeumAQAyLyUgeO0/3aLBZk9BRXox7v+ftqnlvWRkx7Tu0oOimCytRirO0/zQa5iwU2nQsA6D82QfqBUqFCTkfNsjBECY+PQ46cVESV5YmpMxDbzXMCHGf/8cQAhybktwc/VBGJNm8qggYVcwCqMf1u3jmvI7pbVZHSK3nqt3SBIOwdS9yzDkw5lwnuoLC6GtQRuI6kPqiWgtjVNgawYrL3vkh6TOC/0llG/s89dkHsC9jSdfkx67/2N1YYVR9Q+w9nXA9EOrYNrbAvnhclx5/i+oyqpYbuwi2A12wcwTq+uZrbq4EifHfNNs12RDwcTeAhN/XQyHMbp1ZhiVGpWZJajMKoEitxyVOaU1e0VkBSiT5qMkIbfRgh8txdS/X4Tz5IfbXm68fADp5x7Ad9mYraO+mL/RmOeu0TyAO28d3in5J1KsatCgo6thP1yI6f4rYGJvgaIH2bj6/F+dt0WUhV4ocsrAszJB71Ee9VpARWZxsxV9DQV1pRKSgHBkBMWhJCkPymIFuOYCCGzMQDgcCGzMYO5mC2s/B9gPE8Jpkjfc5w2Ezwuj0feVCTBzsUbOTUmbq0ApskohenZofSGTopgs5IWkgnAw0Nh3Ceowd8CCAK6zRfXVjKD4icY2WOepvvXhvpLEXFxe+CcUeWUsBxrDm8SUj5mnVsOmb01aSEliLs489kOXOmRN7C1gP8wNvYYLYT9MiF5D3Rotc35vYyASd7e99Pvor5+C9+IRNWbJ5+cR99MNgBD0XzPpyaEfzzphrPOmVQsqeluQU3aoJDwjKNXF2Abq8eRgjP32GXD4XGRciEfwm/9Ayar9RgO1QonbrwdgZuBqcE35sPZzgPMUH4NnB7YGVfnlyLiYoBUuNHezge0AZ9j2d4ZtPyeYOVtDpVAi/UL7dvKGf3oaXFMeLNxsIT9d29yFUhTFZW8DYLQCoF4DiBCfHZN+Of5KaXKembENst/qiRjy8SwwSjWivwxCwh+3W72TjUXnwGfpaIz6Yj4AIPNyIq4t3/tI04NnIcDA1yZ59V8/XWqM4+MAQLg48GXJ0Yjbxsb8hMvBiK3zMHTDbJQk5CDo378i/rdbLPMbMZL3hdT3KHSZ5qvV+ehRhKq8GoUped8Z6/g4d98+8kPS3tDfqvLLjcrTz7M0weRdz8P3hdGI/f4qzs/9GUWxWSyHdQOEbQisCQ0SAr+VYx95ehhzSJAY46AOuItdCVQnQYktJVixJG3LdZatuhcOuH7izuFwQilgyQHXfaFcXMBSxUhNAGOCv9vGoRyqvgOGc8eC4Q5mmb97YknGtjQCLATAp0T9OksR44RRaQD+wk1zAbqLAu8skW/5m52eHqAJCDe+SYBtKsrtvzRdLGcpwmoAOqAAOSDc8AEF3QuKOSzz9yBNQL5lByhO8aD+mqUGKwB0cNJVbO4v3LCfgGwFJYsWp2+JZKelhy2yau4rAIYedNs0naUGKwDqsc9NLCznqK8QkCUAtixJ33yRnZKeh4W54jIOpU9TQn/Y7/GhHUsRVgDgoPsnU/hEHQZgNAW56yTnfs5ORw8WAhlb4wkhW7kMbztLjUdcAPi7b3ydUk4QBRwBVFMOXTUdYhU7HT0bi9I2HyDglBx037SEpcYjKAACvD+wOSDc8DcofgTABwBK6NbnU7fEsFPxaMDKtPAdSul6f3fxIJYaj5AAOCjc8ARTLYiqtffrEM215n3JTsOjgyeSvq8iDNaDqg8fFYltWYp0LTosD8DH02urOTEZbUVNHa1g7ubFODpMo4M1TykE4U5ZnCa+r//3ntNByBq9F2dQDkKSOWAOJ8pkLW4X6+3p9Q0h1F3j4W8nSaWtLt3Ux7VPb4Zf9SoFeQygHqCEgiADBJEcSn9u4Zi4PiLRgfqxMEhPSpWu16KBh+hPcFDXl7syWSp9scnn8/B4jHA4q5u9M4U6WSbtMDXcVySaTYGXNO9IeLxXkpKS6lsJ+ws3hdS03OS++rxcHKUz/yLRwbr1WUubtwHUbwLx9fR8mxIyrvZ5VMky6fONrkWhjy946tb4mI4kS6X+j4IA4LVwQqeBIe5JqZIWbe3q6+7uqgL9sIIquBVQIBtFkHKyMVbdF2YQqAlwgnDpOwtlYknjaxRehGJB42KLggHZ5Ovh9UJSquRQs8wv9PYjYNaDPhR6FJjl6ur6S0ZGRotb2nh5eM1Uk+qDALGrH0zNFf1AMZUBWePt6bkyRSbb39R1Ro4cySnKy1+g8UxxANY3eM4nQVHnNS9pXppzvUHpguafgqoAdKQd/g4oZmodUaovAPi9fqwE/6MUP3Ggvn3Q/ZO5i9K2XWuwAJ6r01ApAXw9PZOSZLIfH74DMJ7UnAMATZYeYvhMLw6DBS0fPklohh/ElMv9Izk5Oa3HmgC+vr7WPp5eb/h4imIoxWUQ2uIYrpJwl6FBtSEV1DjMufUzR6VyWSTf8sxC2VZJK8daCCAFgCaz8imhP7REkyFcukLPeTamfP7TLWZ+L6++HMIcAdBUKItPQHZ5e3v3eRRVSh8fH3dK8Zgegb5C8/OitM0HAPwEwJxSztmD7htXNcnEIF96C72NogMVpfgYKrXEx0N0zNfLaxaMdE9NmwSAl5fXUB8P0c9UqUwH6PcABrTariDQVFWL6v6JQ9qIhVlf5LaR6NuTZVIfC0WlI4Bgja8cRSKRZ7PPSekyfWMiDRZmkzo7g40AsdR45Z6AmuvHMzWxpgTrAdRVJRVw1MyHRmDhbUqWSYnun6zjdqapVMs11lWRxgxOaCgUF8m3fAxCXwfAUIo//IUbAwOEYt9GlD4LwmV2ow3t7DgcjhSUrK7/I2gYiryq+T1lyPGWLAcQPEkZes7H0zPBx9PzHaFQ2KtbmgC+vr4mjFL5HAFnDRg6sdby0tC26CWG0v0tuaCfSDSWoej/cOLoBgryQ60qN8bXw2NAUmpqbFsHHJWdXe4jEkWBYlz9Q1DaC4C0CbX9MTy0/RlQsgmE7qgd4Qxvb2+PlJSU1OYmnILO1/hcqWSYFalyaWHt5+98RSK72rfdbZW2kGqBWQ4rXw+vBdpvPSpo56vF1MPDQ0dbYRhGIZfLKzvEp0TJi3VLhxDsoBSvoSbcS4iavgjgEw2mpkjb+tN+4YYgLji7AfoEA/Xj/u4bd34CvdbmBG8P0bspqdJWOY6Tk5NzAPzawEfx1kPak5iUVMmvrZitzwCyCoB37ZP4Avg/Ey5vi4+H6CClnJ0paSkh3UID6Nu3rxVVqtIIyD6AatYBlBGCz9QEPsky2cyU1NQWZekxjNYbNRZ8/u8ALXvoDSIr2rSyOBjg6+G1zEck+hIUyzW+qjapsGzSZuMSqnnPu0TA/UvDbuQQtXpZC9R/IQBrjUORqamphZrnJEmlnyZJpZ8mS6VnpVJpUSsf0Y0SGqD5R1DvAGyrsvoxn3AKGv6ZcLkfd8Ri8vbwnggCPw217RgBNHqIMcv1aZ0vyLcmxsk5kwGsBVAFinUEhKMtH+uFymfeQu/BXck0yTLZtmSZ1BegMyjoPgB1wtQMBCsIh7nr7en1e7cQAOXl5XwAmmVbFJTg9WSZ1DtJKhVLpVJpSy8mEolMQbC4frIoTiQlJVURcM5psPLSaS10PjZ4RS6khO4BxfsATDWu931MbkyjlUG9vb1tKPC0xgI6kZSUVEIIrj68NnmxOTuOq1Zb6vFJsNCS0hqCliItSSaLoKAnNU4Q+np5Pa7vp2KImcXyLT9QhhlICQI0v+sDV6UZTOpKP5uAy+whhAi62hWQLJNdTpHJllWpVUIARxqoQq7dwgQQCARqqJlqAHUENSUUP/p4ihYSSnYpGOU/LVUXucCTAGwf8lXN5FNCT4Li2drDLqmenrMhkwW2c+zZAPnRXSb5IrmpNamii0BQX+qMqrk1Y2LISRA6s3a2/Lw9vCempKbcaPRCAkEOlFrJinZ6hI0Hh8Mp0gx3tcIEKCegDdoZk6moTZhqo9/kPIBLusc5twy9kFxdXc0JHkYgKCEnAVALheJ8uamZok5oU4auAHC+sessydiWBmCRj6eoPgpgTk0Fi+gk7OZcpDUyHMNA6aCu9r15eXl5cildSSlWAvBo8HW3qFXPS0lJKfby8vLgMMzLtQ4S99q34TRK6DQTLu97X0/R35Th7kxOS77fzCpuoN6TQB9PEQXVeeOvgJZq2CLrcjuXYXbUvGioIj4tLQMAklvzVgIAjvqaj6cIAMPXWkA15zUqAJKSkvJ8PD3LNJyAfYVCoZmmcCQqZgclzFwfT89rBDiaJJPtbIU3Ni1JJtMKnfl4igrQdMShGWcsuZEsk3RKopU5z+QZCmqt8QZc4eMpWlJe81FTiD3l7e1tk5KSUtzSa8cT+bGFdNLPHIpnGIJXa+/A6yqm8RGJFhHgJcrQx6iuSXOFULLTxqHXMcikxi8AAEAikWQD2Abgvz4i0XzKYA0hmFkrCGwosIZw1KYAGg3V9BEK3dRoEPvV0Aa0eZnMFwqFveRyeYvLRFEGhQmpqSmtlNB9wdCGfaoexu+1VbYFrq6ubzaRE0ABchIP4+d2JlzulyKR6H2pVFrlIxItB8W/ay5MHqcgVQB2dvH86nUCAkBqamoJHkYt2q8PE51oinntX0OYERVdpOmUaw6VqCpdlLb53ECHgTcV5uWPP3S+dZXyj71UW6iVAHQPofSnegd3qgTdAQ2llzpZKj2WkiqdTdWcvhTkfy21dVU8nlbsn1DcBWiQxp+m9mBiyuV2+IYQrpo2XJS3NMdEAM1i8NbmPJNnm5x3LkcMrYQcspZLUeLjKSoHxW4NqUIJoUZQAEO/E5BPOAW+Hh79DKkKA1p5IqkN5j5I05Gno5W1EDG5MWUMQ1YAMJYOsFGUYI1phYVbsky2tj3RrS7VAPQhRZ6SCOAdoVC4QcDlLiGNvM3rJQnFixrFuivNqypnRGVnl2s4CPtxKR5ovE5XAPixI/mfEmh69wvdZdKpV4B6Q95PJBpL6cNwHa1ZmI1mO6akpCR4e3o+TwB/DVOA39BOJ6AbkqSyq4+K74/DQMu7TyjZkJQq3attzniFAnRk7cfxIpGon1QqbXU3Dkma5LqPp9e3AH2n65ydOEAZzm9N+oy6uwCoQ62Nu6upc7yF3n4UtBxAWC0D3NVkfgCQSqVxPp5egQCc6yxUXzdfYVJ6klz/ouLkUQ7CHtIcrWo05+vpOYSCZAGorSXOXNJkfgBIlEpDfDxFlwFiXbtyrZozTVJkssA+Hh5D1RzyJih9DCBC1ITr8gAEA/SHJJnsUnPjswoLo0WeXmGaJNJzWkTd2Cil5c1zIs0FJWEtVP0MlwdA6CDN+/LU1af1nLVb0+ziUUyCtgbWkMnCQOtCgVSLNmpCN3ApBgKkNnpFla30jpYAnDCN8bcqpbe5PRndCf8PghLeWwJG4xIAAAAldEVYdGRhdGU6Y3JlYXRlADIwMTktMDctMDNUMjM6MDk6NDUrMDA6MDDBJ4BCAAAAJXRFWHRkYXRlOm1vZGlmeQAyMDE5LTA3LTAzVDIzOjA5OjQ1KzAwOjAwsHo4/gAAAABJRU5ErkJggg==;" vertex="1" parent="24g8IbpXDalR44-WMLQY-1">
          <mxGeometry x="146" y="302.22" width="32" height="19.78" as="geometry" />
        </mxCell>
        <mxCell id="24g8IbpXDalR44-WMLQY-48" value="Generate Git-Diff using GIT SHA from DB" style="rounded=1;whiteSpace=wrap;html=1;fontSize=12;fillColor=#fff2cc;strokeColor=#d6b656;" vertex="1" parent="24g8IbpXDalR44-WMLQY-1">
          <mxGeometry x="180" y="214" width="270" height="20" as="geometry" />
        </mxCell>
        <mxCell id="24g8IbpXDalR44-WMLQY-50" value="" style="shape=image;html=1;verticalAlign=top;verticalLabelPosition=bottom;labelBackgroundColor=#ffffff;imageAspect=0;aspect=fixed;image=https://cdn0.iconfinder.com/data/icons/phosphor-fill-vol-3/256/git-diff-fill-128.png;fontSize=10;fontColor=#0000FF;" vertex="1" parent="24g8IbpXDalR44-WMLQY-1">
          <mxGeometry x="154" y="214" width="20" height="20" as="geometry" />
        </mxCell>
        <mxCell id="-rtHCfNOlhfTTN0MqkGV-1" value="" style="image;html=1;image=img/lib/clip_art/computers/Database_Add_128x128.png;aspect=fixed;" vertex="1" parent="24g8IbpXDalR44-WMLQY-1">
          <mxGeometry x="306" y="570" width="25" height="25" as="geometry" />
        </mxCell>
        <mxCell id="-rtHCfNOlhfTTN0MqkGV-2" value="" style="image;html=1;image=img/lib/clip_art/computers/Database_128x128.png;aspect=fixed;" vertex="1" parent="24g8IbpXDalR44-WMLQY-1">
          <mxGeometry x="149.5" y="180" width="25" height="25" as="geometry" />
        </mxCell>
        <mxCell id="-rtHCfNOlhfTTN0MqkGV-7" value="" style="shape=image;verticalLabelPosition=bottom;labelBackgroundColor=default;verticalAlign=top;aspect=fixed;imageAspect=0;image=https://upload.wikimedia.org/wikipedia/commons/thumb/4/4b/Bash_Logo_Colored.svg/1200px-Bash_Logo_Colored.svg.png;" vertex="1" parent="24g8IbpXDalR44-WMLQY-1">
          <mxGeometry x="126" y="244" width="21" height="21" as="geometry" />
        </mxCell>
        <mxCell id="-rtHCfNOlhfTTN0MqkGV-8" value="" style="shape=image;html=1;verticalAlign=top;verticalLabelPosition=bottom;labelBackgroundColor=#ffffff;imageAspect=0;aspect=fixed;image=https://cdn1.iconfinder.com/data/icons/ionicons-fill-vol-2/512/logo-python-128.png;fontSize=12;fontColor=#0000FF;" vertex="1" parent="24g8IbpXDalR44-WMLQY-1">
          <mxGeometry x="152" y="244" width="20" height="20" as="geometry" />
        </mxCell>
        <mxCell id="-rtHCfNOlhfTTN0MqkGV-9" value="" style="shape=image;verticalLabelPosition=bottom;labelBackgroundColor=default;verticalAlign=top;aspect=fixed;imageAspect=0;image=https://upload.wikimedia.org/wikipedia/commons/thumb/4/4b/Bash_Logo_Colored.svg/1200px-Bash_Logo_Colored.svg.png;" vertex="1" parent="24g8IbpXDalR44-WMLQY-1">
          <mxGeometry x="282.25" y="451" width="21" height="21" as="geometry" />
        </mxCell>
        <mxCell id="-rtHCfNOlhfTTN0MqkGV-10" value="" style="shape=image;html=1;verticalAlign=top;verticalLabelPosition=bottom;labelBackgroundColor=#ffffff;imageAspect=0;aspect=fixed;image=https://cdn1.iconfinder.com/data/icons/ionicons-fill-vol-2/512/logo-python-128.png;fontSize=12;fontColor=#0000FF;" vertex="1" parent="24g8IbpXDalR44-WMLQY-1">
          <mxGeometry x="308.25" y="451" width="20" height="20" as="geometry" />
        </mxCell>
        <mxCell id="-rtHCfNOlhfTTN0MqkGV-12" value="" style="shape=image;html=1;verticalAlign=top;verticalLabelPosition=bottom;labelBackgroundColor=#ffffff;imageAspect=0;aspect=fixed;image=https://cdn1.iconfinder.com/data/icons/unicons-line-vol-2/24/copy-128.png" vertex="1" parent="24g8IbpXDalR44-WMLQY-1">
          <mxGeometry x="306" y="359.5" width="25" height="25" as="geometry" />
        </mxCell>
        <mxCell id="-rtHCfNOlhfTTN0MqkGV-13" value="" style="shape=image;verticalLabelPosition=bottom;labelBackgroundColor=default;verticalAlign=top;aspect=fixed;imageAspect=0;image=https://upload.wikimedia.org/wikipedia/commons/thumb/4/4b/Bash_Logo_Colored.svg/1200px-Bash_Logo_Colored.svg.png;" vertex="1" parent="24g8IbpXDalR44-WMLQY-1">
          <mxGeometry x="308.25" y="482" width="21" height="21" as="geometry" />
        </mxCell>
        <mxCell id="-rtHCfNOlhfTTN0MqkGV-14" value="" style="shape=image;verticalLabelPosition=bottom;labelBackgroundColor=default;verticalAlign=top;aspect=fixed;imageAspect=0;image=https://upload.wikimedia.org/wikipedia/commons/thumb/4/4b/Bash_Logo_Colored.svg/1200px-Bash_Logo_Colored.svg.png;" vertex="1" parent="24g8IbpXDalR44-WMLQY-1">
          <mxGeometry x="308" y="542" width="21" height="21" as="geometry" />
        </mxCell>
        <mxCell id="XKmo-BlWGQgHY8Wi9oVM-0" value="Illustrative" style="verticalLabelPosition=bottom;verticalAlign=top;html=1;shape=mxgraph.basic.banner;rotation=-45;spacing=-33;fontSize=13;" vertex="1" parent="24g8IbpXDalR44-WMLQY-1">
          <mxGeometry x="207.54000000000002" y="70" width="127.46" height="37.93" as="geometry" />
        </mxCell>
      </root>
    </mxGraphModel>
  </diagram>
</mxfile>
